{
.appVersion = "1141";
copyright = "Copyright © 2018 by Cadson Demak Co.,Ltd.. All rights reserved.";
customParameters = (
{
name = vendorID;
value = CDK;
},
{
name = description;
value = "Copyright (c) 2018, Cadson Demak (info@cadsondemak.com)";
},
{
name = license;

glyphs = (
{
color = 6;
glyphname = A;
lastChange = "2018-05-10 10:19:22 +0000";
layers = (
{
anchors = (
{
name = bottom;
position = "{315, 0}";
},
{
name = ogonek;
position = "{550, 10}";
},
{
name = top;
position = "{320, 700}";
}
);
layerId = "0B1DFD06-3317-40CA-B510-4969A0718C16";
paths = (
{
closed = 1;
nodes = (
"102 0 LINE",
"168 195 LINE",
"462 195 LINE",
"528 0 LINE",
"585 0 LINE",
"352 675 LINE",
"355 680 OFFCURVE",
"358 686 OFFCURVE",
"358 692 CURVE SMOOTH",
"358 703 OFFCURVE",
"347 718 OFFCURVE",
"320 718 CURVE SMOOTH",
"302 718 OFFCURVE",
"290 709 OFFCURVE",
"280 680 CURVE SMOOTH",
"45 0 LINE"
);
},
{
closed = 1;
nodes = (
"316 643 LINE",
"447 241 LINE",
"185 241 LINE"
);
}
);
width = 630;
},
{
anchors = (
{
name = bottom;
position = "{357, 0}";
},
{
name = ogonek;
position = "{592, 10}";
},
{
name = top;
position = "{362, 700}";
}
);
background = {
anchors = (
{
name = bottom;
position = "{357, 0}";
},
{
name = ogonek;
position = "{592, 10}";
},
{
name = top;
position = "{362, 700}";
}
);
paths = (
{
closed = 1;
nodes = (
"394 675 LINE",
"397 680 OFFCURVE",
"400 686 OFFCURVE",
"400 692 CURVE SMOOTH",
"400 703 OFFCURVE",
"389 718 OFFCURVE",
"362 718 CURVE SMOOTH",
"344 718 OFFCURVE",
"332 709 OFFCURVE",
"322 680 CURVE SMOOTH",
"87 0 LINE",
"144 0 LINE",
"210 195 LINE",
"504 195 LINE",
"570 0 LINE",
"627 0 LINE"
);
},
{
closed = 1;
nodes = (
"227 241 LINE",
"358 643 LINE",
"489 241 LINE"
);
}
);
};
layerId = "39D19F74-97F3-4EB6-8D96-77117D45ABB1";
paths = (
{
closed = 1;
nodes = (
"175 0 LINE",
"241 185 LINE",
"473 185 LINE",
"539 0 LINE",
"679 0 LINE",
"436 644 LINE",
"438 650 OFFCURVE",
"440 656 OFFCURVE",
"440 662 CURVE SMOOTH",
"440 696 OFFCURVE",
"410 718 OFFCURVE",
"362 718 CURVE SMOOTH",
"323 718 OFFCURVE",
"298 698 OFFCURVE",
"284 660 CURVE SMOOTH",
"35 0 LINE"
);
},
{
closed = 1;
nodes = (
"358 532 LINE",
"444 291 LINE",
"272 291 LINE"
);
}
);
width = 714;
}
);
note = A;
unicode = 0041;
},
{
color = 6;
glyphname = B;
lastChange = "2018-05-10 10:44:46 +0000";
layers = (
{
anchors = (
{
name = bottom;
position = "{289, 0}";
},
{
name = top;
position = "{289, 700}";
}
);
layerId = "0B1DFD06-3317-40CA-B510-4969A0718C16";
paths = (
{
closed = 1;
nodes = (
"320 0 LINE SMOOTH",
"449 0 OFFCURVE",
"523 74 OFFCURVE",
"523 191 CURVE SMOOTH",
"523 286 OFFCURVE",
"452 348 OFFCURVE",
"366 366 CURVE",
"366 367 LINE",
"434 377 OFFCURVE",
"503 416 OFFCURVE",
"503 524 CURVE SMOOTH",
"503 616 OFFCURVE",
"446 700 OFFCURVE",
"317 700 CURVE SMOOTH",
"118 700 LINE",
"111 709 OFFCURVE",
"100 718 OFFCURVE",
"91 718 CURVE SMOOTH",
"72 718 OFFCURVE",
"55 699 OFFCURVE",
"55 683 CURVE SMOOTH",
"55 661 OFFCURVE",
"81 670 OFFCURVE",
"81 631 CURVE SMOOTH",
"81 0 LINE"
);
},
{
closed = 1;
nodes = (
"134 341 LINE",
"289 341 LINE SMOOTH",
"396 341 OFFCURVE",
"467 288 OFFCURVE",
"467 191 CURVE SMOOTH",
"467 90 OFFCURVE",
"417 45 OFFCURVE",
"317 45 CURVE SMOOTH",
"134 45 LINE"
);
},
{
closed = 1;
nodes = (
"134 655 LINE",
"310 655 LINE SMOOTH",
"410 655 OFFCURVE",
"447 596 OFFCURVE",
"447 524 CURVE SMOOTH",
"447 421 OFFCURVE",
"373 387 OFFCURVE",
"276 387 CURVE SMOOTH",
"134 387 LINE"
);
}
);
width = 578;
},
{
anchors = (
{
name = bottom;
position = "{313, 0}";
},
{
name = top;
position = "{313, 700}";
}
);
background = {
anchors = (
{
name = bottom;
position = "{313, 0}";
},
{
name = top;
position = "{313, 700}";
}
);
paths = (
{
closed = 1;
nodes = (
"344 0 LINE SMOOTH",
"473 0 OFFCURVE",
"547 74 OFFCURVE",
"547 191 CURVE SMOOTH",
"547 286 OFFCURVE",
"476 348 OFFCURVE",
"390 366 CURVE",
"390 367 LINE",
"458 377 OFFCURVE",
"527 416 OFFCURVE",
"527 524 CURVE SMOOTH",
"527 616 OFFCURVE",
"470 700 OFFCURVE",
"341 700 CURVE SMOOTH",
"142 700 LINE",
"135 709 OFFCURVE",
"124 718 OFFCURVE",
"115 718 CURVE SMOOTH",
"96 718 OFFCURVE",
"79 699 OFFCURVE",
"79 683 CURVE SMOOTH",
"79 661 OFFCURVE",
"105 670 OFFCURVE",
"105 631 CURVE SMOOTH",
"105 0 LINE"
);
},
{
closed = 1;
nodes = (
"158 341 LINE",
"313 341 LINE SMOOTH",
"420 341 OFFCURVE",
"491 288 OFFCURVE",
"491 191 CURVE SMOOTH",
"491 90 OFFCURVE",
"441 45 OFFCURVE",
"341 45 CURVE SMOOTH",
"158 45 LINE"
);
},
{
closed = 1;
nodes = (
"158 655 LINE",
"334 655 LINE SMOOTH",
"434 655 OFFCURVE",
"471 596 OFFCURVE",
"471 524 CURVE SMOOTH",
"471 421 OFFCURVE",
"397 387 OFFCURVE",
"300 387 CURVE SMOOTH",
"158 387 LINE"
);
}
);
};
layerId = "39D19F74-97F3-4EB6-8D96-77117D45ABB1";
paths = (
{
closed = 1;
nodes = (
"344 0 LINE SMOOTH",
"493 0 OFFCURVE",
"587 77 OFFCURVE",
"587 213 CURVE SMOOTH",
"587 286 OFFCURVE",
"548 331 OFFCURVE",
"479 363 CURVE",
"479 367 LINE",
"539 398 OFFCURVE",
"567 438 OFFCURVE",
"567 509 CURVE SMOOTH",
"567 628 OFFCURVE",
"477 700 OFFCURVE",
"341 700 CURVE SMOOTH",
"140 700 LINE",
"129 712 OFFCURVE",
"118 718 OFFCURVE",
"102 718 CURVE SMOOTH",
"73 718 OFFCURVE",
"46 682 OFFCURVE",
"37 655 CURVE SMOOTH",
"27 625 OFFCURVE",
"65 635 OFFCURVE",
"65 576 CURVE SMOOTH",
"65 0 LINE"
);
},
{
closed = 1;
nodes = (
"197 311 LINE",
"339 311 LINE SMOOTH",
"413 311 OFFCURVE",
"451 275 OFFCURVE",
"451 213 CURVE SMOOTH",
"451 144 OFFCURVE",
"413 106 OFFCURVE",
"339 106 CURVE SMOOTH",
"197 106 LINE"
);
},
{
closed = 1;
nodes = (
"197 594 LINE",
"334 594 LINE SMOOTH",
"395 594 OFFCURVE",
"431 563 OFFCURVE",
"431 509 CURVE SMOOTH",
"431 451 OFFCURVE",
"395 417 OFFCURVE",
"334 417 CURVE SMOOTH",
"197 417 LINE"
);
}
);
width = 622;
}
);
note = B;
unicode = 0042;
},
{
color = 6;
glyphname = C;
lastChange = "2018-05-17 04:28:36 +0000";
layers = (
{
anchors = (
{
name = bottom;
position = "{351, 0}";
},
{
name = top;
position = "{341, 700}";
}
);
layerId = "0B1DFD06-3317-40CA-B510-4969A0718C16";
paths = (
{
closed = 1;
nodes = (
"512 100 LINE",
"475 58 OFFCURVE",
"416 39 OFFCURVE",
"360 39 CURVE SMOOTH",
"204 39 OFFCURVE",
"111 179 OFFCURVE",
"111 351 CURVE SMOOTH",
"111 518 OFFCURVE",
"199 661 OFFCURVE",
"350 661 CURVE SMOOTH",
"416 661 OFFCURVE",
"468 637 OFFCURVE",
"506 597 CURVE",
"532 643 LINE",
"484 687 OFFCURVE",
"418 710 OFFCURVE",
"350 710 CURVE SMOOTH",
"170 710 OFFCURVE",
"55 561 OFFCURVE",
"55 351 CURVE SMOOTH",
"55 141 OFFCURVE",
"172 -10 OFFCURVE",
"358 -10 CURVE SMOOTH",
"428 -10 OFFCURVE",
"497 15 OFFCURVE",
"550 65 CURVE"
);
}
);
width = 605;
},
{
anchors = (
{
name = bottom;
position = "{361, 0}";
},
{
name = top;
position = "{351, 700}";
}
);
background = {
anchors = (
{
name = bottom;
position = "{371, 0}";
},
{
name = top;
position = "{361, 700}";
}
);
paths = (
{
closed = 1;
nodes = (
"532 100 LINE",
"495 58 OFFCURVE",
"436 39 OFFCURVE",
"380 39 CURVE SMOOTH",
"224 39 OFFCURVE",
"131 179 OFFCURVE",
"131 351 CURVE SMOOTH",
"131 518 OFFCURVE",
"219 661 OFFCURVE",
"370 661 CURVE SMOOTH",
"436 661 OFFCURVE",
"488 637 OFFCURVE",
"526 597 CURVE",
"552 643 LINE",
"504 687 OFFCURVE",
"438 710 OFFCURVE",
"370 710 CURVE SMOOTH",
"190 710 OFFCURVE",
"75 561 OFFCURVE",
"75 351 CURVE SMOOTH",
"75 141 OFFCURVE",
"192 -10 OFFCURVE",
"378 -10 CURVE SMOOTH",
"448 -10 OFFCURVE",
"517 15 OFFCURVE",
"570 65 CURVE"
);
}
);
};
layerId = "39D19F74-97F3-4EB6-8D96-77117D45ABB1";
paths = (
{
closed = 1;
nodes = (
"541 171 LINE",
"497 121 OFFCURVE",
"448 99 OFFCURVE",
"378 99 CURVE SMOOTH",
"245 99 OFFCURVE",
"171 193 OFFCURVE",
"171 351 CURVE SMOOTH",
"171 508 OFFCURVE",
"241 601 OFFCURVE",
"368 601 CURVE SMOOTH",
"456 601 OFFCURVE",
"501 573 OFFCURVE",
"545 526 CURVE",
"597 616 LINE",
"549 674 OFFCURVE",
"465 710 OFFCURVE",
"368 710 CURVE SMOOTH",
"156 710 OFFCURVE",
"35 577 OFFCURVE",
"35 351 CURVE SMOOTH",
"35 124 OFFCURVE",
"159 -10 OFFCURVE",
"376 -10 CURVE SMOOTH",
"472 -10 OFFCURVE",
"566 31 OFFCURVE",
"619 97 CURVE"
);
}
);
width = 654;
}
);
note = C;
unicode = 0043;
},
{
color = 6;
glyphname = D;
lastChange = "2018-05-17 06:12:23 +0000";
layers = (
{
anchors = (
{
name = bottom;
position = "{309, 0}";
},
{
name = center;
position = "{309, 350}";
},
{
name = top;
position = "{309, 700}";
}
);
layerId = "0B1DFD06-3317-40CA-B510-4969A0718C16";
paths = (
{
closed = 1;
nodes = (
"80 0 LINE",
"258 0 LINE SMOOTH",
"454 0 OFFCURVE",
"563 118 OFFCURVE",
"563 352 CURVE SMOOTH",
"563 582 OFFCURVE",
"442 700 OFFCURVE",
"253 700 CURVE SMOOTH",
"116 700 LINE",
"108 709 OFFCURVE",
"97 718 OFFCURVE",
"91 718 CURVE SMOOTH",
"71 718 OFFCURVE",
"58 696 OFFCURVE",
"55 687 CURVE SMOOTH",
"51 669 OFFCURVE",
"80 666 OFFCURVE",
"80 631 CURVE SMOOTH"
);
},
{
closed = 1;
nodes = (
"134 46 LINE",
"134 654 LINE",
"250 654 LINE SMOOTH",
"409 654 OFFCURVE",
"507 557 OFFCURVE",
"507 352 CURVE SMOOTH",
"507 159 OFFCURVE",
"433 46 OFFCURVE",
"258 46 CURVE SMOOTH"
);
}
);
width = 618;
},
{
anchors = (
{
name = bottom;
position = "{314, 0}";
},
{
name = center;
position = "{314, 350}";
},
{
name = top;
position = "{314, 700}";
}
);
background = {
anchors = (
{
name = bottom;
position = "{334, 0}";
},
{
name = center;
position = "{334, 350}";
},
{
name = top;
position = "{334, 700}";
}
);
paths = (
{
closed = 1;
nodes = (
"105 0 LINE",
"283 0 LINE SMOOTH",
"479 0 OFFCURVE",
"588 118 OFFCURVE",
"588 352 CURVE SMOOTH",
"588 582 OFFCURVE",
"467 700 OFFCURVE",
"278 700 CURVE SMOOTH",
"141 700 LINE",
"133 709 OFFCURVE",
"122 718 OFFCURVE",
"116 718 CURVE SMOOTH",
"96 718 OFFCURVE",
"83 696 OFFCURVE",
"80 687 CURVE SMOOTH",
"76 669 OFFCURVE",
"105 666 OFFCURVE",
"105 631 CURVE SMOOTH"
);
},
{
closed = 1;
nodes = (
"159 46 LINE",
"159 654 LINE",
"275 654 LINE SMOOTH",
"434 654 OFFCURVE",
"532 557 OFFCURVE",
"532 352 CURVE SMOOTH",
"532 159 OFFCURVE",
"458 46 OFFCURVE",
"283 46 CURVE SMOOTH"
);
}
);
};
layerId = "39D19F74-97F3-4EB6-8D96-77117D45ABB1";
paths = (
{
closed = 1;
nodes = (
"65 0 LINE",
"283 0 LINE SMOOTH",
"506 0 OFFCURVE",
"628 135 OFFCURVE",
"628 352 CURVE SMOOTH",
"628 560 OFFCURVE",
"498 700 OFFCURVE",
"278 700 CURVE SMOOTH",
"140 700 LINE",
"129 712 OFFCURVE",
"118 718 OFFCURVE",
"102 718 CURVE SMOOTH",
"73 718 OFFCURVE",
"46 682 OFFCURVE",
"37 655 CURVE SMOOTH",
"27 625 OFFCURVE",
"65 635 OFFCURVE",
"65 576 CURVE SMOOTH"
);
},
{
closed = 1;
nodes = (
"199 116 LINE",
"199 584 LINE",
"275 584 LINE SMOOTH",
"418 584 OFFCURVE",
"492 502 OFFCURVE",
"492 352 CURVE SMOOTH",
"492 194 OFFCURVE",
"424 116 OFFCURVE",
"283 116 CURVE SMOOTH"
);
}
);
width = 663;
}
);
note = D;
unicode = 0044;
},
{
color = 6;
glyphname = E;
lastChange = "2018-05-10 10:19:08 +0000";
layers = (
{
anchors = (
{
name = bottom;
position = "{265, 0}";
},
{
name = ogonek;
position = "{422, 10}";
},
{
name = top;
position = "{265, 700}";
},
{
name = topleft;
position = "{20, 700}";
}
);
layerId = "0B1DFD06-3317-40CA-B510-4969A0718C16";
paths = (
{
closed = 1;
nodes = (
"81 0 LINE",
"454 0 LINE",
"454 46 LINE",
"135 46 LINE",
"135 344 LINE",
"361 344 LINE",
"361 390 LINE",
"135 390 LINE",
"135 654 LINE",
"445 654 LINE",
"445 700 LINE",
"116 700 LINE",
"109 709 OFFCURVE",
"97 718 OFFCURVE",
"91 718 CURVE SMOOTH",
"72 718 OFFCURVE",
"59 696 OFFCURVE",
"56 687 CURVE SMOOTH",
"51 669 OFFCURVE",
"81 666 OFFCURVE",
"81 631 CURVE SMOOTH"
);
}
);
width = 509;
},
{
anchors = (
{
name = bottom;
position = "{289, 0}";
},
{
name = ogonek;
position = "{446, 10}";
},
{
name = top;
position = "{289, 700}";
},
{
name = topleft;
position = "{44, 700}";
}
);
background = {
anchors = (
{
name = bottom;
position = "{289, 0}";
},
{
name = ogonek;
position = "{446, 10}";
},
{
name = top;
position = "{289, 700}";
},
{
name = topleft;
position = "{44, 700}";
}
);
paths = (
{
closed = 1;
nodes = (
"105 0 LINE",
"478 0 LINE",
"478 46 LINE",
"159 46 LINE",
"159 344 LINE",
"385 344 LINE",
"385 390 LINE",
"159 390 LINE",
"159 654 LINE",
"469 654 LINE",
"469 700 LINE",
"140 700 LINE",
"133 709 OFFCURVE",
"121 718 OFFCURVE",
"115 718 CURVE SMOOTH",
"96 718 OFFCURVE",
"83 696 OFFCURVE",
"80 687 CURVE",
"75 669 OFFCURVE",
"105 666 OFFCURVE",
"105 631 CURVE SMOOTH"
);
}
);
};
layerId = "39D19F74-97F3-4EB6-8D96-77117D45ABB1";
paths = (
{
closed = 1;
nodes = (
"65 0 LINE",
"518 0 LINE",
"518 116 LINE",
"199 116 LINE",
"199 312 LINE",
"425 312 LINE",
"425 422 LINE",
"199 422 LINE",
"199 584 LINE",
"509 584 LINE",
"509 700 LINE",
"140 700 LINE",
"129 712 OFFCURVE",
"118 718 OFFCURVE",
"102 718 CURVE SMOOTH",
"73 718 OFFCURVE",
"46 682 OFFCURVE",
"37 655 CURVE SMOOTH",
"27 625 OFFCURVE",
"65 635 OFFCURVE",
"65 576 CURVE SMOOTH"
);
}
);
width = 553;
}
);
note = E;
unicode = 0045;
},
{
color = 6;
glyphname = F;
lastChange = "2018-05-10 10:40:37 +0000";
layers = (
{
anchors = (
{
name = bottom;
position = "{245, 0}";
},
{
name = top;
position = "{245, 700}";
}
);
layerId = "0B1DFD06-3317-40CA-B510-4969A0718C16";
paths = (
{
closed = 1;
nodes = (
"81 0 LINE",
"135 0 LINE",
"135 334 LINE",
"361 334 LINE",
"361 380 LINE",
"135 380 LINE",
"135 654 LINE",
"445 654 LINE",
"445 700 LINE",
"116 700 LINE",
"109 709 OFFCURVE",
"97 718 OFFCURVE",
"91 718 CURVE SMOOTH",
"72 718 OFFCURVE",
"59 696 OFFCURVE",
"56 687 CURVE",
"51 669 OFFCURVE",
"81 666 OFFCURVE",
"81 631 CURVE SMOOTH"
);
}
);
width = 490;
},
{
anchors = (
{
name = bottom;
position = "{242, 0}";
},
{
name = top;
position = "{242, 700}";
}
);
background = {
anchors = (
{
name = bottom;
position = "{242, 0}";
},
{
name = top;
position = "{242, 700}";
}
);
paths = (
{
closed = 1;
nodes = (
"78 0 LINE",
"132 0 LINE",
"132 334 LINE",
"358 334 LINE",
"358 380 LINE",
"132 380 LINE",
"132 654 LINE",
"442 654 LINE",
"442 700 LINE",
"113 700 LINE",
"106 709 OFFCURVE",
"94 718 OFFCURVE",
"88 718 CURVE SMOOTH",
"69 718 OFFCURVE",
"56 696 OFFCURVE",
"53 687 CURVE",
"48 669 OFFCURVE",
"78 666 OFFCURVE",
"78 631 CURVE SMOOTH"
);
}
);
};
layerId = "39D19F74-97F3-4EB6-8D96-77117D45ABB1";
paths = (
{
closed = 1;
nodes = (
"65 0 LINE",
"199 0 LINE",
"199 299 LINE",
"425 299 LINE",
"425 409 LINE",
"199 409 LINE",
"199 584 LINE",
"509 584 LINE",
"509 700 LINE",
"140 700 LINE",
"129 712 OFFCURVE",
"118 718 OFFCURVE",
"102 718 CURVE SMOOTH",
"73 718 OFFCURVE",
"46 682 OFFCURVE",
"37 655 CURVE SMOOTH",
"27 625 OFFCURVE",
"65 635 OFFCURVE",
"65 576 CURVE SMOOTH"
);
}
);
width = 544;
}
);
note = F;
unicode = 0046;
},
{
color = 6;
glyphname = G;
lastChange = "2018-05-15 05:30:52 +0000";
layers = (
{
anchors = (
{
name = bottom;
position = "{350, 0}";
},
{
name = top;
position = "{350, 700}";
}
);
layerId = "0B1DFD06-3317-40CA-B510-4969A0718C16";
paths = (
{
closed = 1;
nodes = (
"436 -10 OFFCURVE",
"487 7 OFFCURVE",
"558 50 CURVE",
"558 293 LINE SMOOTH",
"558 330 OFFCURVE",
"581 322 OFFCURVE",
"581 340 CURVE SMOOTH",
"581 354 OFFCURVE",
"565 375 OFFCURVE",
"545 375 CURVE SMOOTH",
"536 375 OFFCURVE",
"530 371 OFFCURVE",
"523 362 CURVE",
"331 362 LINE",
"331 316 LINE",
"504 316 LINE",
"504 79 LINE",
"464 51 OFFCURVE",
"423 39 OFFCURVE",
"355 39 CURVE SMOOTH",
"193 39 OFFCURVE",
"111 179 OFFCURVE",
"111 351 CURVE SMOOTH",
"111 518 OFFCURVE",
"199 661 OFFCURVE",
"350 661 CURVE SMOOTH",
"422 661 OFFCURVE",
"471 642 OFFCURVE",
"511 598 CURVE",
"537 643 LINE",
"491 685 OFFCURVE",
"434 710 OFFCURVE",
"350 710 CURVE SMOOTH",
"170 710 OFFCURVE",
"55 561 OFFCURVE",
"55 351 CURVE SMOOTH",
"55 141 OFFCURVE",
"161 -10 OFFCURVE",
"353 -10 CURVE SMOOTH"
);
}
);
width = 636;
},
{
anchors = (
{
name = bottom;
position = "{363, 0}";
},
{
name = top;
position = "{363, 700}";
}
);
background = {
anchors = (
{
name = bottom;
position = "{363, 0}";
},
{
name = top;
position = "{363, 700}";
}
);
paths = (
{
closed = 1;
nodes = (
"206 39 OFFCURVE",
"124 179 OFFCURVE",
"124 351 CURVE SMOOTH",
"124 518 OFFCURVE",
"212 661 OFFCURVE",
"363 661 CURVE SMOOTH",
"435 661 OFFCURVE",
"484 642 OFFCURVE",
"524 598 CURVE",
"550 643 LINE",
"504 685 OFFCURVE",
"447 710 OFFCURVE",
"363 710 CURVE SMOOTH",
"183 710 OFFCURVE",
"68 561 OFFCURVE",
"68 351 CURVE SMOOTH",
"68 141 OFFCURVE",
"174 -10 OFFCURVE",
"366 -10 CURVE SMOOTH",
"449 -10 OFFCURVE",
"500 7 OFFCURVE",
"571 50 CURVE",
"571 293 LINE SMOOTH",
"571 330 OFFCURVE",
"594 322 OFFCURVE",
"594 340 CURVE SMOOTH",
"594 354 OFFCURVE",
"578 375 OFFCURVE",
"558 375 CURVE SMOOTH",
"549 375 OFFCURVE",
"543 371 OFFCURVE",
"536 362 CURVE",
"344 362 LINE",
"344 316 LINE",
"517 316 LINE",
"517 79 LINE",
"477 51 OFFCURVE",
"436 39 OFFCURVE",
"368 39 CURVE SMOOTH"
);
}
);
};
layerId = "39D19F74-97F3-4EB6-8D96-77117D45ABB1";
paths = (
{
closed = 1;
nodes = (
"459 -10 OFFCURVE",
"525 11 OFFCURVE",
"611 66 CURVE",
"611 268 LINE SMOOTH",
"611 327 OFFCURVE",
"649 317 OFFCURVE",
"639 347 CURVE SMOOTH",
"630 374 OFFCURVE",
"603 410 OFFCURVE",
"574 410 CURVE SMOOTH",
"558 410 OFFCURVE",
"547 404 OFFCURVE",
"536 392 CURVE",
"324 392 LINE",
"324 281 LINE",
"477 281 LINE",
"477 123 LINE",
"446 105 OFFCURVE",
"418 99 OFFCURVE",
"368 99 CURVE SMOOTH",
"245 99 OFFCURVE",
"171 193 OFFCURVE",
"171 351 CURVE SMOOTH",
"171 508 OFFCURVE",
"241 601 OFFCURVE",
"368 601 CURVE SMOOTH",
"456 601 OFFCURVE",
"501 573 OFFCURVE",
"545 526 CURVE",
"597 616 LINE",
"549 674 OFFCURVE",
"465 710 OFFCURVE",
"368 710 CURVE SMOOTH",
"156 710 OFFCURVE",
"35 577 OFFCURVE",
"35 351 CURVE SMOOTH",
"35 124 OFFCURVE",
"159 -10 OFFCURVE",
"366 -10 CURVE SMOOTH"
);
}
);
width = 676;
}
);
note = G;
unicode = 0047;
},
{
color = 6;
glyphname = H;
lastChange = "2018-05-11 07:11:07 +0000";
layers = (
{
anchors = (
{
name = bottom;
position = "{311, 0}";
},
{
name = center;
position = "{311, 350}";
},
{
name = top;
position = "{311, 700}";
},
{
name = topleft;
position = "{20, 700}";
}
);
layerId = "0B1DFD06-3317-40CA-B510-4969A0718C16";
paths = (
{
closed = 1;
nodes = (
"487 700 LINE",
"487 391 LINE",
"134 391 LINE",
"134 700 LINE",
"80 700 LINE",
"80 0 LINE",
"134 0 LINE",
"134 345 LINE",
"487 345 LINE",
"487 0 LINE",
"541 0 LINE",
"541 700 LINE"
);
}
);
width = 621;
},
{
anchors = (
{
name = bottom;
position = "{316, 0}";
},
{
name = center;
position = "{316, 350}";
},
{
name = top;
position = "{316, 700}";
},
{
name = topleft;
position = "{25, 700}";
}
);
layerId = "39D19F74-97F3-4EB6-8D96-77117D45ABB1";
paths = (
{
closed = 1;
nodes = (
"452 700 LINE",
"452 425 LINE",
"179 425 LINE",
"179 700 LINE",
"45 700 LINE",
"45 0 LINE",
"179 0 LINE",
"179 311 LINE",
"452 311 LINE",
"452 0 LINE",
"586 0 LINE",
"586 700 LINE"
);
}
);
width = 631;
}
);
note = H;
unicode = 0048;
},
{
color = 6;
glyphname = I;
lastChange = "2018-05-17 06:40:31 +0000";
layers = (
{
anchors = (
{
name = bottom;
position = "{107, 0}";
},
{
name = ogonek;
position = "{193, 10}";
},
{
name = top;
position = "{107, 700}";
},
{
name = topleft;
position = "{20, 700}";
}
);
layerId = "0B1DFD06-3317-40CA-B510-4969A0718C16";
paths = (
{
closed = 1;
nodes = (
"80 700 LINE",
"80 0 LINE",
"134 0 LINE",
"134 700 LINE"
);
}
);
width = 214;
},
{
anchors = (
{
name = bottom;
position = "{112, 0}";
},
{
name = ogonek;
position = "{104, 10}";
},
{
name = top;
position = "{112, 700}";
},
{
name = topleft;
position = "{25, 700}";
}
);
background = {
anchors = (
{
name = bottom;
position = "{112, 0}";
},
{
name = ogonek;
position = "{109, 10}";
},
{
name = top;
position = "{112, 700}";
},
{
name = topleft;
position = "{25, 700}";
}
);
paths = (
{
closed = 1;
nodes = (
"85 700 LINE",
"85 0 LINE",
"139 0 LINE",
"139 700 LINE"
);
}
);
};
layerId = "39D19F74-97F3-4EB6-8D96-77117D45ABB1";
paths = (
{
closed = 1;
nodes = (
"179 0 LINE",
"179 700 LINE",
"45 700 LINE",
"45 0 LINE"
);
}
);
width = 224;
}
);
note = I;
unicode = 0049;
},
{
color = 6;
glyphname = J;
lastChange = "2018-05-11 07:11:16 +0000";
layers = (
{
anchors = (
{
name = bottom;
position = "{220, 0}";
},
{
name = top;
position = "{321, 700}";
}
);
layerId = "0B1DFD06-3317-40CA-B510-4969A0718C16";
paths = (
{
closed = 1;
nodes = (
"293 700 LINE",
"293 161 LINE SMOOTH",
"293 81 OFFCURVE",
"248 39 OFFCURVE",
"173 39 CURVE SMOOTH",
"139 39 OFFCURVE",
"92 53 OFFCURVE",
"68 70 CURVE",
"45 25 LINE",
"77 5 OFFCURVE",
"130 -10 OFFCURVE",
"169 -10 CURVE SMOOTH",
"276 -10 OFFCURVE",
"347 55 OFFCURVE",
"347 164 CURVE SMOOTH",
"347 700 LINE"
);
}
);
width = 427;
},
{
anchors = (
{
name = bottom;
position = "{244, 0}";
},
{
name = top;
position = "{345, 700}";
}
);
background = {
anchors = (
{
name = bottom;
position = "{244, 0}";
},
{
name = top;
position = "{345, 700}";
}
);
paths = (
{
closed = 1;
nodes = (
"317 700 LINE",
"317 161 LINE SMOOTH",
"317 81 OFFCURVE",
"272 39 OFFCURVE",
"197 39 CURVE SMOOTH",
"163 39 OFFCURVE",
"116 53 OFFCURVE",
"92 70 CURVE",
"69 25 LINE",
"101 5 OFFCURVE",
"154 -10 OFFCURVE",
"193 -10 CURVE SMOOTH",
"300 -10 OFFCURVE",
"371 55 OFFCURVE",
"371 164 CURVE SMOOTH",
"371 700 LINE"
);
}
);
};
layerId = "39D19F74-97F3-4EB6-8D96-77117D45ABB1";
paths = (
{
closed = 1;
nodes = (
"277 700 LINE",
"277 191 LINE SMOOTH",
"277 128 OFFCURVE",
"252 101 OFFCURVE",
"195 101 CURVE SMOOTH",
"153 101 OFFCURVE",
"119 112 OFFCURVE",
"78 137 CURVE",
"25 46 LINE",
"71 10 OFFCURVE",
"134 -10 OFFCURVE",
"199 -10 CURVE SMOOTH",
"333 -10 OFFCURVE",
"411 71 OFFCURVE",
"411 194 CURVE SMOOTH",
"411 700 LINE"
);
}
);
width = 451;
}
);
note = J;
unicode = 004A;
},
{
color = 6;
glyphname = K;
lastChange = "2018-05-10 10:55:35 +0000";
layers = (
{
anchors = (
{
name = bottom;
position = "{290, 0}";
},
{
name = top;
position = "{290, 700}";
}
);
layerId = "0B1DFD06-3317-40CA-B510-4969A0718C16";
paths = (
{
closed = 1;
nodes = (
"192 366 LINE",
"495 700 LINE",
"425 700 LINE",
"134 375 LINE",
"134 700 LINE",
"80 700 LINE",
"80 0 LINE",
"134 0 LINE",
"134 356 LINE",
"453 0 LINE",
"524 0 LINE"
);
}
);
width = 579;
},
{
anchors = (
{
name = bottom;
position = "{295, 0}";
},
{
name = top;
position = "{295, 700}";
}
);
background = {
anchors = (
{
name = bottom;
position = "{295, 0}";
},
{
name = top;
position = "{295, 700}";
}
);
paths = (
{
closed = 1;
nodes = (
"197 366 LINE",
"500 700 LINE",
"430 700 LINE",
"139 375 LINE",
"139 700 LINE",
"85 700 LINE",
"85 0 LINE",
"139 0 LINE",
"139 356 LINE",
"458 0 LINE",
"529 0 LINE"
);
}
);
};
layerId = "39D19F74-97F3-4EB6-8D96-77117D45ABB1";
paths = (
{
closed = 1;
nodes = (
"256 366 LINE",
"560 700 LINE",
"397 700 LINE",
"179 457 LINE",
"179 700 LINE",
"45 700 LINE",
"45 0 LINE",
"179 0 LINE",
"179 274 LINE",
"427 0 LINE",
"591 0 LINE"
);
}
);
width = 626;
}
);
note = K;
unicode = 004B;
},
{
color = 6;
glyphname = L;
lastChange = "2018-05-17 04:32:19 +0000";
layers = (
{
anchors = (
{
name = bottom;
position = "{240, 0}";
},
{
name = center;
position = "{240, 350}";
},
{
name = top;
position = "{111, 700}";
},
{
name = topright;
position = "{463, 700}";
}
);
layerId = "0B1DFD06-3317-40CA-B510-4969A0718C16";
paths = (
{
closed = 1;
nodes = (
"100 -10 OFFCURVE",
"105 -6 OFFCURVE",
"110 0 CURVE",
"438 0 LINE",
"438 46 LINE",
"132 46 LINE",
"132 700 LINE",
"78 700 LINE",
"78 72 LINE SMOOTH",
"78 42 OFFCURVE",
"55 39 OFFCURVE",
"55 21 CURVE SMOOTH",
"55 5 OFFCURVE",
"71 -10 OFFCURVE",
"91 -10 CURVE SMOOTH"
);
}
);
width = 483;
},
{
anchors = (
{
name = bottom;
position = "{270, 0}";
},
{
name = center;
position = "{240, 350}";
},
{
name = top;
position = "{134, 700}";
},
{
name = topright;
position = "{463, 700}";
}
);
background = {
anchors = (
{
name = bottom;
position = "{240, 0}";
},
{
name = center;
position = "{240, 350}";
},
{
name = top;
position = "{111, 700}";
},
{
name = topright;
position = "{463, 700}";
}
);
paths = (
{
closed = 1;
nodes = (
"438 0 LINE",
"438 46 LINE",
"132 46 LINE",
"132 700 LINE",
"78 700 LINE",
"78 72 LINE SMOOTH",
"78 42 OFFCURVE",
"55 39 OFFCURVE",
"55 21 CURVE SMOOTH",
"55 5 OFFCURVE",
"71 -10 OFFCURVE",
"91 -10 CURVE SMOOTH",
"100 -10 OFFCURVE",
"105 -6 OFFCURVE",
"110 0 CURVE"
);
}
);
};
layerId = "39D19F74-97F3-4EB6-8D96-77117D45ABB1";
paths = (
{
closed = 1;
nodes = (
"118 -18 OFFCURVE",
"129 -12 OFFCURVE",
"140 0 CURVE",
"499 0 LINE",
"499 116 LINE",
"199 116 LINE",
"199 700 LINE",
"65 700 LINE",
"65 124 LINE SMOOTH",
"65 65 OFFCURVE",
"27 75 OFFCURVE",
"37 45 CURVE SMOOTH",
"46 18 OFFCURVE",
"73 -18 OFFCURVE",
"102 -18 CURVE SMOOTH"
);
}
);
width = 534;
}
);
note = L;
unicode = 004C;
},
{
color = 6;
glyphname = M;
lastChange = "2018-05-15 05:35:09 +0000";
layers = (
{
anchors = (
{
name = bottom;
position = "{381, 0}";
},
{
name = top;
position = "{381, 700}";
}
);
layerId = "0B1DFD06-3317-40CA-B510-4969A0718C16";
paths = (
{
closed = 1;
nodes = (
"406 -11 OFFCURVE",
"421 5 OFFCURVE",
"415 25 CURVE SMOOTH",
"412 35 LINE",
"598 599 LINE",
"653 -1 LINE",
"708 -1 LINE",
"641 666 LINE",
"649 678 LINE SMOOTH",
"656 689 OFFCURVE",
"649 718 OFFCURVE",
"619 718 CURVE SMOOTH",
"593 718 OFFCURVE",
"581 700 OFFCURVE",
"573 676 CURVE SMOOTH",
"381 93 LINE",
"190 676 LINE SMOOTH",
"182 700 OFFCURVE",
"170 718 OFFCURVE",
"144 718 CURVE SMOOTH",
"114 718 OFFCURVE",
"107 689 OFFCURVE",
"114 678 CURVE SMOOTH",
"122 666 LINE",
"55 -1 LINE",
"110 -1 LINE",
"165 599 LINE",
"360 6 LINE SMOOTH",
"364 -6 OFFCURVE",
"373 -11 OFFCURVE",
"384 -11 CURVE SMOOTH"
);
}
);
width = 763;
},
{
anchors = (
{
name = bottom;
position = "{399, 0}";
},
{
name = top;
position = "{399, 700}";
}
);
background = {
anchors = (
{
name = bottom;
position = "{399, 0}";
},
{
name = top;
position = "{399, 700}";
}
);
paths = (
{
closed = 1;
nodes = (
"399 93 LINE",
"208 676 LINE SMOOTH",
"200 700 OFFCURVE",
"188 718 OFFCURVE",
"162 718 CURVE SMOOTH",
"132 718 OFFCURVE",
"125 689 OFFCURVE",
"132 678 CURVE SMOOTH",
"140 666 LINE",
"73 -1 LINE",
"128 -1 LINE",
"183 599 LINE",
"378 6 LINE SMOOTH",
"382 -6 OFFCURVE",
"391 -11 OFFCURVE",
"402 -11 CURVE SMOOTH",
"424 -11 OFFCURVE",
"439 5 OFFCURVE",
"433 25 CURVE SMOOTH",
"430 35 LINE",
"616 599 LINE",
"671 -1 LINE",
"726 -1 LINE",
"659 666 LINE",
"667 678 LINE SMOOTH",
"674 689 OFFCURVE",
"667 718 OFFCURVE",
"637 718 CURVE SMOOTH",
"611 718 OFFCURVE",
"599 700 OFFCURVE",
"591 676 CURVE SMOOTH"
);
}
);
};
layerId = "39D19F74-97F3-4EB6-8D96-77117D45ABB1";
paths = (
{
closed = 1;
nodes = (
"448 -11 OFFCURVE",
"487 12 OFFCURVE",
"474 55 CURVE SMOOTH",
"471 65 LINE",
"589 427 LINE",
"629 -1 LINE",
"764 -1 LINE",
"695 631 LINE",
"699 638 LINE SMOOTH",
"715 667 OFFCURVE",
"701 718 OFFCURVE",
"637 718 CURVE SMOOTH",
"580 718 OFFCURVE",
"563 697 OFFCURVE",
"549 655 CURVE SMOOTH",
"399 199 LINE",
"250 655 LINE SMOOTH",
"236 697 OFFCURVE",
"219 718 OFFCURVE",
"162 718 CURVE SMOOTH",
"98 718 OFFCURVE",
"85 668 OFFCURVE",
"100 638 CURVE SMOOTH",
"104 630 LINE",
"35 -1 LINE",
"170 -1 LINE",
"210 426 LINE",
"340 27 LINE SMOOTH",
"348 3 OFFCURVE",
"371 -11 OFFCURVE",
"402 -11 CURVE SMOOTH"
);
}
);
width = 799;
}
);
note = M;
unicode = 004D;
},
{
color = 6;
glyphname = N;
lastChange = "2018-05-11 07:11:25 +0000";
layers = (
{
anchors = (
{
name = bottom;
position = "{308, 0}";
},
{
name = top;
position = "{308, 700}";
}
);
layerId = "0B1DFD06-3317-40CA-B510-4969A0718C16";
paths = (
{
closed = 1;
nodes = (
"131 0 LINE",
"131 579 LINE",
"489 0 LINE",
"537 0 LINE",
"537 700 LINE",
"483 700 LINE",
"483 104 LINE",
"115 701 LINE SMOOTH",
"109 710 OFFCURVE",
"102 718 OFFCURVE",
"90 718 CURVE SMOOTH",
"71 718 OFFCURVE",
"58 699 OFFCURVE",
"55 687 CURVE SMOOTH",
"51 670 OFFCURVE",
"77 670 OFFCURVE",
"77 634 CURVE SMOOTH",
"77 0 LINE"
);
}
);
width = 617;
},
{
anchors = (
{
name = bottom;
position = "{329, 0}";
},
{
name = top;
position = "{329, 700}";
}
);
background = {
anchors = (
{
name = bottom;
position = "{329, 0}";
},
{
name = top;
position = "{329, 700}";
}
);
paths = (
{
closed = 1;
nodes = (
"98 0 LINE",
"152 0 LINE",
"152 579 LINE",
"510 0 LINE",
"510 0 OFFCURVE",
"558 0 OFFCURVE",
"558 0 CURVE",
"558 700 LINE",
"504 700 LINE",
"504 104 LINE",
"136 701 LINE SMOOTH",
"130 710 OFFCURVE",
"123 718 OFFCURVE",
"111 718 CURVE SMOOTH",
"92 718 OFFCURVE",
"79 699 OFFCURVE",
"76 687 CURVE SMOOTH",
"72 670 OFFCURVE",
"98 670 OFFCURVE",
"98 634 CURVE SMOOTH"
);
}
);
};
layerId = "39D19F74-97F3-4EB6-8D96-77117D45ABB1";
paths = (
{
closed = 1;
nodes = (
"192 0 LINE",
"192 443 LINE",
"470 0 LINE",
"583 0 LINE",
"583 700 LINE",
"449 700 LINE",
"449 240 LINE",
"169 688 LINE SMOOTH",
"157 707 OFFCURVE",
"137 718 OFFCURVE",
"111 718 CURVE SMOOTH",
"78 718 OFFCURVE",
"48 700 OFFCURVE",
"37 664 CURVE SMOOTH",
"26 627 OFFCURVE",
"58 632 OFFCURVE",
"58 597 CURVE SMOOTH",
"58 0 LINE"
);
}
);
width = 628;
}
);
note = N;
unicode = 004E;
},
{
color = 6;
glyphname = O;
lastChange = "2018-05-11 06:20:53 +0000";
layers = (
{
anchors = (
{
name = bottom;
position = "{326, 0}";
},
{
name = center;
position = "{326, 350}";
},
{
name = ogonek;
position = "{587, 10}";
},
{
name = top;
position = "{326, 700}";
},
{
name = topleft;
position = "{20, 700}";
},
{
name = topright;
position = "{496, 584}";
}
);
layerId = "0B1DFD06-3317-40CA-B510-4969A0718C16";
paths = (
{
closed = 1;
nodes = (
"597 568 OFFCURVE",
"508 710 OFFCURVE",
"326 710 CURVE SMOOTH",
"144 710 OFFCURVE",
"55 568 OFFCURVE",
"55 350 CURVE SMOOTH",
"55 132 OFFCURVE",
"144 -10 OFFCURVE",
"326 -10 CURVE SMOOTH",
"508 -10 OFFCURVE",
"597 132 OFFCURVE",
"597 350 CURVE SMOOTH"
);
},
{
closed = 1;
nodes = (
"541 178 OFFCURVE",
"486 39 OFFCURVE",
"326 39 CURVE SMOOTH",
"166 39 OFFCURVE",
"111 178 OFFCURVE",
"111 350 CURVE SMOOTH",
"111 522 OFFCURVE",
"166 661 OFFCURVE",
"326 661 CURVE SMOOTH",
"486 661 OFFCURVE",
"541 522 OFFCURVE",
"541 350 CURVE SMOOTH"
);
}
);
width = 652;
},
{
anchors = (
{
name = bottom;
position = "{346, 0}";
},
{
name = center;
position = "{346, 350}";
},
{
name = ogonek;
position = "{607, 10}";
},
{
name = top;
position = "{346, 700}";
},
{
name = topleft;
position = "{40, 700}";
},
{
name = topright;
position = "{516, 584}";
}
);
background = {
anchors = (
{
name = bottom;
position = "{346, 0}";
},
{
name = center;
position = "{346, 350}";
},
{
name = ogonek;
position = "{607, 10}";
},
{
name = top;
position = "{346, 700}";
},
{
name = topleft;
position = "{40, 700}";
},
{
name = topright;
position = "{516, 584}";
}
);
paths = (
{
closed = 1;
nodes = (
"617 568 OFFCURVE",
"528 710 OFFCURVE",
"346 710 CURVE SMOOTH",
"164 710 OFFCURVE",
"75 568 OFFCURVE",
"75 350 CURVE SMOOTH",
"75 132 OFFCURVE",
"164 -10 OFFCURVE",
"346 -10 CURVE SMOOTH",
"528 -10 OFFCURVE",
"617 132 OFFCURVE",
"617 350 CURVE SMOOTH"
);
},
{
closed = 1;
nodes = (
"561 178 OFFCURVE",
"506 39 OFFCURVE",
"346 39 CURVE SMOOTH",
"186 39 OFFCURVE",
"131 178 OFFCURVE",
"131 350 CURVE SMOOTH",
"131 522 OFFCURVE",
"186 661 OFFCURVE",
"346 661 CURVE SMOOTH",
"506 661 OFFCURVE",
"561 522 OFFCURVE",
"561 350 CURVE SMOOTH"
);
}
);
};
layerId = "39D19F74-97F3-4EB6-8D96-77117D45ABB1";
paths = (
{
closed = 1;
nodes = (
"657 567 OFFCURVE",
"544 710 OFFCURVE",
"346 710 CURVE SMOOTH",
"148 710 OFFCURVE",
"35 567 OFFCURVE",
"35 350 CURVE SMOOTH",
"35 133 OFFCURVE",
"148 -10 OFFCURVE",
"346 -10 CURVE SMOOTH",
"544 -10 OFFCURVE",
"657 133 OFFCURVE",
"657 350 CURVE SMOOTH"
);
},
{
closed = 1;
nodes = (
"521 194 OFFCURVE",
"460 99 OFFCURVE",
"346 99 CURVE SMOOTH",
"232 99 OFFCURVE",
"171 194 OFFCURVE",
"171 350 CURVE SMOOTH",
"171 506 OFFCURVE",
"232 601 OFFCURVE",
"346 601 CURVE SMOOTH",
"460 601 OFFCURVE",
"521 506 OFFCURVE",
"521 350 CURVE SMOOTH"
);
}
);
width = 692;
}
);
note = O;
unicode = 004F;
},
{
color = 6;
glyphname = P;
lastChange = "2018-05-11 06:26:13 +0000";
layers = (
{
anchors = (
{
name = bottom;
position = "{286, 0}";
},
{
name = top;
position = "{286, 700}";
}
);
layerId = "0B1DFD06-3317-40CA-B510-4969A0718C16";
paths = (
{
closed = 1;
nodes = (
"134 0 LINE",
"134 266 LINE",
"266 266 LINE SMOOTH",
"404 266 OFFCURVE",
"517 321 OFFCURVE",
"517 480 CURVE SMOOTH",
"517 641 OFFCURVE",
"408 700 OFFCURVE",
"260 700 CURVE SMOOTH",
"116 700 LINE",
"108 709 OFFCURVE",
"96 718 OFFCURVE",
"90 718 CURVE SMOOTH",
"71 718 OFFCURVE",
"58 696 OFFCURVE",
"55 687 CURVE",
"51 669 OFFCURVE",
"80 665 OFFCURVE",
"80 629 CURVE SMOOTH",
"80 0 LINE"
);
},
{
closed = 1;
nodes = (
"134 654 LINE",
"261 654 LINE SMOOTH",
"400 654 OFFCURVE",
"461 585 OFFCURVE",
"461 480 CURVE SMOOTH",
"461 366 OFFCURVE",
"394 311 OFFCURVE",
"263 311 CURVE SMOOTH",
"134 311 LINE"
);
}
);
width = 572;
},
{
anchors = (
{
name = bottom;
position = "{307, 0}";
},
{
name = top;
position = "{307, 700}";
}
);
background = {
anchors = (
{
name = bottom;
position = "{307, 0}";
},
{
name = top;
position = "{307, 700}";
}
);
paths = (
{
closed = 1;
nodes = (
"101 0 LINE",
"155 0 LINE",
"155 266 LINE",
"287 266 LINE SMOOTH",
"425 266 OFFCURVE",
"538 321 OFFCURVE",
"538 480 CURVE SMOOTH",
"538 641 OFFCURVE",
"429 700 OFFCURVE",
"281 700 CURVE SMOOTH",
"137 700 LINE",
"129 709 OFFCURVE",
"117 718 OFFCURVE",
"111 718 CURVE SMOOTH",
"92 718 OFFCURVE",
"79 696 OFFCURVE",
"76 687 CURVE",
"72 669 OFFCURVE",
"101 665 OFFCURVE",
"101 629 CURVE SMOOTH"
);
},
{
closed = 1;
nodes = (
"282 654 LINE SMOOTH",
"421 654 OFFCURVE",
"482 585 OFFCURVE",
"482 480 CURVE SMOOTH",
"482 366 OFFCURVE",
"415 311 OFFCURVE",
"284 311 CURVE SMOOTH",
"155 311 LINE",
"155 654 LINE"
);
}
);
};
layerId = "39D19F74-97F3-4EB6-8D96-77117D45ABB1";
paths = (
{
closed = 1;
nodes = (
"195 0 LINE",
"195 225 LINE",
"294 225 LINE SMOOTH",
"480 225 OFFCURVE",
"578 316 OFFCURVE",
"578 463 CURVE SMOOTH",
"578 610 OFFCURVE",
"477 700 OFFCURVE",
"288 700 CURVE SMOOTH",
"152 700 LINE",
"139 711 OFFCURVE",
"125 718 OFFCURVE",
"103 718 CURVE SMOOTH",
"69 718 OFFCURVE",
"43 692 OFFCURVE",
"36 660 CURVE SMOOTH",
"30 622 OFFCURVE",
"61 633 OFFCURVE",
"61 594 CURVE SMOOTH",
"61 0 LINE"
);
},
{
closed = 1;
nodes = (
"195 584 LINE",
"291 584 LINE SMOOTH",
"386 584 OFFCURVE",
"442 545 OFFCURVE",
"442 463 CURVE SMOOTH",
"442 380 OFFCURVE",
"386 341 OFFCURVE",
"291 341 CURVE SMOOTH",
"195 341 LINE"
);
}
);
width = 613;
}
);
note = P;
unicode = 0050;
},
{
color = 6;
glyphname = Q;
lastChange = "2018-05-11 06:43:14 +0000";
layers = (
{
anchors = (
{
name = bottom;
position = "{326, 0}";
},
{
name = top;
position = "{326, 700}";
}
);
layerId = "0B1DFD06-3317-40CA-B510-4969A0718C16";
paths = (
{
closed = 1;
nodes = (
"445 -163 LINE",
"516 -163 LINE",
"372 20 LINE",
"312 10 LINE"
);
},
{
closed = 1;
nodes = (
"597 568 OFFCURVE",
"508 710 OFFCURVE",
"326 710 CURVE SMOOTH",
"144 710 OFFCURVE",
"55 568 OFFCURVE",
"55 350 CURVE SMOOTH",
"55 132 OFFCURVE",
"144 -10 OFFCURVE",
"326 -10 CURVE SMOOTH",
"508 -10 OFFCURVE",
"597 132 OFFCURVE",
"597 350 CURVE SMOOTH"
);
},
{
closed = 1;
nodes = (
"541 178 OFFCURVE",
"486 39 OFFCURVE",
"326 39 CURVE SMOOTH",
"166 39 OFFCURVE",
"111 178 OFFCURVE",
"111 350 CURVE SMOOTH",
"111 522 OFFCURVE",
"166 661 OFFCURVE",
"326 661 CURVE SMOOTH",
"486 661 OFFCURVE",
"541 522 OFFCURVE",
"541 350 CURVE SMOOTH"
);
}
);
width = 652;
},
{
anchors = (
{
name = bottom;
position = "{356, 0}";
},
{
name = top;
position = "{356, 700}";
}
);
background = {
anchors = (
{
name = bottom;
position = "{356, 0}";
},
{
name = top;
position = "{356, 700}";
}
);
paths = (
{
closed = 1;
nodes = (
"475 -163 LINE",
"546 -163 LINE",
"402 20 LINE",
"342 10 LINE"
);
},
{
closed = 1;
nodes = (
"627 568 OFFCURVE",
"538 710 OFFCURVE",
"356 710 CURVE SMOOTH",
"174 710 OFFCURVE",
"85 568 OFFCURVE",
"85 350 CURVE SMOOTH",
"85 132 OFFCURVE",
"174 -10 OFFCURVE",
"356 -10 CURVE SMOOTH",
"538 -10 OFFCURVE",
"627 132 OFFCURVE",
"627 350 CURVE SMOOTH"
);
},
{
closed = 1;
nodes = (
"571 178 OFFCURVE",
"516 39 OFFCURVE",
"356 39 CURVE SMOOTH",
"196 39 OFFCURVE",
"141 178 OFFCURVE",
"141 350 CURVE SMOOTH",
"141 522 OFFCURVE",
"196 661 OFFCURVE",
"356 661 CURVE SMOOTH",
"516 661 OFFCURVE",
"571 522 OFFCURVE",
"571 350 CURVE SMOOTH"
);
}
);
};
layerId = "39D19F74-97F3-4EB6-8D96-77117D45ABB1";
paths = (
{
closed = 1;
nodes = (
"430 -162 LINE",
"589 -162 LINE",
"417 54 LINE",
"289 30 LINE"
);
},
{
closed = 1;
nodes = (
"657 567 OFFCURVE",
"544 710 OFFCURVE",
"346 710 CURVE SMOOTH",
"148 710 OFFCURVE",
"35 567 OFFCURVE",
"35 350 CURVE SMOOTH",
"35 133 OFFCURVE",
"148 -10 OFFCURVE",
"346 -10 CURVE SMOOTH",
"544 -10 OFFCURVE",
"657 133 OFFCURVE",
"657 350 CURVE SMOOTH"
);
},
{
closed = 1;
nodes = (
"521 194 OFFCURVE",
"460 99 OFFCURVE",
"346 99 CURVE SMOOTH",
"232 99 OFFCURVE",
"171 194 OFFCURVE",
"171 350 CURVE SMOOTH",
"171 506 OFFCURVE",
"232 601 OFFCURVE",
"346 601 CURVE SMOOTH",
"460 601 OFFCURVE",
"521 506 OFFCURVE",
"521 350 CURVE SMOOTH"
);
}
);
width = 692;
}
);
note = Q;
unicode = 0051;
},
{
color = 6;
glyphname = R;
lastChange = "2018-05-11 06:30:45 +0000";
layers = (
{
anchors = (
{
name = bottom;
position = "{280, 0}";
},
{
name = top;
position = "{260, 700}";
}
);
layerId = "0B1DFD06-3317-40CA-B510-4969A0718C16";
paths = (
{
closed = 1;
nodes = (
"51 669 OFFCURVE",
"80 665 OFFCURVE",
"80 629 CURVE SMOOTH",
"80 0 LINE",
"134 0 LINE",
"134 296 LINE",
"244 296 LINE",
"435 0 LINE",
"498 0 LINE",
"306 298 LINE",
"414 302 OFFCURVE",
"512 359 OFFCURVE",
"512 495 CURVE SMOOTH",
"512 646 OFFCURVE",
"408 700 OFFCURVE",
"260 700 CURVE SMOOTH",
"116 700 LINE",
"108 709 OFFCURVE",
"96 718 OFFCURVE",
"90 718 CURVE SMOOTH",
"71 718 OFFCURVE",
"58 696 OFFCURVE",
"55 687 CURVE"
);
},
{
closed = 1;
nodes = (
"134 654 LINE",
"261 654 LINE SMOOTH",
"400 654 OFFCURVE",
"456 595 OFFCURVE",
"456 495 CURVE SMOOTH",
"456 391 OFFCURVE",
"400 341 OFFCURVE",
"263 341 CURVE SMOOTH",
"134 341 LINE"
);
}
);
width = 567;
},
{
anchors = (
{
name = bottom;
position = "{300, 0}";
},
{
name = top;
position = "{280, 700}";
}
);
background = {
anchors = (
{
name = bottom;
position = "{300, 0}";
},
{
name = top;
position = "{280, 700}";
}
);
paths = (
{
closed = 1;
nodes = (
"71 669 OFFCURVE",
"100 665 OFFCURVE",
"100 629 CURVE SMOOTH",
"100 0 LINE",
"154 0 LINE",
"154 296 LINE",
"264 296 LINE",
"455 0 LINE",
"518 0 LINE",
"326 298 LINE",
"434 302 OFFCURVE",
"532 359 OFFCURVE",
"532 495 CURVE SMOOTH",
"532 646 OFFCURVE",
"428 700 OFFCURVE",
"280 700 CURVE SMOOTH",
"136 700 LINE",
"128 709 OFFCURVE",
"116 718 OFFCURVE",
"110 718 CURVE SMOOTH",
"91 718 OFFCURVE",
"78 696 OFFCURVE",
"75 687 CURVE"
);
},
{
closed = 1;
nodes = (
"154 654 LINE",
"281 654 LINE SMOOTH",
"420 654 OFFCURVE",
"476 595 OFFCURVE",
"476 495 CURVE SMOOTH",
"476 391 OFFCURVE",
"420 341 OFFCURVE",
"283 341 CURVE SMOOTH",
"154 341 LINE"
);
}
);
};
layerId = "39D19F74-97F3-4EB6-8D96-77117D45ABB1";
paths = (
{
closed = 1;
nodes = (
"28 622 OFFCURVE",
"61 633 OFFCURVE",
"61 594 CURVE SMOOTH",
"61 0 LINE",
"195 0 LINE",
"195 256 LINE",
"241 256 LINE",
"410 0 LINE",
"562 0 LINE",
"386 267 LINE",
"511 285 OFFCURVE",
"578 358 OFFCURVE",
"578 478 CURVE SMOOTH",
"578 625 OFFCURVE",
"477 700 OFFCURVE",
"288 700 CURVE SMOOTH",
"152 700 LINE",
"139 711 OFFCURVE",
"125 718 OFFCURVE",
"103 718 CURVE SMOOTH",
"69 718 OFFCURVE",
"43 692 OFFCURVE",
"36 660 CURVE SMOOTH"
);
},
{
closed = 1;
nodes = (
"195 584 LINE",
"291 584 LINE SMOOTH",
"386 584 OFFCURVE",
"442 560 OFFCURVE",
"442 478 CURVE SMOOTH",
"442 395 OFFCURVE",
"386 371 OFFCURVE",
"291 371 CURVE SMOOTH",
"195 371 LINE"
);
}
);
width = 613;
}
);
note = R;
unicode = 0052;
},
{
color = 6;
glyphname = S;
lastChange = "2018-05-11 06:39:42 +0000";
layers = (
{
anchors = (
{
name = bottom;
position = "{284, 0}";
},
{
name = top;
position = "{284, 700}";
}
);
layerId = "0B1DFD06-3317-40CA-B510-4969A0718C16";
paths = (
{
closed = 1;
nodes = (
"513 269 OFFCURVE",
"448 318 OFFCURVE",
"313 366 CURVE SMOOTH",
"198 407 OFFCURVE",
"129 438 OFFCURVE",
"129 529 CURVE SMOOTH",
"129 619 OFFCURVE",
"180 661 OFFCURVE",
"282 661 CURVE SMOOTH",
"361 661 OFFCURVE",
"414 635 OFFCURVE",
"453 605 CURVE",
"483 647 LINE",
"435 682 OFFCURVE",
"369 710 OFFCURVE",
"283 710 CURVE SMOOTH",
"143 710 OFFCURVE",
"73 637 OFFCURVE",
"73 528 CURVE SMOOTH",
"73 424 OFFCURVE",
"141 371 OFFCURVE",
"271 324 CURVE SMOOTH",
"416 271 OFFCURVE",
"457 244 OFFCURVE",
"457 159 CURVE SMOOTH",
"457 85 OFFCURVE",
"403 38 OFFCURVE",
"299 38 CURVE SMOOTH",
"218 38 OFFCURVE",
"147 68 OFFCURVE",
"91 122 CURVE",
"55 84 LINE",
"105 35 OFFCURVE",
"187 -10 OFFCURVE",
"299 -10 CURVE SMOOTH",
"440 -10 OFFCURVE",
"513 62 OFFCURVE",
"513 159 CURVE SMOOTH"
);
}
);
width = 568;
},
{
anchors = (
{
name = bottom;
position = "{305, 0}";
},
{
name = top;
position = "{305, 700}";
}
);
background = {
anchors = (
{
name = bottom;
position = "{305, 0}";
},
{
name = top;
position = "{305, 700}";
}
);
paths = (
{
closed = 1;
nodes = (
"534 269 OFFCURVE",
"469 318 OFFCURVE",
"334 366 CURVE SMOOTH",
"219 407 OFFCURVE",
"150 438 OFFCURVE",
"150 529 CURVE SMOOTH",
"150 619 OFFCURVE",
"201 661 OFFCURVE",
"303 661 CURVE SMOOTH",
"382 661 OFFCURVE",
"435 635 OFFCURVE",
"474 605 CURVE",
"504 647 LINE",
"456 682 OFFCURVE",
"390 710 OFFCURVE",
"304 710 CURVE SMOOTH",
"164 710 OFFCURVE",
"94 637 OFFCURVE",
"94 528 CURVE SMOOTH",
"94 424 OFFCURVE",
"162 371 OFFCURVE",
"292 324 CURVE SMOOTH",
"437 271 OFFCURVE",
"478 244 OFFCURVE",
"478 159 CURVE SMOOTH",
"478 85 OFFCURVE",
"424 39 OFFCURVE",
"320 39 CURVE SMOOTH",
"239 39 OFFCURVE",
"168 68 OFFCURVE",
"112 122 CURVE",
"76 84 LINE",
"126 35 OFFCURVE",
"208 -9 OFFCURVE",
"320 -9 CURVE SMOOTH",
"461 -9 OFFCURVE",
"534 62 OFFCURVE",
"534 159 CURVE SMOOTH"
);
}
);
};
layerId = "39D19F74-97F3-4EB6-8D96-77117D45ABB1";
paths = (
{
closed = 1;
nodes = (
"570 286 OFFCURVE",
"514 337 OFFCURVE",
"347 401 CURVE SMOOTH",
"221 449 OFFCURVE",
"190 474 OFFCURVE",
"190 524 CURVE SMOOTH",
"190 576 OFFCURVE",
"233 601 OFFCURVE",
"304 601 CURVE SMOOTH",
"379 601 OFFCURVE",
"423 583 OFFCURVE",
"483 533 CURVE",
"552 621 LINE",
"489 676 OFFCURVE",
"399 710 OFFCURVE",
"304 710 CURVE SMOOTH",
"159 710 OFFCURVE",
"54 645 OFFCURVE",
"54 523 CURVE SMOOTH",
"54 420 OFFCURVE",
"119 354 OFFCURVE",
"278 296 CURVE SMOOTH",
"413 247 OFFCURVE",
"434 223 OFFCURVE",
"434 175 CURVE SMOOTH",
"434 127 OFFCURVE",
"395 99 OFFCURVE",
"321 99 CURVE SMOOTH",
"239 99 OFFCURVE",
"175 122 OFFCURVE",
"114 190 CURVE",
"35 110 LINE",
"101 34 OFFCURVE",
"203 -10 OFFCURVE",
"318 -10 CURVE SMOOTH",
"471 -10 OFFCURVE",
"570 55 OFFCURVE",
"570 175 CURVE SMOOTH"
);
}
);
width = 605;
}
);
note = S;
unicode = 0053;
},
{
color = 6;
glyphname = T;
lastChange = "2018-05-17 04:22:58 +0000";
layers = (
{
anchors = (
{
name = bottom;
position = "{259, 0}";
},
{
name = center;
position = "{272, 350}";
},
{
name = top;
position = "{272, 700}";
}
);
layerId = "0B1DFD06-3317-40CA-B510-4969A0718C16";
paths = (
{
closed = 1;
nodes = (
"45 700 LINE",
"45 654 LINE",
"245 654 LINE",
"245 0 LINE",
"299 0 LINE",
"299 654 LINE",
"499 654 LINE",
"499 700 LINE"
);
}
);
width = 544;
},
{
anchors = (
{
name = bottom;
position = "{302, 0}";
},
{
name = center;
position = "{302, 350}";
},
{
name = top;
position = "{302, 700}";
}
);
background = {
anchors = (
{
name = bottom;
position = "{289, 0}";
},
{
name = center;
position = "{302, 350}";
},
{
name = top;
position = "{302, 700}";
}
);
paths = (
{
closed = 1;
nodes = (
"75 700 LINE",
"75 654 LINE",
"275 654 LINE",
"275 0 LINE",
"329 0 LINE",
"329 654 LINE",
"529 654 LINE",
"529 700 LINE"
);
}
);
};
layerId = "39D19F74-97F3-4EB6-8D96-77117D45ABB1";
paths = (
{
closed = 1;
nodes = (
"35 700 LINE",
"35 584 LINE",
"235 584 LINE",
"235 0 LINE",
"369 0 LINE",
"369 584 LINE",
"569 584 LINE",
"569 700 LINE"
);
}
);
width = 604;
}
);
note = T;
unicode = 0054;
},
{
color = 6;
glyphname = U;
lastChange = "2018-05-17 05:22:43 +0000";
layers = (
{
anchors = (
{
name = bottom;
position = "{322, 0}";
},
{
name = ogonek;
position = "{340, 10}";
},
{
name = top;
position = "{322, 700}";
},
{
name = topright;
position = "{569, 576}";
}
);
layerId = "0B1DFD06-3317-40CA-B510-4969A0718C16";
paths = (
{
closed = 1;
nodes = (
"474 -10 OFFCURVE",
"569 78 OFFCURVE",
"569 232 CURVE SMOOTH",
"569 700 LINE",
"515 700 LINE",
"515 226 LINE SMOOTH",
"515 95 OFFCURVE",
"437 39 OFFCURVE",
"322 39 CURVE SMOOTH",
"207 39 OFFCURVE",
"129 95 OFFCURVE",
"129 226 CURVE SMOOTH",
"129 700 LINE",
"75 700 LINE",
"75 232 LINE SMOOTH",
"75 78 OFFCURVE",
"170 -10 OFFCURVE",
"322 -10 CURVE SMOOTH"
);
}
);
width = 644;
},
{
anchors = (
{
name = bottom;
position = "{322, 0}";
},
{
name = ogonek;
position = "{345, 10}";
},
{
name = top;
position = "{322, 700}";
},
{
name = topright;
position = "{604, 546}";
}
);
background = {
anchors = (
{
name = bottom;
position = "{327, 0}";
},
{
name = ogonek;
position = "{345, 10}";
},
{
name = top;
position = "{327, 700}";
},
{
name = topright;
position = "{574, 576}";
}
);
paths = (
{
closed = 1;
nodes = (
"479 -10 OFFCURVE",
"574 78 OFFCURVE",
"574 232 CURVE SMOOTH",
"574 700 LINE",
"520 700 LINE",
"520 226 LINE SMOOTH",
"520 95 OFFCURVE",
"442 39 OFFCURVE",
"327 39 CURVE SMOOTH",
"212 39 OFFCURVE",
"134 95 OFFCURVE",
"134 226 CURVE SMOOTH",
"134 700 LINE",
"80 700 LINE",
"80 232 LINE SMOOTH",
"80 78 OFFCURVE",
"175 -10 OFFCURVE",
"327 -10 CURVE SMOOTH"
);
}
);
};
layerId = "39D19F74-97F3-4EB6-8D96-77117D45ABB1";
paths = (
{
closed = 1;
nodes = (
"499 -10 OFFCURVE",
"604 91 OFFCURVE",
"604 262 CURVE SMOOTH",
"604 700 LINE",
"470 700 LINE",
"470 256 LINE SMOOTH",
"470 157 OFFCURVE",
"415 99 OFFCURVE",
"322 99 CURVE SMOOTH",
"229 99 OFFCURVE",
"174 157 OFFCURVE",
"174 256 CURVE SMOOTH",
"174 700 LINE",
"40 700 LINE",
"40 262 LINE SMOOTH",
"40 91 OFFCURVE",
"145 -10 OFFCURVE",
"322 -10 CURVE SMOOTH"
);
}
);
width = 644;
}
);
note = U;
unicode = 0055;
},
{
color = 6;
glyphname = V;
lastChange = "2018-05-11 06:55:01 +0000";
layers = (
{
anchors = (
{
name = bottom;
position = "{328, 0}";
},
{
name = top;
position = "{328, 700}";
}
);
layerId = "0B1DFD06-3317-40CA-B510-4969A0718C16";
paths = (
{
closed = 1;
nodes = (
"601 700 LINE",
"547 700 LINE",
"329 83 LINE",
"110 700 LINE",
"55 700 LINE",
"295 36 LINE",
"286 18 OFFCURVE",
"289 4 OFFCURVE",
"305 -5 CURVE SMOOTH",
"326 -17 OFFCURVE",
"345 -7 OFFCURVE",
"355 20 CURVE SMOOTH"
);
}
);
width = 656;
},
{
anchors = (
{
name = bottom;
position = "{345, 0}";
},
{
name = top;
position = "{345, 700}";
}
);
background = {
anchors = (
{
name = bottom;
position = "{345, 0}";
},
{
name = top;
position = "{345, 700}";
}
);
paths = (
{
closed = 1;
nodes = (
"618 700 LINE",
"564 700 LINE",
"346 83 LINE",
"127 700 LINE",
"72 700 LINE",
"312 36 LINE",
"303 18 OFFCURVE",
"306 4 OFFCURVE",
"322 -5 CURVE SMOOTH",
"343 -17 OFFCURVE",
"362 -7 OFFCURVE",
"372 20 CURVE SMOOTH"
);
}
);
};
layerId = "39D19F74-97F3-4EB6-8D96-77117D45ABB1";
paths = (
{
closed = 1;
nodes = (
"655 700 LINE",
"518 700 LINE",
"346 211 LINE",
"173 700 LINE",
"35 700 LINE",
"273 68 LINE",
"257 38 OFFCURVE",
"266 14 OFFCURVE",
"302 -2 CURVE SMOOTH",
"343 -20 OFFCURVE",
"392 -8 OFFCURVE",
"410 40 CURVE SMOOTH"
);
}
);
width = 690;
}
);
note = V;
unicode = 0056;
},
{
color = 6;
glyphname = W;
lastChange = "2018-05-11 06:55:01 +0000";
layers = (
{
anchors = (
{
name = bottom;
position = "{416, 0}";
},
{
name = top;
position = "{416, 700}";
}
);
layerId = "0B1DFD06-3317-40CA-B510-4969A0718C16";
paths = (
{
closed = 1;
nodes = (
"215 -15 OFFCURVE",
"227 -4 OFFCURVE",
"238 32 CURVE SMOOTH",
"416 611 LINE",
"591 32 LINE SMOOTH",
"602 -4 OFFCURVE",
"614 -15 OFFCURVE",
"640 -8 CURVE SMOOTH",
"663 -2 OFFCURVE",
"667 11 OFFCURVE",
"661 27 CURVE SMOOTH",
"655 42 LINE",
"776 700 LINE",
"722 700 LINE",
"618 99 LINE",
"447 670 LINE",
"450 680 LINE SMOOTH",
"455 697 OFFCURVE",
"444 710 OFFCURVE",
"415 710 CURVE SMOOTH",
"402 710 OFFCURVE",
"396 703 OFFCURVE",
"393 692 CURVE SMOOTH",
"213 99 LINE",
"109 700 LINE",
"55 700 LINE",
"174 42 LINE",
"168 27 LINE SMOOTH",
"162 11 OFFCURVE",
"166 -2 OFFCURVE",
"189 -8 CURVE SMOOTH"
);
}
);
width = 831;
},
{
anchors = (
{
name = bottom;
position = "{427, 0}";
},
{
name = top;
position = "{427, 700}";
}
);
background = {
anchors = (
{
name = bottom;
position = "{427, 0}";
},
{
name = top;
position = "{427, 700}";
}
);
paths = (
{
closed = 1;
nodes = (
"427 611 LINE",
"602 32 LINE SMOOTH",
"613 -4 OFFCURVE",
"625 -15 OFFCURVE",
"651 -8 CURVE SMOOTH",
"674 -2 OFFCURVE",
"678 11 OFFCURVE",
"672 27 CURVE SMOOTH",
"666 42 LINE",
"787 700 LINE",
"733 700 LINE",
"629 99 LINE",
"458 670 LINE",
"461 680 LINE SMOOTH",
"466 697 OFFCURVE",
"455 710 OFFCURVE",
"426 710 CURVE SMOOTH",
"413 710 OFFCURVE",
"407 703 OFFCURVE",
"404 692 CURVE SMOOTH",
"224 99 LINE",
"120 700 LINE",
"66 700 LINE",
"185 42 LINE",
"179 27 LINE SMOOTH",
"173 11 OFFCURVE",
"177 -2 OFFCURVE",
"200 -8 CURVE SMOOTH",
"226 -15 OFFCURVE",
"238 -4 OFFCURVE",
"249 32 CURVE SMOOTH"
);
}
);
};
layerId = "39D19F74-97F3-4EB6-8D96-77117D45ABB1";
paths = (
{
closed = 1;
nodes = (
"245 -20 OFFCURVE",
"276 -3 OFFCURVE",
"292 53 CURVE SMOOTH",
"422 497 LINE",
"549 53 LINE SMOOTH",
"565 -3 OFFCURVE",
"596 -20 OFFCURVE",
"654 -3 CURVE SMOOTH",
"696 9 OFFCURVE",
"705 39 OFFCURVE",
"695 66 CURVE SMOOTH",
"692 74 LINE",
"808 700 LINE",
"673 700 LINE",
"604 255 LINE",
"494 640 LINE",
"497 650 LINE SMOOTH",
"507 682 OFFCURVE",
"481 710 OFFCURVE",
"421 710 CURVE SMOOTH",
"391 710 OFFCURVE",
"369 697 OFFCURVE",
"361 671 CURVE SMOOTH",
"240 253 LINE",
"170 700 LINE",
"35 700 LINE",
"149 74 LINE",
"146 66 LINE SMOOTH",
"136 39 OFFCURVE",
"145 9 OFFCURVE",
"187 -3 CURVE SMOOTH"
);
}
);
width = 843;
}
);
note = W;
unicode = 0057;
},
{
color = 6;
glyphname = X;
lastChange = "2018-05-15 04:12:10 +0000";
layers = (
{
anchors = (
{
name = bottom;
position = "{325, 0}";
},
{
name = top;
position = "{325, 700}";
}
);
layerId = "0B1DFD06-3317-40CA-B510-4969A0718C16";
paths = (
{
closed = 1;
nodes = (
"115 0 LINE",
"325 337 LINE",
"535 0 LINE",
"595 0 LINE",
"356 375 LINE",
"573 700 LINE",
"513 700 LINE",
"325 416 LINE",
"137 700 LINE",
"77 700 LINE",
"294 375 LINE",
"55 0 LINE"
);
}
);
width = 650;
},
{
anchors = (
{
name = bottom;
position = "{351, 0}";
},
{
name = top;
position = "{351, 700}";
}
);
background = {
anchors = (
{
name = bottom;
position = "{351, 0}";
},
{
name = top;
position = "{351, 700}";
}
);
paths = (
{
closed = 1;
nodes = (
"141 0 LINE",
"351 337 LINE",
"561 0 LINE",
"621 0 LINE",
"382 375 LINE",
"599 700 LINE",
"539 700 LINE",
"351 416 LINE",
"163 700 LINE",
"103 700 LINE",
"320 375 LINE",
"81 0 LINE"
);
}
);
};
layerId = "39D19F74-97F3-4EB6-8D96-77117D45ABB1";
paths = (
{
closed = 1;
nodes = (
"185 0 LINE",
"351 272 LINE",
"517 0 LINE",
"667 0 LINE",
"426 375 LINE",
"646 700 LINE",
"496 700 LINE",
"351 478 LINE",
"206 700 LINE",
"56 700 LINE",
"276 375 LINE",
"35 0 LINE"
);
}
);
width = 702;
}
);
note = X;
unicode = 0058;
},
{
color = 6;
glyphname = Y;
lastChange = "2018-05-15 04:12:33 +0000";
layers = (
{
anchors = (
{
name = bottom;
position = "{308, 0}";
},
{
name = top;
position = "{308, 700}";
},
{
name = topleft;
position = "{20, 700}";
}
);
layerId = "0B1DFD06-3317-40CA-B510-4969A0718C16";
paths = (
{
closed = 1;
nodes = (
"333 0 LINE",
"333 273 LINE",
"561 700 LINE",
"502 700 LINE",
"308 323 LINE",
"114 700 LINE",
"55 700 LINE",
"283 273 LINE",
"283 0 LINE"
);
}
);
width = 616;
},
{
anchors = (
{
name = bottom;
position = "{332, 0}";
},
{
name = top;
position = "{332, 700}";
},
{
name = topleft;
position = "{44, 700}";
}
);
background = {
anchors = (
{
name = bottom;
position = "{332, 0}";
},
{
name = top;
position = "{332, 700}";
},
{
name = topleft;
position = "{44, 700}";
}
);
paths = (
{
closed = 1;
nodes = (
"357 0 LINE",
"357 273 LINE",
"585 700 LINE",
"526 700 LINE",
"332 323 LINE",
"138 700 LINE",
"79 700 LINE",
"307 273 LINE",
"307 0 LINE"
);
}
);
};
layerId = "39D19F74-97F3-4EB6-8D96-77117D45ABB1";
paths = (
{
closed = 1;
nodes = (
"397 0 LINE",
"397 268 LINE",
"629 700 LINE",
"484 700 LINE",
"332 390 LINE",
"180 700 LINE",
"35 700 LINE",
"267 268 LINE",
"267 0 LINE"
);
}
);
width = 664;
}
);
note = Y;
unicode = 0059;
},
{
color = 6;
glyphname = Z;
lastChange = "2018-05-15 04:13:18 +0000";
layers = (
{
anchors = (
{
name = bottom;
position = "{310, 0}";
},
{
name = top;
position = "{310, 700}";
}
);
layerId = "0B1DFD06-3317-40CA-B510-4969A0718C16";
paths = (
{
closed = 1;
nodes = (
"509 700 LINE",
"82 700 LINE",
"82 654 LINE",
"488 654 LINE",
"68 41 LINE SMOOTH",
"57 25 OFFCURVE",
"51 16 OFFCURVE",
"58 8 CURVE SMOOTH",
"76 -13 OFFCURVE",
"88 -12 OFFCURVE",
"94 -7 CURVE SMOOTH",
"102 0 LINE",
"566 0 LINE",
"566 46 LINE",
"131 46 LINE",
"554 663 LINE SMOOTH",
"567 683 OFFCURVE",
"572 694 OFFCURVE",
"554 710 CURVE SMOOTH",
"541 722 OFFCURVE",
"526 719 OFFCURVE",
"519 711 CURVE SMOOTH"
);
}
);
width = 621;
},
{
anchors = (
{
name = bottom;
position = "{321, 0}";
},
{
name = top;
position = "{321, 700}";
}
);
background = {
anchors = (
{
name = bottom;
position = "{321, 0}";
},
{
name = top;
position = "{321, 700}";
}
);
paths = (
{
closed = 1;
nodes = (
"520 700 LINE",
"93 700 LINE",
"93 654 LINE",
"499 654 LINE",
"79 41 LINE SMOOTH",
"71 29 OFFCURVE",
"62 24 OFFCURVE",
"69 13 CURVE SMOOTH",
"85 -12 OFFCURVE",
"99 -13 OFFCURVE",
"104 -8 CURVE SMOOTH",
"111 -1 OFFCURVE",
"118 0 OFFCURVE",
"132 0 CURVE SMOOTH",
"577 0 LINE",
"577 46 LINE",
"142 46 LINE",
"565 663 LINE SMOOTH",
"578 683 OFFCURVE",
"583 694 OFFCURVE",
"565 710 CURVE SMOOTH",
"552 722 OFFCURVE",
"537 719 OFFCURVE",
"530 711 CURVE SMOOTH"
);
}
);
};
layerId = "39D19F74-97F3-4EB6-8D96-77117D45ABB1";
paths = (
{
closed = 1;
nodes = (
"487 700 LINE",
"59 700 LINE",
"59 584 LINE",
"404 584 LINE",
"52 82 LINE SMOOTH",
"36 60 OFFCURVE",
"26 48 OFFCURVE",
"45 27 CURVE SMOOTH",
"82 -13 OFFCURVE",
"101 -18 OFFCURVE",
"118 -8 CURVE SMOOTH",
"132 0 LINE",
"597 0 LINE",
"597 116 LINE",
"227 116 LINE",
"578 616 LINE SMOOTH",
"603 652 OFFCURVE",
"603 674 OFFCURVE",
"567 705 CURVE SMOOTH",
"544 725 OFFCURVE",
"509 724 OFFCURVE",
"494 707 CURVE"
);
}
);
width = 632;
}
);
note = Z;
unicode = 005A;
},
{
color = 6;
glyphname = a;
lastChange = "2018-05-17 06:38:04 +0000";
layers = (
{
anchors = (
{
name = bottom;
position = "{279, 0}";
},
{
name = ogonek;
position = "{469, 10}";
},
{
name = top;
position = "{279, 470}";
}
);
layerId = "0B1DFD06-3317-40CA-B510-4969A0718C16";
paths = (
{
closed = 1;
nodes = (
"340 -10 OFFCURVE",
"394 25 OFFCURVE",
"433 81 CURVE",
"436 80 LINE",
"439 31 OFFCURVE",
"451 3 OFFCURVE",
"460 -10 CURVE",
"504 9 LINE",
"491 30 OFFCURVE",
"482 63 OFFCURVE",
"482 118 CURVE SMOOTH",
"482 485 LINE",
"430 485 LINE",
"430 402 LINE",
"398 457 OFFCURVE",
"349 495 OFFCURVE",
"265 495 CURVE SMOOTH",
"122 495 OFFCURVE",
"55 373 OFFCURVE",
"55 241 CURVE SMOOTH",
"55 110 OFFCURVE",
"122 -10 OFFCURVE",
"265 -10 CURVE SMOOTH"
);
},
{
closed = 1;
nodes = (
"160 37 OFFCURVE",
"109 128 OFFCURVE",
"109 241 CURVE SMOOTH",
"109 353 OFFCURVE",
"160 448 OFFCURVE",
"265 448 CURVE SMOOTH",
"380 448 OFFCURVE",
"432 348 OFFCURVE",
"432 271 CURVE SMOOTH",
"432 213 LINE SMOOTH",
"432 118 OFFCURVE",
"374 37 OFFCURVE",
"265 37 CURVE SMOOTH"
);
}
);
width = 559;
},
{
anchors = (
{
name = bottom;
position = "{279, 0}";
},
{
name = ogonek;
position = "{476, 10}";
},
{
name = top;
position = "{279, 470}";
}
);
background = {
anchors = (
{
name = bottom;
position = "{269, 0}";
},
{
name = ogonek;
position = "{459, 10}";
},
{
name = top;
position = "{269, 470}";
}
);
paths = (
{
closed = 1;
nodes = (
"472 485 LINE",
"420 485 LINE",
"420 402 LINE",
"388 457 OFFCURVE",
"339 495 OFFCURVE",
"255 495 CURVE SMOOTH",
"112 495 OFFCURVE",
"45 373 OFFCURVE",
"45 241 CURVE SMOOTH",
"45 110 OFFCURVE",
"112 -10 OFFCURVE",
"255 -10 CURVE SMOOTH",
"330 -10 OFFCURVE",
"384 25 OFFCURVE",
"423 81 CURVE",
"426 80 LINE",
"429 31 OFFCURVE",
"441 3 OFFCURVE",
"450 -10 CURVE",
"494 9 LINE",
"481 30 OFFCURVE",
"472 63 OFFCURVE",
"472 118 CURVE SMOOTH"
);
},
{
closed = 1;
nodes = (
"370 448 OFFCURVE",
"422 348 OFFCURVE",
"422 271 CURVE SMOOTH",
"422 213 LINE SMOOTH",
"422 118 OFFCURVE",
"364 37 OFFCURVE",
"255 37 CURVE SMOOTH",
"150 37 OFFCURVE",
"99 128 OFFCURVE",
"99 241 CURVE SMOOTH",
"99 353 OFFCURVE",
"150 448 OFFCURVE",
"255 448 CURVE SMOOTH"
);
}
);
};
layerId = "39D19F74-97F3-4EB6-8D96-77117D45ABB1";
paths = (
{
closed = 1;
nodes = (
"316 -10 OFFCURVE",
"371 17 OFFCURVE",
"408 65 CURVE",
"410 65 LINE",
"413 36 OFFCURVE",
"424 12 OFFCURVE",
"444 -10 CURVE",
"551 32 LINE",
"534 61 OFFCURVE",
"526 87 OFFCURVE",
"526 136 CURVE SMOOTH",
"526 485 LINE",
"399 485 LINE",
"399 434 LINE",
"368 469 OFFCURVE",
"325 495 OFFCURVE",
"264 495 CURVE SMOOTH",
"127 495 OFFCURVE",
"35 399 OFFCURVE",
"35 234 CURVE SMOOTH",
"35 79 OFFCURVE",
"127 -10 OFFCURVE",
"251 -10 CURVE SMOOTH"
);
},
{
closed = 1;
nodes = (
"206 95 OFFCURVE",
"167 144 OFFCURVE",
"167 234 CURVE SMOOTH",
"167 335 OFFCURVE",
"208 390 OFFCURVE",
"282 390 CURVE SMOOTH",
"360 390 OFFCURVE",
"396 323 OFFCURVE",
"396 251 CURVE SMOOTH",
"396 233 LINE SMOOTH",
"396 152 OFFCURVE",
"358 95 OFFCURVE",
"278 95 CURVE SMOOTH"
);
}
);
width = 586;
}
);
note = a;
unicode = 0061;
},
{
color = 6;
glyphname = b;
lastChange = "2018-05-15 05:33:15 +0000";
layers = (
{
anchors = (
{
name = bottom;
position = "{282, 0}";
},
{
name = top;
position = "{282, 750}";
}
);
layerId = "0B1DFD06-3317-40CA-B510-4969A0718C16";
paths = (
{
closed = 1;
nodes = (
"163 30 OFFCURVE",
"221 -10 OFFCURVE",
"298 -10 CURVE SMOOTH",
"441 -10 OFFCURVE",
"509 110 OFFCURVE",
"509 241 CURVE SMOOTH",
"509 381 OFFCURVE",
"451 495 OFFCURVE",
"298 495 CURVE SMOOTH",
"221 495 OFFCURVE",
"162 453 OFFCURVE",
"130 402 CURVE",
"130 734 LINE",
"78 734 LINE",
"78 120 LINE SMOOTH",
"78 55 OFFCURVE",
"67 29 OFFCURVE",
"55 8 CURVE",
"102 -11 LINE",
"114 0 OFFCURVE",
"129 38 OFFCURVE",
"129 83 CURVE"
);
},
{
closed = 1;
nodes = (
"455 147 OFFCURVE",
"413 37 OFFCURVE",
"298 37 CURVE SMOOTH",
"194 37 OFFCURVE",
"130 126 OFFCURVE",
"130 213 CURVE SMOOTH",
"130 271 LINE SMOOTH",
"130 356 OFFCURVE",
"194 448 OFFCURVE",
"298 448 CURVE SMOOTH",
"423 448 OFFCURVE",
"455 343 OFFCURVE",
"455 241 CURVE SMOOTH"
);
}
);
width = 564;
},
{
anchors = (
{
name = bottom;
position = "{282, 0}";
},
{
name = top;
position = "{282, 750}";
}
);
background = {
anchors = (
{
name = bottom;
position = "{282, 0}";
},
{
name = top;
position = "{282, 750}";
}
);
paths = (
{
closed = 1;
nodes = (
"163 30 OFFCURVE",
"221 -10 OFFCURVE",
"298 -10 CURVE SMOOTH",
"441 -10 OFFCURVE",
"509 110 OFFCURVE",
"509 241 CURVE SMOOTH",
"509 381 OFFCURVE",
"451 495 OFFCURVE",
"298 495 CURVE SMOOTH",
"221 495 OFFCURVE",
"162 453 OFFCURVE",
"130 402 CURVE",
"130 734 LINE",
"78 734 LINE",
"78 120 LINE SMOOTH",
"78 55 OFFCURVE",
"67 29 OFFCURVE",
"55 8 CURVE",
"102 -11 LINE",
"114 0 OFFCURVE",
"129 38 OFFCURVE",
"129 83 CURVE"
);
},
{
closed = 1;
nodes = (
"455 147 OFFCURVE",
"413 37 OFFCURVE",
"298 37 CURVE SMOOTH",
"194 37 OFFCURVE",
"130 126 OFFCURVE",
"130 213 CURVE SMOOTH",
"130 271 LINE SMOOTH",
"130 356 OFFCURVE",
"194 448 OFFCURVE",
"298 448 CURVE SMOOTH",
"423 448 OFFCURVE",
"455 343 OFFCURVE",
"455 241 CURVE SMOOTH"
);
}
);
};
layerId = "39D19F74-97F3-4EB6-8D96-77117D45ABB1";
paths = (
{
closed = 1;
nodes = (
"214 16 OFFCURVE",
"263 -10 OFFCURVE",
"331 -10 CURVE SMOOTH",
"456 -10 OFFCURVE",
"555 90 OFFCURVE",
"555 243 CURVE SMOOTH",
"555 405 OFFCURVE",
"468 495 OFFCURVE",
"338 495 CURVE SMOOTH",
"278 495 OFFCURVE",
"226 469 OFFCURVE",
"192 437 CURVE",
"192 734 LINE",
"60 734 LINE",
"60 136 LINE SMOOTH",
"60 87 OFFCURVE",
"52 60 OFFCURVE",
"35 31 CURVE",
"142 -11 LINE",
"162 11 OFFCURVE",
"173 36 OFFCURVE",
"176 65 CURVE"
);
},
{
closed = 1;
nodes = (
"423 149 OFFCURVE",
"383 95 OFFCURVE",
"310 95 CURVE SMOOTH",
"229 95 OFFCURVE",
"190 152 OFFCURVE",
"190 233 CURVE SMOOTH",
"190 251 LINE SMOOTH",
"190 323 OFFCURVE",
"227 390 OFFCURVE",
"306 390 CURVE SMOOTH",
"381 390 OFFCURVE",
"423 344 OFFCURVE",
"423 243 CURVE SMOOTH"
);
}
);
width = 590;
}
);
note = b;
unicode = 0062;
},
{
color = 6;
glyphname = c;
lastChange = "2018-05-17 09:16:25 +0000";
layers = (
{
anchors = (
{
name = bottom;
position = "{287, 0}";
},
{
name = top;
position = "{287, 470}";
}
);
layerId = "0B1DFD06-3317-40CA-B510-4969A0718C16";
paths = (
{
closed = 1;
nodes = (
"350 -10 OFFCURVE",
"417 11 OFFCURVE",
"454 48 CURVE",
"420 83 LINE",
"393 52 OFFCURVE",
"337 37 OFFCURVE",
"297 37 CURVE SMOOTH",
"176 37 OFFCURVE",
"109 119 OFFCURVE",
"109 242 CURVE SMOOTH",
"109 372 OFFCURVE",
"177 448 OFFCURVE",
"287 448 CURVE SMOOTH",
"342 448 OFFCURVE",
"396 425 OFFCURVE",
"418 400 CURVE",
"441 442 LINE",
"404 477 OFFCURVE",
"338 495 OFFCURVE",
"286 495 CURVE SMOOTH",
"149 495 OFFCURVE",
"55 395 OFFCURVE",
"55 242 CURVE SMOOTH",
"55 87 OFFCURVE",
"147 -10 OFFCURVE",
"293 -10 CURVE SMOOTH"
);
}
);
width = 509;
},
{
anchors = (
{
name = bottom;
position = "{287, 0}";
},
{
name = top;
position = "{287, 470}";
}
);
background = {
anchors = (
{
name = bottom;
position = "{307, 0}";
},
{
name = top;
position = "{307, 470}";
}
);
paths = (
{
closed = 1;
nodes = (
"370 -10 OFFCURVE",
"437 11 OFFCURVE",
"474 48 CURVE",
"440 83 LINE",
"413 52 OFFCURVE",
"357 37 OFFCURVE",
"317 37 CURVE SMOOTH",
"196 37 OFFCURVE",
"129 119 OFFCURVE",
"129 242 CURVE SMOOTH",
"129 372 OFFCURVE",
"197 448 OFFCURVE",
"307 448 CURVE SMOOTH",
"362 448 OFFCURVE",
"416 425 OFFCURVE",
"438 400 CURVE",
"461 442 LINE",
"424 477 OFFCURVE",
"358 495 OFFCURVE",
"306 495 CURVE SMOOTH",
"169 495 OFFCURVE",
"75 395 OFFCURVE",
"75 242 CURVE SMOOTH",
"75 87 OFFCURVE",
"167 -10 OFFCURVE",
"313 -10 CURVE SMOOTH"
);
}
);
};
layerId = "39D19F74-97F3-4EB6-8D96-77117D45ABB1";
paths = (
{
closed = 1;
nodes = (
"382 -10 OFFCURVE",
"455 23 OFFCURVE",
"499 74 CURVE",
"430 146 LINE",
"393 110 OFFCURVE",
"355 97 OFFCURVE",
"307 97 CURVE SMOOTH",
"223 97 OFFCURVE",
"169 141 OFFCURVE",
"169 242 CURVE SMOOTH",
"169 344 OFFCURVE",
"223 388 OFFCURVE",
"304 388 CURVE SMOOTH",
"358 388 OFFCURVE",
"402 370 OFFCURVE",
"438 341 CURVE",
"483 428 LINE",
"444 467 OFFCURVE",
"377 495 OFFCURVE",
"298 495 CURVE SMOOTH",
"134 495 OFFCURVE",
"35 401 OFFCURVE",
"35 242 CURVE SMOOTH",
"35 84 OFFCURVE",
"135 -10 OFFCURVE",
"303 -10 CURVE SMOOTH"
);
}
);
width = 534;
}
);
note = c;
unicode = 0063;
},
{
color = 6;
glyphname = d;
lastChange = "2018-05-15 05:33:25 +0000";
layers = (
{
anchors = (
{
name = bottom;
position = "{282, 0}";
},
{
name = center;
position = "{282, 235}";
},
{
name = top;
position = "{282, 750}";
},
{
name = topright;
position = "{544, 470}";
}
);
layerId = "0B1DFD06-3317-40CA-B510-4969A0718C16";
paths = (
{
closed = 1;
nodes = (
"435 38 OFFCURVE",
"450 0 OFFCURVE",
"462 -11 CURVE",
"509 8 LINE",
"497 29 OFFCURVE",
"486 55 OFFCURVE",
"486 120 CURVE SMOOTH",
"486 734 LINE",
"434 734 LINE",
"434 402 LINE",
"402 453 OFFCURVE",
"347 495 OFFCURVE",
"270 495 CURVE SMOOTH",
"117 495 OFFCURVE",
"55 377 OFFCURVE",
"55 237 CURVE SMOOTH",
"55 98 OFFCURVE",
"123 -10 OFFCURVE",
"266 -10 CURVE SMOOTH",
"343 -10 OFFCURVE",
"401 30 OFFCURVE",
"435 83 CURVE"
);
},
{
closed = 1;
nodes = (
"109 339 OFFCURVE",
"145 448 OFFCURVE",
"270 448 CURVE SMOOTH",
"374 448 OFFCURVE",
"434 356 OFFCURVE",
"434 271 CURVE SMOOTH",
"434 213 LINE SMOOTH",
"434 126 OFFCURVE",
"370 37 OFFCURVE",
"266 37 CURVE SMOOTH",
"151 37 OFFCURVE",
"109 135 OFFCURVE",
"109 237 CURVE SMOOTH"
);
}
);
width = 564;
},
{
anchors = (
{
name = bottom;
position = "{286, 0}";
},
{
name = center;
position = "{286, 235}";
},
{
name = top;
position = "{286, 750}";
},
{
name = topright;
position = "{548, 470}";
}
);
background = {
anchors = (
{
name = bottom;
position = "{286, 0}";
},
{
name = center;
position = "{286, 235}";
},
{
name = top;
position = "{286, 750}";
},
{
name = topright;
position = "{548, 470}";
}
);
paths = (
{
closed = 1;
nodes = (
"439 38 OFFCURVE",
"454 0 OFFCURVE",
"466 -11 CURVE",
"513 8 LINE",
"501 29 OFFCURVE",
"490 55 OFFCURVE",
"490 120 CURVE SMOOTH",
"490 734 LINE",
"438 734 LINE",
"438 402 LINE",
"406 453 OFFCURVE",
"351 495 OFFCURVE",
"274 495 CURVE SMOOTH",
"121 495 OFFCURVE",
"59 377 OFFCURVE",
"59 237 CURVE SMOOTH",
"59 98 OFFCURVE",
"127 -10 OFFCURVE",
"270 -10 CURVE SMOOTH",
"347 -10 OFFCURVE",
"405 30 OFFCURVE",
"439 83 CURVE"
);
},
{
closed = 1;
nodes = (
"113 339 OFFCURVE",
"149 448 OFFCURVE",
"274 448 CURVE SMOOTH",
"378 448 OFFCURVE",
"438 356 OFFCURVE",
"438 271 CURVE SMOOTH",
"438 213 LINE SMOOTH",
"438 126 OFFCURVE",
"374 37 OFFCURVE",
"270 37 CURVE SMOOTH",
"155 37 OFFCURVE",
"113 135 OFFCURVE",
"113 237 CURVE SMOOTH"
);
}
);
};
layerId = "39D19F74-97F3-4EB6-8D96-77117D45ABB1";
paths = (
{
closed = 1;
nodes = (
"417 36 OFFCURVE",
"428 11 OFFCURVE",
"448 -11 CURVE",
"555 31 LINE",
"538 60 OFFCURVE",
"530 87 OFFCURVE",
"530 136 CURVE SMOOTH",
"530 734 LINE",
"398 734 LINE",
"398 437 LINE",
"367 470 OFFCURVE",
"327 495 OFFCURVE",
"266 495 CURVE SMOOTH",
"129 495 OFFCURVE",
"35 399 OFFCURVE",
"35 234 CURVE SMOOTH",
"35 79 OFFCURVE",
"132 -10 OFFCURVE",
"259 -10 CURVE SMOOTH",
"327 -10 OFFCURVE",
"376 16 OFFCURVE",
"414 65 CURVE"
);
},
{
closed = 1;
nodes = (
"167 335 OFFCURVE",
"208 390 OFFCURVE",
"284 390 CURVE SMOOTH",
"364 390 OFFCURVE",
"400 323 OFFCURVE",
"400 251 CURVE SMOOTH",
"400 233 LINE SMOOTH",
"400 152 OFFCURVE",
"362 95 OFFCURVE",
"280 95 CURVE SMOOTH",
"206 95 OFFCURVE",
"167 144 OFFCURVE",
"167 234 CURVE SMOOTH"
);
}
);
width = 590;
}
);
note = d;
unicode = 0064;
},
{
color = 6;
glyphname = e;
lastChange = "2018-05-31 04:05:09 +0000";
layers = (
{
anchors = (
{
name = bottom;
position = "{269, 0}";
},
{
name = ogonek;
position = "{290, 10}";
},
{
name = top;
position = "{269, 470}";
}
);
layerId = "0B1DFD06-3317-40CA-B510-4969A0718C16";
paths = (
{
closed = 1;
nodes = (
"346 -10 OFFCURVE",
"410 12 OFFCURVE",
"452 50 CURVE",
"423 86 LINE",
"387 55 OFFCURVE",
"334 37 OFFCURVE",
"280 37 CURVE SMOOTH",
"167 37 OFFCURVE",
"110 112 OFFCURVE",
"110 218 CURVE",
"442 218 LINE SMOOTH",
"472 218 OFFCURVE",
"483 230 OFFCURVE",
"483 256 CURVE SMOOTH",
"483 335 OFFCURVE",
"448 495 OFFCURVE",
"269 495 CURVE SMOOTH",
"105 495 OFFCURVE",
"55 363 OFFCURVE",
"55 239 CURVE SMOOTH",
"55 94 OFFCURVE",
"136 -10 OFFCURVE",
"280 -10 CURVE SMOOTH"
);
},
{
closed = 1;
nodes = (
"109 341 OFFCURVE",
"148 448 OFFCURVE",
"269 448 CURVE SMOOTH",
"384 448 OFFCURVE",
"431 357 OFFCURVE",
"431 264 CURVE",
"109 264 LINE"
);
}
);
width = 538;
},
{
anchors = (
{
name = bottom;
position = "{289, 0}";
},
{
name = ogonek;
position = "{310, 10}";
},
{
name = top;
position = "{289, 470}";
}
);
background = {
anchors = (
{
name = bottom;
position = "{289, 0}";
},
{
name = ogonek;
position = "{310, 10}";
},
{
name = top;
position = "{289, 470}";
}
);
paths = (
{
closed = 1;
nodes = (
"366 -10 OFFCURVE",
"430 12 OFFCURVE",
"472 50 CURVE",
"443 86 LINE",
"407 55 OFFCURVE",
"354 37 OFFCURVE",
"300 37 CURVE SMOOTH",
"187 37 OFFCURVE",
"130 112 OFFCURVE",
"130 218 CURVE",
"462 218 LINE SMOOTH",
"492 218 OFFCURVE",
"503 230 OFFCURVE",
"503 256 CURVE SMOOTH",
"503 335 OFFCURVE",
"468 495 OFFCURVE",
"289 495 CURVE SMOOTH",
"125 495 OFFCURVE",
"75 363 OFFCURVE",
"75 239 CURVE SMOOTH",
"75 94 OFFCURVE",
"156 -10 OFFCURVE",
"300 -10 CURVE SMOOTH"
);
},
{
closed = 1;
nodes = (
"129 341 OFFCURVE",
"168 448 OFFCURVE",
"289 448 CURVE SMOOTH",
"404 448 OFFCURVE",
"451 357 OFFCURVE",
"451 264 CURVE",
"129 264 LINE"
);
}
);
};
layerId = "39D19F74-97F3-4EB6-8D96-77117D45ABB1";
paths = (
{
closed = 1;
nodes = (
"385 -10 OFFCURVE",
"454 25 OFFCURVE",
"497 79 CURVE",
"431 149 LINE",
"400 117 OFFCURVE",
"359 97 OFFCURVE",
"294 97 CURVE SMOOTH",
"219 97 OFFCURVE",
"166 133 OFFCURVE",
"166 188 CURVE",
"444 188 LINE SMOOTH",
"493 188 OFFCURVE",
"525 211 OFFCURVE",
"525 256 CURVE SMOOTH",
"525 388 OFFCURVE",
"436 495 OFFCURVE",
"279 495 CURVE SMOOTH",
"119 495 OFFCURVE",
"35 387 OFFCURVE",
"35 239 CURVE SMOOTH",
"35 86 OFFCURVE",
"134 -10 OFFCURVE",
"294 -10 CURVE SMOOTH"
);
},
{
closed = 1;
nodes = (
"166 351 OFFCURVE",
"216 390 OFFCURVE",
"279 390 CURVE SMOOTH",
"345 390 OFFCURVE",
"394 351 OFFCURVE",
"394 291 CURVE",
"166 291 LINE"
);
}
);
width = 560;
}
);
note = e;
unicode = 0065;
},
{
color = 6;
glyphname = f;
lastChange = "2018-05-15 04:11:13 +0000";
layers = (
{
anchors = (
{
name = bottom;
position = "{176, 0}";
},
{
name = top;
position = "{176, 750}";
}
);
layerId = "0B1DFD06-3317-40CA-B510-4969A0718C16";
paths = (
{
closed = 1;
nodes = (
"125 0 LINE",
"177 0 LINE",
"177 439 LINE",
"305 439 LINE",
"317 485 LINE",
"177 485 LINE",
"177 603 LINE SMOOTH",
"177 668 OFFCURVE",
"212 689 OFFCURVE",
"261 689 CURVE SMOOTH",
"279 689 OFFCURVE",
"303 686 OFFCURVE",
"323 678 CURVE",
"334 722 LINE",
"310 731 OFFCURVE",
"279 736 OFFCURVE",
"256 736 CURVE SMOOTH",
"192 736 OFFCURVE",
"125 696 OFFCURVE",
"125 603 CURVE SMOOTH",
"125 485 LINE",
"57 485 LINE",
"45 439 LINE",
"125 439 LINE"
);
}
);
width = 369;
},
{
anchors = (
{
name = bottom;
position = "{205, 0}";
},
{
name = top;
position = "{205, 750}";
}
);
background = {
anchors = (
{
name = bottom;
position = "{205, 0}";
},
{
name = top;
position = "{205, 750}";
}
);
paths = (
{
closed = 1;
nodes = (
"154 0 LINE",
"206 0 LINE",
"206 439 LINE",
"334 439 LINE",
"346 485 LINE",
"206 485 LINE",
"206 603 LINE SMOOTH",
"206 668 OFFCURVE",
"241 689 OFFCURVE",
"290 689 CURVE SMOOTH",
"308 689 OFFCURVE",
"332 686 OFFCURVE",
"352 678 CURVE",
"363 722 LINE",
"339 731 OFFCURVE",
"308 736 OFFCURVE",
"285 736 CURVE SMOOTH",
"221 736 OFFCURVE",
"154 696 OFFCURVE",
"154 603 CURVE SMOOTH",
"154 485 LINE",
"86 485 LINE",
"74 439 LINE",
"154 439 LINE"
);
}
);
};
layerId = "39D19F74-97F3-4EB6-8D96-77117D45ABB1";
paths = (
{
closed = 1;
nodes = (
"114 0 LINE",
"246 0 LINE",
"246 379 LINE",
"363 379 LINE",
"390 485 LINE",
"246 485 LINE",
"246 566 LINE SMOOTH",
"246 607 OFFCURVE",
"269 629 OFFCURVE",
"310 629 CURVE SMOOTH",
"333 629 OFFCURVE",
"364 621 OFFCURVE",
"380 613 CURVE",
"404 709 LINE",
"377 725 OFFCURVE",
"332 736 OFFCURVE",
"298 736 CURVE SMOOTH",
"182 736 OFFCURVE",
"114 665 OFFCURVE",
"114 568 CURVE SMOOTH",
"114 485 LINE",
"53 485 LINE",
"25 379 LINE",
"114 379 LINE"
);
}
);
width = 429;
}
);
note = f;
unicode = 0066;
},
{
color = 6;
glyphname = g;
lastChange = "2018-05-17 05:14:19 +0000";
layers = (
{
anchors = (
{
name = bottom;
position = "{280, -250}";
},
{
name = top;
position = "{280, 470}";
}
);
layerId = "0B1DFD06-3317-40CA-B510-4969A0718C16";
paths = (
{
closed = 1;
nodes = (
"385 -218 OFFCURVE",
"482 -140 OFFCURVE",
"482 15 CURVE SMOOTH",
"482 365 LINE SMOOTH",
"482 430 OFFCURVE",
"493 456 OFFCURVE",
"505 477 CURVE",
"458 496 LINE",
"446 485 OFFCURVE",
"431 447 OFFCURVE",
"431 402 CURVE",
"397 455 OFFCURVE",
"348 495 OFFCURVE",
"264 495 CURVE SMOOTH",
"121 495 OFFCURVE",
"55 387 OFFCURVE",
"55 256 CURVE SMOOTH",
"55 116 OFFCURVE",
"111 0 OFFCURVE",
"264 0 CURVE SMOOTH",
"341 0 OFFCURVE",
"396 38 OFFCURVE",
"430 93 CURVE",
"430 28 LINE SMOOTH",
"430 -108 OFFCURVE",
"379 -171 OFFCURVE",
"252 -171 CURVE SMOOTH",
"205 -171 OFFCURVE",
"158 -158 OFFCURVE",
"133 -146 CURVE",
"115 -191 LINE",
"147 -205 OFFCURVE",
"202 -218 OFFCURVE",
"252 -218 CURVE SMOOTH"
);
},
{
closed = 1;
nodes = (
"139 47 OFFCURVE",
"109 154 OFFCURVE",
"109 256 CURVE SMOOTH",
"109 350 OFFCURVE",
"149 448 OFFCURVE",
"264 448 CURVE SMOOTH",
"368 448 OFFCURVE",
"430 359 OFFCURVE",
"430 272 CURVE SMOOTH",
"430 224 LINE SMOOTH",
"430 139 OFFCURVE",
"368 47 OFFCURVE",
"264 47 CURVE SMOOTH"
);
}
);
width = 560;
},
{
anchors = (
{
name = bottom;
position = "{304, -250}";
},
{
name = top;
position = "{304, 470}";
}
);
background = {
anchors = (
{
name = bottom;
position = "{274, -250}";
},
{
name = top;
position = "{274, 470}";
}
);
paths = (
{
closed = 1;
nodes = (
"379 -218 OFFCURVE",
"476 -140 OFFCURVE",
"476 15 CURVE SMOOTH",
"476 365 LINE SMOOTH",
"476 430 OFFCURVE",
"487 456 OFFCURVE",
"499 477 CURVE",
"452 496 LINE",
"440 485 OFFCURVE",
"425 447 OFFCURVE",
"425 402 CURVE",
"391 455 OFFCURVE",
"342 495 OFFCURVE",
"258 495 CURVE SMOOTH",
"115 495 OFFCURVE",
"49 387 OFFCURVE",
"49 256 CURVE SMOOTH",
"49 116 OFFCURVE",
"105 0 OFFCURVE",
"258 0 CURVE SMOOTH",
"335 0 OFFCURVE",
"390 38 OFFCURVE",
"424 93 CURVE",
"424 28 LINE SMOOTH",
"424 -108 OFFCURVE",
"373 -171 OFFCURVE",
"246 -171 CURVE SMOOTH",
"199 -171 OFFCURVE",
"152 -158 OFFCURVE",
"127 -146 CURVE",
"109 -191 LINE",
"141 -205 OFFCURVE",
"196 -218 OFFCURVE",
"246 -218 CURVE SMOOTH"
);
},
{
closed = 1;
nodes = (
"133 47 OFFCURVE",
"103 154 OFFCURVE",
"103 256 CURVE SMOOTH",
"103 350 OFFCURVE",
"143 448 OFFCURVE",
"258 448 CURVE SMOOTH",
"362 448 OFFCURVE",
"424 359 OFFCURVE",
"424 272 CURVE SMOOTH",
"424 224 LINE SMOOTH",
"424 139 OFFCURVE",
"362 47 OFFCURVE",
"258 47 CURVE SMOOTH"
);
}
);
};
layerId = "39D19F74-97F3-4EB6-8D96-77117D45ABB1";
paths = (
{
closed = 1;
nodes = (
"436 -218 OFFCURVE",
"530 -129 OFFCURVE",
"530 43 CURVE SMOOTH",
"530 351 LINE SMOOTH",
"530 400 OFFCURVE",
"538 427 OFFCURVE",
"555 456 CURVE",
"448 498 LINE",
"428 476 OFFCURVE",
"417 451 OFFCURVE",
"414 422 CURVE",
"373 469 OFFCURVE",
"320 497 OFFCURVE",
"253 497 CURVE SMOOTH",
"127 497 OFFCURVE",
"35 409 OFFCURVE",
"35 248 CURVE SMOOTH",
"35 86 OFFCURVE",
"128 0 OFFCURVE",
"261 0 CURVE SMOOTH",
"319 0 OFFCURVE",
"366 23 OFFCURVE",
"398 58 CURVE",
"398 31 LINE SMOOTH",
"398 -52 OFFCURVE",
"369 -111 OFFCURVE",
"263 -111 CURVE SMOOTH",
"213 -111 OFFCURVE",
"168 -101 OFFCURVE",
"126 -79 CURVE",
"87 -174 LINE",
"136 -199 OFFCURVE",
"195 -218 OFFCURVE",
"263 -218 CURVE SMOOTH"
);
},
{
closed = 1;
nodes = (
"209 105 OFFCURVE",
"167 147 OFFCURVE",
"167 248 CURVE SMOOTH",
"167 343 OFFCURVE",
"207 392 OFFCURVE",
"280 392 CURVE SMOOTH",
"361 392 OFFCURVE",
"400 335 OFFCURVE",
"400 254 CURVE SMOOTH",
"400 244 LINE SMOOTH",
"400 172 OFFCURVE",
"363 105 OFFCURVE",
"284 105 CURVE SMOOTH"
);
}
);
width = 590;
}
);
note = g;
unicode = 0067;
},
{
color = 6;
glyphname = h;
lastChange = "2018-05-15 05:12:56 +0000";
layers = (
{
anchors = (
{
name = bottom;
position = "{267, 0}";
},
{
name = center;
position = "{267, 375}";
},
{
name = top;
position = "{225, 750}";
}
);
layerId = "0B1DFD06-3317-40CA-B510-4969A0718C16";
paths = (
{
closed = 1;
nodes = (
"407 92 LINE SMOOTH",
"407 46 OFFCURVE",
"419 14 OFFCURVE",
"431 -10 CURVE",
"478 9 LINE",
"468 28 OFFCURVE",
"459 60 OFFCURVE",
"459 92 CURVE SMOOTH",
"459 306 LINE SMOOTH",
"459 428 OFFCURVE",
"402 495 OFFCURVE",
"293 495 CURVE SMOOTH",
"221 495 OFFCURVE",
"162 461 OFFCURVE",
"132 405 CURVE",
"132 734 LINE",
"80 734 LINE",
"80 0 LINE",
"132 0 LINE",
"132 273 LINE SMOOTH",
"132 361 OFFCURVE",
"192 448 OFFCURVE",
"283 448 CURVE SMOOTH",
"370 448 OFFCURVE",
"407 401 OFFCURVE",
"407 307 CURVE SMOOTH"
);
}
);
width = 533;
},
{
anchors = (
{
name = bottom;
position = "{267, 0}";
},
{
name = center;
position = "{267, 375}";
},
{
name = top;
position = "{225, 750}";
}
);
background = {
anchors = (
{
name = bottom;
position = "{267, 0}";
},
{
name = center;
position = "{267, 375}";
},
{
name = top;
position = "{225, 750}";
}
);
paths = (
{
closed = 1;
nodes = (
"407 92 LINE SMOOTH",
"407 46 OFFCURVE",
"419 14 OFFCURVE",
"431 -10 CURVE",
"478 9 LINE",
"468 28 OFFCURVE",
"459 60 OFFCURVE",
"459 92 CURVE SMOOTH",
"459 306 LINE SMOOTH",
"459 428 OFFCURVE",
"402 495 OFFCURVE",
"293 495 CURVE SMOOTH",
"221 495 OFFCURVE",
"162 461 OFFCURVE",
"132 405 CURVE",
"132 734 LINE",
"80 734 LINE",
"80 0 LINE",
"132 0 LINE",
"132 273 LINE SMOOTH",
"132 361 OFFCURVE",
"192 448 OFFCURVE",
"283 448 CURVE SMOOTH",
"370 448 OFFCURVE",
"407 401 OFFCURVE",
"407 307 CURVE SMOOTH"
);
}
);
};
layerId = "39D19F74-97F3-4EB6-8D96-77117D45ABB1";
paths = (
{
closed = 1;
nodes = (
"367 134 LINE SMOOTH",
"367 80 OFFCURVE",
"383 32 OFFCURVE",
"411 -10 CURVE",
"527 36 LINE",
"510 63 OFFCURVE",
"499 94 OFFCURVE",
"499 134 CURVE SMOOTH",
"499 287 LINE SMOOTH",
"499 416 OFFCURVE",
"447 495 OFFCURVE",
"317 495 CURVE SMOOTH",
"260 495 OFFCURVE",
"209 470 OFFCURVE",
"172 432 CURVE",
"172 734 LINE",
"40 734 LINE",
"40 0 LINE",
"172 0 LINE",
"172 250 LINE SMOOTH",
"172 329 OFFCURVE",
"215 388 OFFCURVE",
"283 388 CURVE SMOOTH",
"336 388 OFFCURVE",
"367 359 OFFCURVE",
"367 287 CURVE SMOOTH"
);
}
);
width = 562;
}
);
note = h;
unicode = 0068;
},
{
color = 6;
glyphname = i;
lastChange = "2018-05-29 11:00:40 +0000";
layers = (
{
anchors = (
{
name = bottom;
position = "{123, 0}";
}
);
guideLines = (
{
position = "{-119, 735}";
}
);
layerId = "0B1DFD06-3317-40CA-B510-4969A0718C16";
paths = (
{
closed = 1;
nodes = (
"148 0 LINE",
"148 485 LINE",
"96 485 LINE",
"96 0 LINE"
);
},
{
closed = 1;
nodes = (
"146 624 OFFCURVE",
"166 645 OFFCURVE",
"166 667 CURVE SMOOTH",
"166 690 OFFCURVE",
"146 710 OFFCURVE",
"123 710 CURVE SMOOTH",
"100 710 OFFCURVE",
"80 690 OFFCURVE",
"80 667 CURVE SMOOTH",
"80 645 OFFCURVE",
"100 624 OFFCURVE",
"123 624 CURVE SMOOTH"
);
}
);
width = 246;
},
{
anchors = (
{
name = bottom;
position = "{141, 0}";
}
);
background = {
anchors = (
{
name = bottom;
position = "{141, 0}";
}
);
paths = (
{
closed = 1;
nodes = (
"114 0 LINE",
"166 0 LINE",
"166 485 LINE",
"114 485 LINE"
);
},
{
closed = 1;
nodes = (
"118 649 OFFCURVE",
"98 670 OFFCURVE",
"98 692 CURVE SMOOTH",
"98 715 OFFCURVE",
"118 735 OFFCURVE",
"141 735 CURVE SMOOTH",
"164 735 OFFCURVE",
"184 715 OFFCURVE",
"184 692 CURVE SMOOTH",
"184 670 OFFCURVE",
"164 649 OFFCURVE",
"141 649 CURVE SMOOTH"
);
}
);
};
guideLines = (
{
position = "{-101, 735}";
}
);
layerId = "39D19F74-97F3-4EB6-8D96-77117D45ABB1";
paths = (
{
closed = 1;
nodes = (
"206 0 LINE",
"206 485 LINE",
"74 485 LINE",
"74 0 LINE"
);
},
{
closed = 1;
nodes = (
"192 540 OFFCURVE",
"230 575 OFFCURVE",
"230 625 CURVE SMOOTH",
"230 675 OFFCURVE",
"192 710 OFFCURVE",
"140 710 CURVE SMOOTH",
"88 710 OFFCURVE",
"50 675 OFFCURVE",
"50 625 CURVE SMOOTH",
"50 575 OFFCURVE",
"88 540 OFFCURVE",
"140 540 CURVE SMOOTH"
);
}
);
width = 280;
}
);
note = i;
unicode = 0069;
},
{
color = 6;
glyphname = j;
lastChange = "2018-05-15 05:28:09 +0000";
layers = (
{
layerId = "0B1DFD06-3317-40CA-B510-4969A0718C16";
paths = (
{
closed = 1;
nodes = (
"260 -219 OFFCURVE",
"313 -167 OFFCURVE",
"313 -40 CURVE SMOOTH",
"313 485 LINE",
"261 485 LINE",
"261 -40 LINE SMOOTH",
"261 -139 OFFCURVE",
"234 -174 OFFCURVE",
"163 -174 CURVE",
"124 -174 OFFCURVE",
"91 -161 OFFCURVE",
"68 -145 CURVE",
"45 -186 LINE",
"76 -205 OFFCURVE",
"117 -219 OFFCURVE",
"163 -219 CURVE SMOOTH"
);
},
{
closed = 1;
nodes = (
"311 624 OFFCURVE",
"331 645 OFFCURVE",
"331 667 CURVE SMOOTH",
"331 690 OFFCURVE",
"311 710 OFFCURVE",
"288 710 CURVE SMOOTH",
"265 710 OFFCURVE",
"245 690 OFFCURVE",
"245 667 CURVE SMOOTH",
"245 645 OFFCURVE",
"265 624 OFFCURVE",
"288 624 CURVE SMOOTH"
);
}
);
width = 411;
},
{
background = {
paths = (
{
closed = 1;
nodes = (
"286 -219 OFFCURVE",
"339 -167 OFFCURVE",
"339 -40 CURVE SMOOTH",
"339 485 LINE",
"287 485 LINE",
"287 -40 LINE SMOOTH",
"287 -139 OFFCURVE",
"260 -174 OFFCURVE",
"189 -174 CURVE",
"150 -174 OFFCURVE",
"117 -161 OFFCURVE",
"94 -145 CURVE",
"71 -186 LINE",
"102 -205 OFFCURVE",
"143 -219 OFFCURVE",
"189 -219 CURVE SMOOTH"
);
},
{
closed = 1;
nodes = (
"337 649 OFFCURVE",
"357 670 OFFCURVE",
"357 692 CURVE SMOOTH",
"357 715 OFFCURVE",
"337 735 OFFCURVE",
"314 735 CURVE SMOOTH",
"291 735 OFFCURVE",
"271 715 OFFCURVE",
"271 692 CURVE SMOOTH",
"271 670 OFFCURVE",
"291 649 OFFCURVE",
"314 649 CURVE SMOOTH"
);
}
);
};
layerId = "39D19F74-97F3-4EB6-8D96-77117D45ABB1";
paths = (
{
closed = 1;
nodes = (
"315 -219 OFFCURVE",
"379 -150 OFFCURVE",
"379 -19 CURVE SMOOTH",
"379 485 LINE",
"247 485 LINE",
"247 -27 LINE SMOOTH",
"247 -89 OFFCURVE",
"225 -112 OFFCURVE",
"179 -112 CURVE SMOOTH",
"143 -112 OFFCURVE",
"109 -101 OFFCURVE",
"73 -74 CURVE",
"25 -162 LINE",
"59 -196 OFFCURVE",
"129 -219 OFFCURVE",
"189 -219 CURVE SMOOTH"
);
},
{
closed = 1;
nodes = (
"365 540 OFFCURVE",
"403 575 OFFCURVE",
"403 625 CURVE SMOOTH",
"403 675 OFFCURVE",
"365 710 OFFCURVE",
"313 710 CURVE SMOOTH",
"261 710 OFFCURVE",
"223 675 OFFCURVE",
"223 625 CURVE SMOOTH",
"223 575 OFFCURVE",
"261 540 OFFCURVE",
"313 540 CURVE SMOOTH"
);
}
);
width = 453;
}
);
note = j;
unicode = 006A;
},
{
color = 6;
glyphname = k;
lastChange = "2018-05-17 09:23:25 +0000";
layers = (
{
anchors = (
{
name = bottom;
position = "{254, 0}";
},
{
name = top;
position = "{254, 750}";
}
);
layerId = "0B1DFD06-3317-40CA-B510-4969A0718C16";
paths = (
{
closed = 1;
nodes = (
"171 268 LINE",
"416 485 LINE",
"346 485 LINE",
"132 296 LINE",
"132 734 LINE",
"80 734 LINE",
"80 0 LINE",
"132 0 LINE",
"132 240 LINE",
"386 0 LINE",
"453 0 LINE"
);
}
);
width = 508;
},
{
anchors = (
{
name = bottom;
position = "{229, 0}";
},
{
name = top;
position = "{229, 750}";
}
);
background = {
anchors = (
{
name = bottom;
position = "{259, 0}";
},
{
name = top;
position = "{259, 750}";
}
);
paths = (
{
closed = 1;
nodes = (
"176 268 LINE",
"421 485 LINE",
"351 485 LINE",
"137 296 LINE",
"137 734 LINE",
"85 734 LINE",
"85 0 LINE",
"137 0 LINE",
"137 240 LINE",
"391 -2 LINE",
"458 0 LINE"
);
}
);
};
layerId = "39D19F74-97F3-4EB6-8D96-77117D45ABB1";
paths = (
{
closed = 1;
nodes = (
"242 255 LINE",
"474 485 LINE",
"312 485 LINE",
"177 344 LINE",
"177 734 LINE",
"45 734 LINE",
"45 0 LINE",
"177 0 LINE",
"177 157 LINE",
"327 0 LINE",
"497 0 LINE"
);
}
);
width = 532;
}
);
note = k;
unicode = 006B;
},
{
color = 6;
glyphname = l;
lastChange = "2018-05-15 04:11:13 +0000";
layers = (
{
anchors = (
{
name = bottom;
position = "{106, 0}";
},
{
name = center;
position = "{106, 375}";
},
{
name = top;
position = "{106, 750}";
},
{
name = topright;
position = "{192, 750}";
}
);
layerId = "0B1DFD06-3317-40CA-B510-4969A0718C16";
paths = (
{
closed = 1;
nodes = (
"80 0 LINE",
"132 0 LINE",
"132 734 LINE",
"80 734 LINE"
);
}
);
width = 212;
},
{
anchors = (
{
name = bottom;
position = "{111, 0}";
},
{
name = center;
position = "{111, 375}";
},
{
name = top;
position = "{111, 750}";
},
{
name = topright;
position = "{197, 750}";
}
);
background = {
anchors = (
{
name = bottom;
position = "{111, 0}";
},
{
name = center;
position = "{111, 375}";
},
{
name = top;
position = "{111, 750}";
},
{
name = topright;
position = "{197, 750}";
}
);
paths = (
{
closed = 1;
nodes = (
"85 0 LINE",
"137 0 LINE",
"137 734 LINE",
"85 734 LINE"
);
}
);
};
layerId = "39D19F74-97F3-4EB6-8D96-77117D45ABB1";
paths = (
{
closed = 1;
nodes = (
"45 0 LINE",
"177 0 LINE",
"177 734 LINE",
"45 734 LINE"
);
}
);
width = 222;
}
);
note = l;
unicode = 006C;
},
{
color = 6;
glyphname = m;
lastChange = "2018-05-17 04:25:08 +0000";
layers = (
{
anchors = (
{
name = bottom;
position = "{399, 0}";
},
{
name = top;
position = "{399, 470}";
}
);
layerId = "0B1DFD06-3317-40CA-B510-4969A0718C16";
paths = (
{
closed = 1;
nodes = (
"734 9 LINE",
"724 28 OFFCURVE",
"715 60 OFFCURVE",
"715 92 CURVE SMOOTH",
"715 314 LINE SMOOTH",
"715 421 OFFCURVE",
"674 495 OFFCURVE",
"556 495 CURVE SMOOTH",
"487 495 OFFCURVE",
"428 454 OFFCURVE",
"404 392 CURVE",
"383 457 OFFCURVE",
"338 495 OFFCURVE",
"270 495 CURVE SMOOTH",
"211 495 OFFCURVE",
"158 462 OFFCURVE",
"131 408 CURVE",
"128 462 OFFCURVE",
"112 485 OFFCURVE",
"106 497 CURVE",
"55 478 LINE",
"68 457 OFFCURVE",
"77 428 OFFCURVE",
"77 373 CURVE SMOOTH",
"77 0 LINE",
"129 0 LINE",
"129 274 LINE SMOOTH",
"129 363 OFFCURVE",
"176 448 OFFCURVE",
"265 448 CURVE SMOOTH",
"342 448 OFFCURVE",
"375 387 OFFCURVE",
"375 309 CURVE SMOOTH",
"375 0 LINE",
"426 0 LINE",
"426 298 LINE SMOOTH",
"426 377 OFFCURVE",
"468 448 OFFCURVE",
"556 448 CURVE SMOOTH",
"644 448 OFFCURVE",
"663 399 OFFCURVE",
"663 309 CURVE SMOOTH",
"663 92 LINE SMOOTH",
"663 46 OFFCURVE",
"675 14 OFFCURVE",
"687 -10 CURVE"
);
}
);
width = 789;
},
{
anchors = (
{
name = bottom;
position = "{402, 0}";
},
{
name = top;
position = "{402, 470}";
}
);
background = {
anchors = (
{
name = bottom;
position = "{419, 0}";
},
{
name = top;
position = "{419, 470}";
}
);
paths = (
{
closed = 1;
nodes = (
"683 46 OFFCURVE",
"695 14 OFFCURVE",
"707 -10 CURVE",
"754 9 LINE",
"744 28 OFFCURVE",
"735 60 OFFCURVE",
"735 92 CURVE SMOOTH",
"735 314 LINE SMOOTH",
"735 421 OFFCURVE",
"694 495 OFFCURVE",
"576 495 CURVE SMOOTH",
"507 495 OFFCURVE",
"448 454 OFFCURVE",
"424 392 CURVE",
"403 457 OFFCURVE",
"358 495 OFFCURVE",
"290 495 CURVE SMOOTH",
"231 495 OFFCURVE",
"178 462 OFFCURVE",
"151 408 CURVE",
"148 462 OFFCURVE",
"132 485 OFFCURVE",
"126 497 CURVE",
"75 478 LINE",
"88 457 OFFCURVE",
"97 428 OFFCURVE",
"97 373 CURVE SMOOTH",
"97 0 LINE",
"149 0 LINE",
"149 274 LINE SMOOTH",
"149 363 OFFCURVE",
"196 448 OFFCURVE",
"285 448 CURVE SMOOTH",
"362 448 OFFCURVE",
"395 387 OFFCURVE",
"395 309 CURVE SMOOTH",
"395 0 LINE",
"446 0 LINE",
"446 298 LINE SMOOTH",
"446 377 OFFCURVE",
"488 448 OFFCURVE",
"576 448 CURVE SMOOTH",
"664 448 OFFCURVE",
"683 399 OFFCURVE",
"683 309 CURVE SMOOTH",
"683 92 LINE SMOOTH"
);
}
);
};
layerId = "39D19F74-97F3-4EB6-8D96-77117D45ABB1";
paths = (
{
closed = 1;
nodes = (
"774 36 LINE",
"757 63 OFFCURVE",
"746 94 OFFCURVE",
"746 134 CURVE SMOOTH",
"746 321 LINE SMOOTH",
"746 421 OFFCURVE",
"687 495 OFFCURVE",
"575 495 CURVE SMOOTH",
"508 495 OFFCURVE",
"461 474 OFFCURVE",
"418 421 CURVE",
"396 464 OFFCURVE",
"360 495 OFFCURVE",
"301 495 CURVE SMOOTH",
"250 495 OFFCURVE",
"199 470 OFFCURVE",
"170 419 CURVE",
"169 441 OFFCURVE",
"157 475 OFFCURVE",
"145 495 CURVE",
"35 450 LINE",
"52 414 OFFCURVE",
"57 389 OFFCURVE",
"57 349 CURVE SMOOTH",
"57 0 LINE",
"189 0 LINE",
"189 266 LINE SMOOTH",
"189 346 OFFCURVE",
"213 388 OFFCURVE",
"272 388 CURVE SMOOTH",
"317 388 OFFCURVE",
"337 361 OFFCURVE",
"337 290 CURVE SMOOTH",
"337 0 LINE",
"467 0 LINE",
"467 289 LINE SMOOTH",
"467 353 OFFCURVE",
"493 388 OFFCURVE",
"546 388 CURVE SMOOTH",
"591 388 OFFCURVE",
"614 358 OFFCURVE",
"614 289 CURVE SMOOTH",
"614 134 LINE SMOOTH",
"614 80 OFFCURVE",
"630 32 OFFCURVE",
"658 -10 CURVE"
);
}
);
width = 809;
}
);
note = m;
unicode = 006D;
},
{
color = 6;
glyphname = n;
lastChange = "2018-05-17 04:25:53 +0000";
layers = (
{
anchors = (
{
name = bottom;
position = "{265, 0}";
},
{
name = top;
position = "{265, 470}";
}
);
layerId = "0B1DFD06-3317-40CA-B510-4969A0718C16";
paths = (
{
closed = 1;
nodes = (
"475 9 LINE",
"465 28 OFFCURVE",
"456 60 OFFCURVE",
"456 92 CURVE SMOOTH",
"457 306 LINE SMOOTH",
"458 428 OFFCURVE",
"399 495 OFFCURVE",
"290 495 CURVE SMOOTH",
"223 495 OFFCURVE",
"162 462 OFFCURVE",
"127 402 CURVE",
"122 446 OFFCURVE",
"111 479 OFFCURVE",
"102 495 CURVE",
"55 476 LINE",
"69 455 OFFCURVE",
"77 423 OFFCURVE",
"77 372 CURVE SMOOTH",
"77 0 LINE",
"129 0 LINE",
"129 273 LINE SMOOTH",
"129 361 OFFCURVE",
"189 448 OFFCURVE",
"282 448 CURVE SMOOTH",
"371 448 OFFCURVE",
"404 401 OFFCURVE",
"404 307 CURVE SMOOTH",
"404 92 LINE SMOOTH",
"404 46 OFFCURVE",
"416 14 OFFCURVE",
"428 -10 CURVE"
);
}
);
width = 530;
},
{
anchors = (
{
name = bottom;
position = "{292, 0}";
},
{
name = top;
position = "{292, 470}";
}
);
background = {
anchors = (
{
name = bottom;
position = "{282, 0}";
},
{
name = top;
position = "{282, 470}";
}
);
paths = (
{
closed = 1;
nodes = (
"94 0 LINE",
"146 0 LINE",
"146 273 LINE SMOOTH",
"146 361 OFFCURVE",
"206 448 OFFCURVE",
"299 448 CURVE SMOOTH",
"388 448 OFFCURVE",
"421 401 OFFCURVE",
"421 307 CURVE SMOOTH",
"421 92 LINE SMOOTH",
"421 46 OFFCURVE",
"433 14 OFFCURVE",
"445 -10 CURVE",
"492 9 LINE",
"482 28 OFFCURVE",
"473 60 OFFCURVE",
"473 92 CURVE SMOOTH",
"474 306 LINE SMOOTH",
"475 428 OFFCURVE",
"416 495 OFFCURVE",
"307 495 CURVE SMOOTH",
"240 495 OFFCURVE",
"179 462 OFFCURVE",
"144 402 CURVE",
"139 446 OFFCURVE",
"128 479 OFFCURVE",
"119 495 CURVE",
"72 476 LINE",
"86 455 OFFCURVE",
"94 423 OFFCURVE",
"94 372 CURVE SMOOTH"
);
}
);
};
layerId = "39D19F74-97F3-4EB6-8D96-77117D45ABB1";
paths = (
{
closed = 1;
nodes = (
"544 36 LINE",
"527 63 OFFCURVE",
"516 94 OFFCURVE",
"516 134 CURVE SMOOTH",
"516 287 LINE SMOOTH",
"516 416 OFFCURVE",
"467 495 OFFCURVE",
"339 495 CURVE SMOOTH",
"272 495 OFFCURVE",
"213 461 OFFCURVE",
"177 419 CURVE",
"176 441 OFFCURVE",
"164 475 OFFCURVE",
"152 495 CURVE",
"35 450 LINE",
"52 414 OFFCURVE",
"57 389 OFFCURVE",
"57 349 CURVE SMOOTH",
"57 0 LINE",
"189 0 LINE",
"189 250 LINE SMOOTH",
"189 329 OFFCURVE",
"232 388 OFFCURVE",
"300 388 CURVE SMOOTH",
"353 388 OFFCURVE",
"384 359 OFFCURVE",
"384 287 CURVE SMOOTH",
"384 134 LINE SMOOTH",
"384 80 OFFCURVE",
"400 32 OFFCURVE",
"428 -10 CURVE"
);
}
);
width = 579;
}
);
note = n;
unicode = 006E;
},
{
color = 6;
glyphname = o;
lastChange = "2018-05-17 04:24:37 +0000";
layers = (
{
anchors = (
{
name = bottom;
position = "{271, 0}";
},
{
name = center;
position = "{271, 235}";
},
{
name = ogonek;
position = "{488, 10}";
},
{
name = top;
position = "{271, 470}";
},
{
name = topright;
position = "{415, 370}";
}
);
layerId = "0B1DFD06-3317-40CA-B510-4969A0718C16";
paths = (
{
closed = 1;
nodes = (
"423 -9 OFFCURVE",
"487 111 OFFCURVE",
"487 243 CURVE SMOOTH",
"487 375 OFFCURVE",
"423 495 OFFCURVE",
"271 495 CURVE SMOOTH",
"119 495 OFFCURVE",
"55 375 OFFCURVE",
"55 243 CURVE SMOOTH",
"55 111 OFFCURVE",
"119 -9 OFFCURVE",
"271 -9 CURVE SMOOTH"
);
},
{
closed = 1;
nodes = (
"163 38 OFFCURVE",
"109 125 OFFCURVE",
"109 243 CURVE SMOOTH",
"109 361 OFFCURVE",
"163 448 OFFCURVE",
"271 448 CURVE SMOOTH",
"379 448 OFFCURVE",
"433 361 OFFCURVE",
"433 243 CURVE SMOOTH",
"433 125 OFFCURVE",
"379 38 OFFCURVE",
"271 38 CURVE SMOOTH"
);
}
);
width = 542;
},
{
anchors = (
{
name = bottom;
position = "{284, 0}";
},
{
name = center;
position = "{284, 235}";
},
{
name = ogonek;
position = "{299, 10}";
},
{
name = top;
position = "{284, 470}";
},
{
name = topright;
position = "{435, 370}";
}
);
background = {
anchors = (
{
name = bottom;
position = "{291, 0}";
},
{
name = center;
position = "{291, 235}";
},
{
name = ogonek;
position = "{508, 10}";
},
{
name = top;
position = "{291, 470}";
},
{
name = topright;
position = "{435, 370}";
}
);
paths = (
{
closed = 1;
nodes = (
"443 -9 OFFCURVE",
"507 111 OFFCURVE",
"507 243 CURVE SMOOTH",
"507 375 OFFCURVE",
"443 495 OFFCURVE",
"291 495 CURVE SMOOTH",
"139 495 OFFCURVE",
"75 375 OFFCURVE",
"75 243 CURVE SMOOTH",
"75 111 OFFCURVE",
"139 -9 OFFCURVE",
"291 -9 CURVE SMOOTH"
);
},
{
closed = 1;
nodes = (
"183 38 OFFCURVE",
"129 125 OFFCURVE",
"129 243 CURVE SMOOTH",
"129 361 OFFCURVE",
"183 448 OFFCURVE",
"291 448 CURVE SMOOTH",
"399 448 OFFCURVE",
"453 361 OFFCURVE",
"453 243 CURVE SMOOTH",
"453 125 OFFCURVE",
"399 38 OFFCURVE",
"291 38 CURVE SMOOTH"
);
}
);
};
layerId = "39D19F74-97F3-4EB6-8D96-77117D45ABB1";
paths = (
{
closed = 1;
nodes = (
"436 -11 OFFCURVE",
"533 90 OFFCURVE",
"533 242 CURVE SMOOTH",
"533 394 OFFCURVE",
"436 495 OFFCURVE",
"284 495 CURVE SMOOTH",
"132 495 OFFCURVE",
"35 394 OFFCURVE",
"35 242 CURVE SMOOTH",
"35 90 OFFCURVE",
"132 -11 OFFCURVE",
"284 -11 CURVE SMOOTH"
);
},
{
closed = 1;
nodes = (
"207 96 OFFCURVE",
"169 152 OFFCURVE",
"169 242 CURVE SMOOTH",
"169 332 OFFCURVE",
"207 388 OFFCURVE",
"284 388 CURVE SMOOTH",
"361 388 OFFCURVE",
"399 332 OFFCURVE",
"399 242 CURVE SMOOTH",
"399 152 OFFCURVE",
"361 96 OFFCURVE",
"284 96 CURVE SMOOTH"
);
}
);
width = 568;
}
);
note = o;
unicode = 006F;
},
{
color = 6;
glyphname = p;
lastChange = "2018-05-15 05:33:50 +0000";
layers = (
{
anchors = (
{
name = bottom;
position = "{282, 0}";
},
{
name = top;
position = "{282, 470}";
}
);
layerId = "0B1DFD06-3317-40CA-B510-4969A0718C16";
paths = (
{
closed = 1;
nodes = (
"130 -219 LINE",
"130 83 LINE",
"164 28 OFFCURVE",
"221 -10 OFFCURVE",
"294 -10 CURVE SMOOTH",
"447 -10 OFFCURVE",
"509 104 OFFCURVE",
"509 244 CURVE SMOOTH",
"509 381 OFFCURVE",
"441 495 OFFCURVE",
"298 495 CURVE SMOOTH",
"221 495 OFFCURVE",
"165 455 OFFCURVE",
"131 402 CURVE",
"131 447 OFFCURVE",
"116 485 OFFCURVE",
"104 496 CURVE",
"55 477 LINE",
"70 454 OFFCURVE",
"78 430 OFFCURVE",
"78 365 CURVE SMOOTH",
"78 -219 LINE"
);
},
{
closed = 1;
nodes = (
"190 37 OFFCURVE",
"130 129 OFFCURVE",
"130 214 CURVE SMOOTH",
"130 272 LINE SMOOTH",
"130 359 OFFCURVE",
"194 448 OFFCURVE",
"298 448 CURVE SMOOTH",
"413 448 OFFCURVE",
"455 344 OFFCURVE",
"455 244 CURVE SMOOTH",
"455 142 OFFCURVE",
"419 37 OFFCURVE",
"294 37 CURVE SMOOTH"
);
}
);
width = 564;
},
{
anchors = (
{
name = bottom;
position = "{282, 0}";
},
{
name = top;
position = "{282, 470}";
}
);
background = {
anchors = (
{
name = bottom;
position = "{282, 0}";
},
{
name = top;
position = "{282, 470}";
}
);
paths = (
{
closed = 1;
nodes = (
"130 -219 LINE",
"130 83 LINE",
"164 28 OFFCURVE",
"221 -10 OFFCURVE",
"294 -10 CURVE SMOOTH",
"447 -10 OFFCURVE",
"509 104 OFFCURVE",
"509 244 CURVE SMOOTH",
"509 381 OFFCURVE",
"441 495 OFFCURVE",
"298 495 CURVE SMOOTH",
"221 495 OFFCURVE",
"165 455 OFFCURVE",
"131 402 CURVE",
"131 447 OFFCURVE",
"116 485 OFFCURVE",
"104 496 CURVE",
"55 477 LINE",
"70 454 OFFCURVE",
"78 430 OFFCURVE",
"78 365 CURVE SMOOTH",
"78 -219 LINE"
);
},
{
closed = 1;
nodes = (
"190 37 OFFCURVE",
"130 129 OFFCURVE",
"130 214 CURVE SMOOTH",
"130 272 LINE SMOOTH",
"130 359 OFFCURVE",
"194 448 OFFCURVE",
"298 448 CURVE SMOOTH",
"413 448 OFFCURVE",
"455 344 OFFCURVE",
"455 244 CURVE SMOOTH",
"455 142 OFFCURVE",
"419 37 OFFCURVE",
"294 37 CURVE SMOOTH"
);
}
);
};
layerId = "39D19F74-97F3-4EB6-8D96-77117D45ABB1";
paths = (
{
closed = 1;
nodes = (
"192 -219 LINE",
"192 50 LINE",
"224 15 OFFCURVE",
"271 -8 OFFCURVE",
"329 -8 CURVE SMOOTH",
"462 -8 OFFCURVE",
"555 82 OFFCURVE",
"555 244 CURVE SMOOTH",
"555 405 OFFCURVE",
"463 497 OFFCURVE",
"337 497 CURVE SMOOTH",
"270 497 OFFCURVE",
"217 469 OFFCURVE",
"176 422 CURVE",
"173 451 OFFCURVE",
"162 476 OFFCURVE",
"142 498 CURVE",
"35 456 LINE",
"52 427 OFFCURVE",
"60 400 OFFCURVE",
"60 351 CURVE SMOOTH",
"60 -219 LINE"
);
},
{
closed = 1;
nodes = (
"227 97 OFFCURVE",
"190 164 OFFCURVE",
"190 236 CURVE SMOOTH",
"190 254 LINE SMOOTH",
"190 335 OFFCURVE",
"229 392 OFFCURVE",
"310 392 CURVE SMOOTH",
"383 392 OFFCURVE",
"423 339 OFFCURVE",
"423 244 CURVE SMOOTH",
"423 143 OFFCURVE",
"381 97 OFFCURVE",
"306 97 CURVE SMOOTH"
);
}
);
width = 590;
}
);
note = p;
unicode = 0070;
},
{
color = 6;
glyphname = q;
lastChange = "2018-05-15 05:33:53 +0000";
layers = (
{
anchors = (
{
name = bottom;
position = "{282, 0}";
},
{
name = top;
position = "{282, 470}";
}
);
layerId = "0B1DFD06-3317-40CA-B510-4969A0718C16";
paths = (
{
closed = 1;
nodes = (
"505 -213 LINE",
"491 -190 OFFCURVE",
"486 -164 OFFCURVE",
"486 -130 CURVE SMOOTH",
"486 365 LINE SMOOTH",
"486 430 OFFCURVE",
"494 454 OFFCURVE",
"509 477 CURVE",
"460 496 LINE",
"448 485 OFFCURVE",
"433 447 OFFCURVE",
"433 402 CURVE",
"399 455 OFFCURVE",
"343 495 OFFCURVE",
"266 495 CURVE SMOOTH",
"123 495 OFFCURVE",
"55 381 OFFCURVE",
"55 244 CURVE SMOOTH",
"55 104 OFFCURVE",
"117 -10 OFFCURVE",
"270 -10 CURVE SMOOTH",
"343 -10 OFFCURVE",
"400 28 OFFCURVE",
"434 83 CURVE",
"434 -130 LINE SMOOTH",
"434 -173 OFFCURVE",
"441 -205 OFFCURVE",
"458 -232 CURVE"
);
},
{
closed = 1;
nodes = (
"145 37 OFFCURVE",
"109 142 OFFCURVE",
"109 244 CURVE SMOOTH",
"109 344 OFFCURVE",
"151 448 OFFCURVE",
"266 448 CURVE SMOOTH",
"370 448 OFFCURVE",
"434 359 OFFCURVE",
"434 272 CURVE SMOOTH",
"434 214 LINE SMOOTH",
"434 129 OFFCURVE",
"374 37 OFFCURVE",
"270 37 CURVE SMOOTH"
);
}
);
width = 564;
},
{
anchors = (
{
name = bottom;
position = "{276, 0}";
},
{
name = top;
position = "{276, 470}";
}
);
background = {
anchors = (
{
name = bottom;
position = "{276, 0}";
},
{
name = top;
position = "{276, 470}";
}
);
paths = (
{
closed = 1;
nodes = (
"499 -213 LINE",
"485 -190 OFFCURVE",
"480 -164 OFFCURVE",
"480 -130 CURVE SMOOTH",
"480 365 LINE SMOOTH",
"480 430 OFFCURVE",
"488 454 OFFCURVE",
"503 477 CURVE",
"454 496 LINE",
"442 485 OFFCURVE",
"427 447 OFFCURVE",
"427 402 CURVE",
"393 455 OFFCURVE",
"337 495 OFFCURVE",
"260 495 CURVE SMOOTH",
"117 495 OFFCURVE",
"49 381 OFFCURVE",
"49 244 CURVE SMOOTH",
"49 104 OFFCURVE",
"111 -10 OFFCURVE",
"264 -10 CURVE SMOOTH",
"337 -10 OFFCURVE",
"394 28 OFFCURVE",
"428 83 CURVE",
"428 -130 LINE SMOOTH",
"428 -173 OFFCURVE",
"435 -205 OFFCURVE",
"452 -232 CURVE"
);
},
{
closed = 1;
nodes = (
"139 37 OFFCURVE",
"103 142 OFFCURVE",
"103 244 CURVE SMOOTH",
"103 344 OFFCURVE",
"145 448 OFFCURVE",
"260 448 CURVE SMOOTH",
"364 448 OFFCURVE",
"428 359 OFFCURVE",
"428 272 CURVE SMOOTH",
"428 214 LINE SMOOTH",
"428 129 OFFCURVE",
"368 37 OFFCURVE",
"264 37 CURVE SMOOTH"
);
}
);
};
layerId = "39D19F74-97F3-4EB6-8D96-77117D45ABB1";
paths = (
{
closed = 1;
nodes = (
"558 -186 LINE",
"541 -159 OFFCURVE",
"530 -128 OFFCURVE",
"530 -88 CURVE SMOOTH",
"530 351 LINE SMOOTH",
"530 400 OFFCURVE",
"538 427 OFFCURVE",
"555 456 CURVE",
"448 498 LINE",
"428 476 OFFCURVE",
"417 451 OFFCURVE",
"414 422 CURVE",
"373 469 OFFCURVE",
"320 497 OFFCURVE",
"253 497 CURVE SMOOTH",
"127 497 OFFCURVE",
"35 405 OFFCURVE",
"35 244 CURVE SMOOTH",
"35 82 OFFCURVE",
"128 -8 OFFCURVE",
"261 -8 CURVE SMOOTH",
"319 -8 OFFCURVE",
"366 15 OFFCURVE",
"398 50 CURVE",
"398 -88 LINE SMOOTH",
"398 -142 OFFCURVE",
"414 -190 OFFCURVE",
"442 -232 CURVE"
);
},
{
closed = 1;
nodes = (
"209 97 OFFCURVE",
"167 143 OFFCURVE",
"167 244 CURVE SMOOTH",
"167 339 OFFCURVE",
"207 392 OFFCURVE",
"280 392 CURVE SMOOTH",
"361 392 OFFCURVE",
"400 335 OFFCURVE",
"400 254 CURVE SMOOTH",
"400 236 LINE SMOOTH",
"400 164 OFFCURVE",
"363 97 OFFCURVE",
"284 97 CURVE SMOOTH"
);
}
);
width = 593;
}
);
note = q;
unicode = 0071;
},
{
color = 6;
glyphname = r;
lastChange = "2018-05-17 04:29:28 +0000";
layers = (
{
anchors = (
{
name = bottom;
position = "{104, 0}";
},
{
name = top;
position = "{187, 470}";
}
);
layerId = "0B1DFD06-3317-40CA-B510-4969A0718C16";
paths = (
{
closed = 1;
nodes = (
"283 448 OFFCURVE",
"302 443 OFFCURVE",
"315 436 CURVE",
"338 477 LINE",
"312 489 OFFCURVE",
"294 495 OFFCURVE",
"266 495 CURVE SMOOTH",
"199 495 OFFCURVE",
"157 462 OFFCURVE",
"127 402 CURVE",
"122 446 OFFCURVE",
"111 479 OFFCURVE",
"102 495 CURVE",
"55 476 LINE",
"69 455 OFFCURVE",
"77 423 OFFCURVE",
"77 372 CURVE SMOOTH",
"77 0 LINE",
"129 0 LINE",
"129 273 LINE SMOOTH",
"129 361 OFFCURVE",
"174 448 OFFCURVE",
"261 448 CURVE"
);
}
);
width = 373;
},
{
anchors = (
{
name = bottom;
position = "{124, 0}";
},
{
name = top;
position = "{187, 470}";
}
);
background = {
anchors = (
{
name = bottom;
position = "{104, 0}";
},
{
name = top;
position = "{187, 470}";
}
);
paths = (
{
closed = 1;
nodes = (
"283 448 OFFCURVE",
"302 443 OFFCURVE",
"315 436 CURVE",
"338 477 LINE",
"312 489 OFFCURVE",
"294 495 OFFCURVE",
"266 495 CURVE SMOOTH",
"199 495 OFFCURVE",
"157 462 OFFCURVE",
"127 402 CURVE",
"122 446 OFFCURVE",
"111 479 OFFCURVE",
"102 495 CURVE",
"55 476 LINE",
"69 455 OFFCURVE",
"77 423 OFFCURVE",
"77 372 CURVE SMOOTH",
"77 0 LINE",
"129 0 LINE",
"129 273 LINE SMOOTH",
"129 361 OFFCURVE",
"174 448 OFFCURVE",
"261 448 CURVE"
);
}
);
};
layerId = "39D19F74-97F3-4EB6-8D96-77117D45ABB1";
paths = (
{
closed = 1;
nodes = (
"312 388 OFFCURVE",
"329 383 OFFCURVE",
"352 369 CURVE",
"401 460 LINE",
"367 486 OFFCURVE",
"340 495 OFFCURVE",
"301 495 CURVE SMOOTH",
"248 495 OFFCURVE",
"211 468 OFFCURVE",
"177 419 CURVE",
"176 441 OFFCURVE",
"164 475 OFFCURVE",
"152 495 CURVE",
"35 450 LINE",
"52 414 OFFCURVE",
"57 389 OFFCURVE",
"57 349 CURVE SMOOTH",
"57 0 LINE",
"189 0 LINE",
"189 259 LINE SMOOTH",
"189 346 OFFCURVE",
"221 388 OFFCURVE",
"290 388 CURVE SMOOTH"
);
}
);
width = 416;
}
);
note = r;
unicode = 0072;
},
{
color = 6;
glyphname = s;
lastChange = "2018-05-15 05:27:18 +0000";
layers = (
{
anchors = (
{
name = bottom;
position = "{239, 0}";
},
{
name = top;
position = "{239, 470}";
}
);
layerId = "0B1DFD06-3317-40CA-B510-4969A0718C16";
paths = (
{
closed = 1;
nodes = (
"422 191 OFFCURVE",
"375 214 OFFCURVE",
"258 262 CURVE SMOOTH",
"176 296 OFFCURVE",
"122 309 OFFCURVE",
"122 370 CURVE SMOOTH",
"122 417 OFFCURVE",
"160 449 OFFCURVE",
"236 449 CURVE SMOOTH",
"289 449 OFFCURVE",
"329 434 OFFCURVE",
"366 406 CURVE",
"389 449 LINE",
"360 470 OFFCURVE",
"307 495 OFFCURVE",
"237 495 CURVE SMOOTH",
"126 495 OFFCURVE",
"69 442 OFFCURVE",
"69 370 CURVE SMOOTH",
"69 290 OFFCURVE",
"126 259 OFFCURVE",
"234 220 CURVE SMOOTH",
"347 179 OFFCURVE",
"369 162 OFFCURVE",
"369 111 CURVE SMOOTH",
"369 59 OFFCURVE",
"325 36 OFFCURVE",
"250 36 CURVE SMOOTH",
"190 36 OFFCURVE",
"126 58 OFFCURVE",
"90 96 CURVE",
"55 58 LINE",
"96 17 OFFCURVE",
"159 -10 OFFCURVE",
"249 -10 CURVE SMOOTH",
"359 -10 OFFCURVE",
"422 34 OFFCURVE",
"422 112 CURVE SMOOTH"
);
}
);
width = 477;
},
{
anchors = (
{
name = bottom;
position = "{258, 0}";
},
{
name = top;
position = "{258, 470}";
}
);
background = {
anchors = (
{
name = bottom;
position = "{258, 0}";
},
{
name = top;
position = "{258, 470}";
}
);
paths = (
{
closed = 1;
nodes = (
"441 191 OFFCURVE",
"394 214 OFFCURVE",
"277 262 CURVE SMOOTH",
"195 296 OFFCURVE",
"141 309 OFFCURVE",
"141 370 CURVE SMOOTH",
"141 417 OFFCURVE",
"179 449 OFFCURVE",
"255 449 CURVE SMOOTH",
"308 449 OFFCURVE",
"348 434 OFFCURVE",
"385 406 CURVE",
"408 449 LINE",
"379 470 OFFCURVE",
"326 495 OFFCURVE",
"256 495 CURVE SMOOTH",
"145 495 OFFCURVE",
"88 442 OFFCURVE",
"88 370 CURVE SMOOTH",
"88 290 OFFCURVE",
"145 259 OFFCURVE",
"253 220 CURVE SMOOTH",
"366 179 OFFCURVE",
"388 162 OFFCURVE",
"388 111 CURVE SMOOTH",
"388 59 OFFCURVE",
"344 36 OFFCURVE",
"269 36 CURVE SMOOTH",
"209 36 OFFCURVE",
"145 58 OFFCURVE",
"109 96 CURVE",
"74 58 LINE",
"115 17 OFFCURVE",
"178 -10 OFFCURVE",
"268 -10 CURVE SMOOTH",
"378 -10 OFFCURVE",
"441 34 OFFCURVE",
"441 112 CURVE SMOOTH"
);
}
);
};
layerId = "39D19F74-97F3-4EB6-8D96-77117D45ABB1";
paths = (
{
closed = 1;
nodes = (
"473 216 OFFCURVE",
"423 257 OFFCURVE",
"292 297 CURVE SMOOTH",
"209 322 OFFCURVE",
"190 333 OFFCURVE",
"190 358 CURVE SMOOTH",
"190 378 OFFCURVE",
"210 391 OFFCURVE",
"255 391 CURVE SMOOTH",
"303 391 OFFCURVE",
"344 381 OFFCURVE",
"402 349 CURVE",
"447 435 LINE",
"393 473 OFFCURVE",
"329 495 OFFCURVE",
"256 495 CURVE SMOOTH",
"131 495 OFFCURVE",
"58 445 OFFCURVE",
"58 358 CURVE SMOOTH",
"58 279 OFFCURVE",
"107 236 OFFCURVE",
"239 195 CURVE SMOOTH",
"331 166 OFFCURVE",
"341 154 OFFCURVE",
"341 130 CURVE SMOOTH",
"341 108 OFFCURVE",
"320 94 OFFCURVE",
"278 94 CURVE SMOOTH",
"213 94 OFFCURVE",
"154 120 OFFCURVE",
"109 168 CURVE",
"35 89 LINE",
"97 26 OFFCURVE",
"182 -10 OFFCURVE",
"278 -10 CURVE SMOOTH",
"402 -10 OFFCURVE",
"473 46 OFFCURVE",
"473 127 CURVE SMOOTH"
);
}
);
width = 508;
}
);
note = s;
unicode = 0073;
},
{
color = 6;
glyphname = t;
lastChange = "2018-05-31 04:05:27 +0000";
layers = (
{
anchors = (
{
name = bottom;
position = "{221, 0}";
},
{
name = center;
position = "{177, 235}";
},
{
name = top;
position = "{177, 603}";
},
{
name = topright;
position = "{333, 470}";
}
);
layerId = "0B1DFD06-3317-40CA-B510-4969A0718C16";
paths = (
{
closed = 1;
nodes = (
"192 36 OFFCURVE",
"179 56 OFFCURVE",
"179 113 CURVE SMOOTH",
"179 439 LINE",
"288 439 LINE",
"299 485 LINE",
"178 485 LINE",
"178 645 LINE",
"128 622 LINE",
"128 485 LINE",
"57 485 LINE",
"45 439 LINE",
"127 439 LINE",
"127 112 LINE SMOOTH",
"127 37 OFFCURVE",
"157 -9 OFFCURVE",
"236 -9 CURVE SMOOTH",
"265 -9 OFFCURVE",
"300 0 OFFCURVE",
"318 8 CURVE",
"304 49 LINE",
"290 42 OFFCURVE",
"266 36 OFFCURVE",
"241 36 CURVE SMOOTH"
);
}
);
width = 363;
},
{
anchors = (
{
name = bottom;
position = "{248, 0}";
},
{
name = center;
position = "{204, 235}";
},
{
name = top;
position = "{204, 603}";
},
{
name = topright;
position = "{360, 470}";
}
);
background = {
anchors = (
{
name = bottom;
position = "{248, 0}";
},
{
name = center;
position = "{204, 235}";
},
{
name = top;
position = "{204, 603}";
},
{
name = topright;
position = "{360, 470}";
}
);
paths = (
{
closed = 1;
nodes = (
"219 36 OFFCURVE",
"206 56 OFFCURVE",
"206 113 CURVE SMOOTH",
"206 439 LINE",
"315 439 LINE",
"326 485 LINE",
"205 485 LINE",
"205 645 LINE",
"155 622 LINE",
"155 485 LINE",
"84 485 LINE",
"72 439 LINE",
"154 439 LINE",
"154 112 LINE SMOOTH",
"154 37 OFFCURVE",
"184 -9 OFFCURVE",
"263 -9 CURVE SMOOTH",
"292 -9 OFFCURVE",
"327 0 OFFCURVE",
"345 8 CURVE",
"331 49 LINE",
"317 42 OFFCURVE",
"293 36 OFFCURVE",
"268 36 CURVE SMOOTH"
);
}
);
};
layerId = "39D19F74-97F3-4EB6-8D96-77117D45ABB1";
paths = (
{
closed = 1;
nodes = (
"260 96 OFFCURVE",
"246 107 OFFCURVE",
"246 139 CURVE SMOOTH",
"246 379 LINE",
"348 379 LINE",
"374 485 LINE",
"244 485 LINE",
"244 645 LINE",
"116 586 LINE",
"116 485 LINE",
"53 485 LINE",
"25 379 LINE",
"114 379 LINE",
"114 142 LINE SMOOTH",
"114 44 OFFCURVE",
"166 -9 OFFCURVE",
"260 -9 CURVE SMOOTH",
"297 -9 OFFCURVE",
"342 1 OFFCURVE",
"363 11 CURVE",
"332 106 LINE",
"318 99 OFFCURVE",
"305 96 OFFCURVE",
"287 96 CURVE SMOOTH"
);
}
);
width = 399;
}
);
note = t;
unicode = 0074;
},
{
color = 6;
glyphname = u;
lastChange = "2018-05-17 05:23:52 +0000";
layers = (
{
anchors = (
{
name = bottom;
position = "{265, 0}";
},
{
name = ogonek;
position = "{438, 10}";
},
{
name = top;
position = "{265, 470}";
},
{
name = topright;
position = "{451, 369}";
}
);
layerId = "0B1DFD06-3317-40CA-B510-4969A0718C16";
paths = (
{
closed = 1;
nodes = (
"316 -10 OFFCURVE",
"368 23 OFFCURVE",
"403 83 CURVE",
"408 39 OFFCURVE",
"419 6 OFFCURVE",
"428 -10 CURVE",
"475 9 LINE",
"461 30 OFFCURVE",
"453 62 OFFCURVE",
"453 113 CURVE SMOOTH",
"453 485 LINE",
"401 485 LINE",
"401 212 LINE SMOOTH",
"401 124 OFFCURVE",
"349 37 OFFCURVE",
"255 37 CURVE SMOOTH",
"166 37 OFFCURVE",
"128 81 OFFCURVE",
"128 178 CURVE SMOOTH",
"128 485 LINE",
"76 485 LINE",
"75 177 LINE SMOOTH",
"75 55 OFFCURVE",
"137 -10 OFFCURVE",
"250 -10 CURVE SMOOTH"
);
}
);
width = 530;
},
{
anchors = (
{
name = bottom;
position = "{282, 0}";
},
{
name = ogonek;
position = "{455, 10}";
},
{
name = top;
position = "{282, 470}";
},
{
name = topright;
position = "{499, 369}";
}
);
background = {
anchors = (
{
name = bottom;
position = "{282, 0}";
},
{
name = ogonek;
position = "{455, 10}";
},
{
name = top;
position = "{282, 470}";
},
{
name = topright;
position = "{468, 369}";
}
);
paths = (
{
closed = 1;
nodes = (
"470 485 LINE",
"418 485 LINE",
"418 212 LINE SMOOTH",
"418 124 OFFCURVE",
"366 37 OFFCURVE",
"272 37 CURVE SMOOTH",
"183 37 OFFCURVE",
"145 81 OFFCURVE",
"145 178 CURVE SMOOTH",
"145 485 LINE",
"93 485 LINE",
"92 177 LINE SMOOTH",
"92 55 OFFCURVE",
"154 -10 OFFCURVE",
"267 -10 CURVE SMOOTH",
"333 -10 OFFCURVE",
"385 23 OFFCURVE",
"420 83 CURVE",
"425 39 OFFCURVE",
"436 6 OFFCURVE",
"445 -10 CURVE",
"492 9 LINE",
"478 30 OFFCURVE",
"470 62 OFFCURVE",
"470 113 CURVE SMOOTH"
);
}
);
};
layerId = "39D19F74-97F3-4EB6-8D96-77117D45ABB1";
paths = (
{
closed = 1;
nodes = (
"302 -10 OFFCURVE",
"349 20 OFFCURVE",
"379 66 CURVE",
"380 44 OFFCURVE",
"392 10 OFFCURVE",
"404 -10 CURVE",
"521 35 LINE",
"504 71 OFFCURVE",
"499 96 OFFCURVE",
"499 136 CURVE SMOOTH",
"499 485 LINE",
"367 485 LINE",
"367 219 LINE SMOOTH",
"367 150 OFFCURVE",
"336 97 OFFCURVE",
"267 97 CURVE SMOOTH",
"203 97 OFFCURVE",
"172 130 OFFCURVE",
"172 198 CURVE SMOOTH",
"172 485 LINE",
"40 485 LINE",
"40 198 LINE SMOOTH",
"40 71 OFFCURVE",
"119 -10 OFFCURVE",
"231 -10 CURVE SMOOTH"
);
}
);
width = 556;
}
);
note = u;
unicode = 0075;
},
{
color = 6;
glyphname = v;
lastChange = "2018-05-15 04:11:13 +0000";
layers = (
{
anchors = (
{
name = bottom;
position = "{264, 0}";
},
{
name = top;
position = "{264, 470}";
}
);
layerId = "0B1DFD06-3317-40CA-B510-4969A0718C16";
paths = (
{
closed = 1;
nodes = (
"264 75 LINE",
"110 485 LINE",
"55 485 LINE",
"233 28 LINE",
"231 21 LINE SMOOTH",
"226 4 OFFCURVE",
"238 -10 OFFCURVE",
"260 -10 CURVE SMOOTH",
"276 -10 OFFCURVE",
"282 -3 OFFCURVE",
"287 9 CURVE SMOOTH",
"472 485 LINE",
"417 485 LINE"
);
}
);
width = 527;
},
{
anchors = (
{
name = bottom;
position = "{287, 0}";
},
{
name = top;
position = "{287, 470}";
}
);
background = {
anchors = (
{
name = bottom;
position = "{287, 0}";
},
{
name = top;
position = "{287, 470}";
}
);
paths = (
{
closed = 1;
nodes = (
"287 75 LINE",
"133 485 LINE",
"78 485 LINE",
"256 28 LINE",
"254 21 LINE SMOOTH",
"249 4 OFFCURVE",
"261 -10 OFFCURVE",
"283 -10 CURVE SMOOTH",
"299 -10 OFFCURVE",
"305 -3 OFFCURVE",
"310 9 CURVE SMOOTH",
"495 485 LINE",
"440 485 LINE"
);
}
);
};
layerId = "39D19F74-97F3-4EB6-8D96-77117D45ABB1";
paths = (
{
closed = 1;
nodes = (
"287 174 LINE",
"173 485 LINE",
"35 485 LINE",
"215 57 LINE",
"213 51 LINE SMOOTH",
"202 18 OFFCURVE",
"229 -10 OFFCURVE",
"273 -10 CURVE SMOOTH",
"318 -10 OFFCURVE",
"337 3 OFFCURVE",
"347 27 CURVE SMOOTH",
"538 485 LINE",
"400 485 LINE"
);
}
);
width = 573;
}
);
note = v;
unicode = 0076;
},
{
color = 6;
glyphname = w;
lastChange = "2018-05-15 05:32:21 +0000";
layers = (
{
anchors = (
{
name = bottom;
position = "{356, 0}";
},
{
name = top;
position = "{356, 470}";
}
);
guideLines = (
{
position = "{199, 485}";
}
);
layerId = "0B1DFD06-3317-40CA-B510-4969A0718C16";
paths = (
{
closed = 1;
nodes = (
"227 -10 OFFCURVE",
"236 -4 OFFCURVE",
"241 12 CURVE SMOOTH",
"356 403 LINE",
"471 12 LINE SMOOTH",
"476 -4 OFFCURVE",
"485 -10 OFFCURVE",
"504 -10 CURVE SMOOTH",
"523 -10 OFFCURVE",
"536 3 OFFCURVE",
"532 18 CURVE SMOOTH",
"529 30 LINE",
"657 485 LINE",
"601 485 LINE",
"497 69 LINE",
"387 443 LINE",
"391 462 LINE SMOOTH",
"395 479 OFFCURVE",
"387 495 OFFCURVE",
"361 495 CURVE SMOOTH",
"346 495 OFFCURVE",
"340 490 OFFCURVE",
"338 482 CURVE SMOOTH",
"215 69 LINE",
"111 485 LINE",
"55 485 LINE",
"183 30 LINE",
"180 18 LINE SMOOTH",
"176 3 OFFCURVE",
"189 -10 OFFCURVE",
"208 -10 CURVE SMOOTH"
);
}
);
width = 712;
},
{
anchors = (
{
name = bottom;
position = "{359, 0}";
},
{
name = top;
position = "{359, 470}";
}
);
background = {
anchors = (
{
name = bottom;
position = "{359, 0}";
},
{
name = top;
position = "{359, 470}";
}
);
paths = (
{
closed = 1;
nodes = (
"479 -4 OFFCURVE",
"488 -10 OFFCURVE",
"507 -10 CURVE SMOOTH",
"526 -10 OFFCURVE",
"539 3 OFFCURVE",
"535 18 CURVE SMOOTH",
"532 30 LINE",
"660 485 LINE",
"604 485 LINE",
"500 69 LINE",
"390 443 LINE",
"394 462 LINE SMOOTH",
"398 479 OFFCURVE",
"390 495 OFFCURVE",
"364 495 CURVE SMOOTH",
"349 495 OFFCURVE",
"343 490 OFFCURVE",
"341 482 CURVE SMOOTH",
"218 69 LINE",
"114 485 LINE",
"58 485 LINE",
"186 30 LINE",
"183 18 LINE SMOOTH",
"179 3 OFFCURVE",
"192 -10 OFFCURVE",
"211 -10 CURVE SMOOTH",
"230 -10 OFFCURVE",
"239 -4 OFFCURVE",
"244 12 CURVE SMOOTH",
"359 403 LINE",
"474 12 LINE SMOOTH"
);
}
);
};
guideLines = (
{
position = "{202, 485}";
}
);
layerId = "39D19F74-97F3-4EB6-8D96-77117D45ABB1";
paths = (
{
closed = 1;
nodes = (
"261 -10 OFFCURVE",
"278 6 OFFCURVE",
"286 34 CURVE SMOOTH",
"361 298 LINE",
"436 34 LINE SMOOTH",
"444 6 OFFCURVE",
"461 -10 OFFCURVE",
"506 -10 CURVE SMOOTH",
"554 -10 OFFCURVE",
"574 15 OFFCURVE",
"567 54 CURVE SMOOTH",
"566 60 LINE",
"687 485 LINE",
"551 485 LINE",
"490 198 LINE",
"429 414 LINE",
"433 436 LINE SMOOTH",
"439 471 OFFCURVE",
"428 495 OFFCURVE",
"370 495 CURVE SMOOTH",
"334 495 OFFCURVE",
"316 485 OFFCURVE",
"310 464 CURVE SMOOTH",
"233 198 LINE",
"171 485 LINE",
"35 485 LINE",
"156 60 LINE",
"155 54 LINE SMOOTH",
"148 15 OFFCURVE",
"168 -10 OFFCURVE",
"216 -10 CURVE SMOOTH"
);
}
);
width = 722;
}
);
note = w;
unicode = 0077;
},
{
color = 6;
glyphname = x;
lastChange = "2018-05-15 05:27:58 +0000";
layers = (
{
anchors = (
{
name = bottom;
position = "{246, 0}";
},
{
name = top;
position = "{246, 470}";
}
);
layerId = "0B1DFD06-3317-40CA-B510-4969A0718C16";
paths = (
{
closed = 1;
nodes = (
"376 0 LINE",
"437 0 LINE",
"276 251 LINE",
"437 485 LINE",
"378 485 LINE",
"246 285 LINE",
"114 485 LINE",
"55 485 LINE",
"216 251 LINE",
"55 0 LINE",
"116 0 LINE",
"246 216 LINE"
);
}
);
width = 492;
},
{
anchors = (
{
name = bottom;
position = "{276, 0}";
},
{
name = top;
position = "{276, 470}";
}
);
background = {
anchors = (
{
name = bottom;
position = "{276, 0}";
},
{
name = top;
position = "{276, 470}";
}
);
paths = (
{
closed = 1;
nodes = (
"406 0 LINE",
"467 0 LINE",
"306 251 LINE",
"467 485 LINE",
"408 485 LINE",
"276 285 LINE",
"144 485 LINE",
"85 485 LINE",
"246 251 LINE",
"85 0 LINE",
"146 0 LINE",
"276 216 LINE"
);
}
);
};
layerId = "39D19F74-97F3-4EB6-8D96-77117D45ABB1";
paths = (
{
closed = 1;
nodes = (
"367 0 LINE",
"517 0 LINE",
"363 251 LINE",
"517 485 LINE",
"369 485 LINE",
"276 331 LINE",
"183 485 LINE",
"35 485 LINE",
"189 251 LINE",
"35 0 LINE",
"185 0 LINE",
"276 165 LINE"
);
}
);
width = 552;
}
);
note = x;
unicode = 0078;
},
{
color = 6;
glyphname = y;
lastChange = "2018-05-17 04:25:28 +0000";
layers = (
{
anchors = (
{
name = bottom;
position = "{385, 0}";
},
{
name = top;
position = "{281, 470}";
}
);
layerId = "0B1DFD06-3317-40CA-B510-4969A0718C16";
paths = (
{
closed = 1;
nodes = (
"506 485 LINE",
"447 485 LINE",
"287 65 LINE",
"114 485 LINE",
"55 485 LINE",
"258 15 LINE",
"239 -79 OFFCURVE",
"183 -151 OFFCURVE",
"98 -185 CURVE",
"114 -230 LINE",
"207 -191 OFFCURVE",
"262 -129 OFFCURVE",
"305 -21 CURVE SMOOTH"
);
}
);
width = 561;
},
{
anchors = (
{
name = bottom;
position = "{420, 0}";
},
{
name = top;
position = "{296, 470}";
}
);
background = {
anchors = (
{
name = bottom;
position = "{400, 0}";
},
{
name = top;
position = "{296, 470}";
}
);
paths = (
{
closed = 1;
nodes = (
"521 485 LINE",
"462 485 LINE",
"302 65 LINE",
"129 485 LINE",
"70 485 LINE",
"273 15 LINE",
"254 -79 OFFCURVE",
"198 -151 OFFCURVE",
"113 -185 CURVE",
"129 -230 LINE",
"222 -191 OFFCURVE",
"277 -129 OFFCURVE",
"320 -21 CURVE SMOOTH"
);
}
);
};
layerId = "39D19F74-97F3-4EB6-8D96-77117D45ABB1";
paths = (
{
closed = 1;
nodes = (
"554 485 LINE",
"402 485 LINE",
"300 187 LINE",
"188 485 LINE",
"35 485 LINE",
"232 43 LINE",
"210 -53 OFFCURVE",
"153 -95 OFFCURVE",
"69 -123 CURVE",
"107 -229 LINE",
"241 -186 OFFCURVE",
"307 -125 OFFCURVE",
"357 -2 CURVE SMOOTH"
);
}
);
width = 589;
}
);
note = y;
unicode = 0079;
},
{
color = 6;
glyphname = z;
lastChange = "2018-05-15 05:12:10 +0000";
layers = (
{
anchors = (
{
name = bottom;
position = "{262, 0}";
},
{
name = top;
position = "{262, 470}";
}
);
guideLines = (
{
position = "{149, 485}";
}
);
layerId = "0B1DFD06-3317-40CA-B510-4969A0718C16";
paths = (
{
closed = 1;
nodes = (
"427 486 OFFCURVE",
"417 485 OFFCURVE",
"407 485 CURVE SMOOTH",
"81 485 LINE",
"81 439 LINE",
"393 439 LINE",
"91 65 LINE SMOOTH",
"85 57 OFFCURVE",
"80 52 OFFCURVE",
"71 46 CURVE SMOOTH",
"56 36 OFFCURVE",
"51 30 OFFCURVE",
"57 18 CURVE SMOOTH",
"70 -7 OFFCURVE",
"81 -15 OFFCURVE",
"93 -7 CURVE SMOOTH",
"100 -2 OFFCURVE",
"109 0 OFFCURVE",
"122 0 CURVE SMOOTH",
"465 0 LINE",
"465 46 LINE",
"135 46 LINE",
"460 448 LINE SMOOTH",
"472 462 OFFCURVE",
"472 471 OFFCURVE",
"462 481 CURVE SMOOTH",
"449 495 OFFCURVE",
"438 497 OFFCURVE",
"432 491 CURVE SMOOTH"
);
}
);
width = 524;
},
{
anchors = (
{
name = bottom;
position = "{281, 0}";
},
{
name = top;
position = "{281, 470}";
}
);
background = {
anchors = (
{
name = bottom;
position = "{281, 0}";
},
{
name = top;
position = "{281, 470}";
}
);
paths = (
{
closed = 1;
nodes = (
"446 486 OFFCURVE",
"436 485 OFFCURVE",
"426 485 CURVE SMOOTH",
"100 485 LINE",
"100 439 LINE",
"412 439 LINE",
"110 65 LINE SMOOTH",
"104 57 OFFCURVE",
"99 52 OFFCURVE",
"90 46 CURVE SMOOTH",
"75 36 OFFCURVE",
"70 30 OFFCURVE",
"76 18 CURVE SMOOTH",
"89 -7 OFFCURVE",
"100 -15 OFFCURVE",
"112 -7 CURVE SMOOTH",
"119 -2 OFFCURVE",
"128 0 OFFCURVE",
"141 0 CURVE SMOOTH",
"484 0 LINE",
"484 46 LINE",
"154 46 LINE",
"479 448 LINE SMOOTH",
"491 462 OFFCURVE",
"491 471 OFFCURVE",
"481 481 CURVE SMOOTH",
"468 495 OFFCURVE",
"457 497 OFFCURVE",
"451 491 CURVE SMOOTH"
);
}
);
};
guideLines = (
{
position = "{168, 485}";
}
);
layerId = "39D19F74-97F3-4EB6-8D96-77117D45ABB1";
paths = (
{
closed = 1;
nodes = (
"418 486 OFFCURVE",
"405 485 OFFCURVE",
"395 485 CURVE SMOOTH",
"60 485 LINE",
"60 379 LINE",
"326 379 LINE",
"70 103 LINE SMOOTH",
"65 97 OFFCURVE",
"62 94 OFFCURVE",
"55 90 CURVE SMOOTH",
"38 78 OFFCURVE",
"28 61 OFFCURVE",
"41 36 CURVE SMOOTH",
"67 -12 OFFCURVE",
"103 -16 OFFCURVE",
"120 -6 CURVE SMOOTH",
"129 -1 OFFCURVE",
"139 0 OFFCURVE",
"151 0 CURVE SMOOTH",
"507 0 LINE",
"507 106 LINE",
"223 106 LINE",
"494 398 LINE SMOOTH",
"517 423 OFFCURVE",
"513 444 OFFCURVE",
"494 468 CURVE SMOOTH",
"470 498 OFFCURVE",
"437 499 OFFCURVE",
"424 490 CURVE SMOOTH"
);
}
);
width = 545;
}
);
note = z;
unicode = 007A;
},
{
color = 6;
glyphname = AE;
lastChange = "2018-05-17 09:29:16 +0000";
layers = (
{
anchors = (
{
name = bottom;
position = "{380, 0}";
},
{
name = ogonek;
position = "{640, 10}";
},
{
name = top;
position = "{454, 700}";
},
{
name = topleft;
position = "{725, 700}";
}
);
layerId = "0B1DFD06-3317-40CA-B510-4969A0718C16";
paths = (
{
closed = 1;
nodes = (
"55 0 LINE",
"112 0 LINE",
"200 195 LINE",
"392 195 LINE",
"392 0 LINE",
"745 0 LINE",
"745 46 LINE",
"445 46 LINE",
"445 344 LINE",
"652 344 LINE",
"652 390 LINE",
"445 390 LINE",
"445 654 LINE",
"736 654 LINE",
"736 700 LINE",
"369 700 LINE"
);
},
{
closed = 1;
nodes = (
"392 625 LINE",
"392 241 LINE",
"220 241 LINE"
);
}
);
width = 800;
},
{
anchors = (
{
name = bottom;
position = "{420, 0}";
},
{
name = ogonek;
position = "{640, 10}";
},
{
name = top;
position = "{494, 700}";
},
{
name = topleft;
position = "{725, 700}";
}
);
background = {
paths = (
{
closed = 1;
nodes = (
"55 0 LINE",
"112 0 LINE",
"200 195 LINE",
"392 195 LINE",
"392 0 LINE",
"745 0 LINE",
"745 46 LINE",
"445 46 LINE",
"445 344 LINE",
"652 344 LINE",
"652 390 LINE",
"445 390 LINE",
"445 654 LINE",
"736 654 LINE",
"736 700 LINE",
"369 700 LINE"
);
},
{
closed = 1;
nodes = (
"392 625 LINE",
"392 241 LINE",
"220 241 LINE"
);
}
);
};
layerId = "39D19F74-97F3-4EB6-8D96-77117D45ABB1";
paths = (
{
closed = 1;
nodes = (
"175 0 LINE",
"241 185 LINE",
"370 185 LINE",
"370 0 LINE",
"801 0 LINE",
"801 116 LINE",
"502 116 LINE",
"502 312 LINE",
"708 312 LINE",
"708 422 LINE",
"502 422 LINE",
"502 584 LINE",
"792 584 LINE",
"792 700 LINE",
"298 700 LINE",
"35 0 LINE"
);
},
{
closed = 1;
nodes = (
"370 562 LINE",
"370 291 LINE",
"272 291 LINE"
);
}
);
width = 836;
}
);
note = AE;
unicode = 00C6;
},
{
color = 6;
glyphname = Eth;
lastChange = "2018-05-26 10:08:39 +0000";
layers = (
{
anchors = (
{
name = bottom;
position = "{334, 0}";
},
{
name = center;
position = "{334, 350}";
},
{
name = top;
position = "{334, 700}";
}
);
layerId = "0B1DFD06-3317-40CA-B510-4969A0718C16";
paths = (
{
closed = 1;
nodes = (
"309 0 LINE SMOOTH",
"505 0 OFFCURVE",
"614 118 OFFCURVE",
"614 352 CURVE SMOOTH",
"614 582 OFFCURVE",
"493 700 OFFCURVE",
"304 700 CURVE SMOOTH",
"167 700 LINE",
"159 709 OFFCURVE",
"148 718 OFFCURVE",
"142 718 CURVE SMOOTH",
"122 718 OFFCURVE",
"109 696 OFFCURVE",
"106 687 CURVE SMOOTH",
"102 669 OFFCURVE",
"131 666 OFFCURVE",
"131 631 CURVE SMOOTH",
"131 0 LINE"
);
},
{
closed = 1;
nodes = (
"351 326 LINE",
"351 372 LINE",
"55 372 LINE",
"55 326 LINE"
);
},
{
closed = 1;
nodes = (
"185 654 LINE",
"301 654 LINE SMOOTH",
"460 654 OFFCURVE",
"558 557 OFFCURVE",
"558 352 CURVE SMOOTH",
"558 159 OFFCURVE",
"484 46 OFFCURVE",
"309 46 CURVE SMOOTH",
"185 46 LINE"
);
}
);
width = 669;
},
{
anchors = (
{
name = bottom;
position = "{334, 0}";
},
{
name = center;
position = "{334, 350}";
},
{
name = top;
position = "{334, 700}";
}
);
layerId = "39D19F74-97F3-4EB6-8D96-77117D45ABB1";
paths = (
{
closed = 1;
nodes = (
"303 0 LINE SMOOTH",
"526 0 OFFCURVE",
"648 135 OFFCURVE",
"648 352 CURVE SMOOTH",
"648 560 OFFCURVE",
"518 700 OFFCURVE",
"298 700 CURVE SMOOTH",
"160 700 LINE",
"149 712 OFFCURVE",
"138 718 OFFCURVE",
"122 718 CURVE SMOOTH",
"93 718 OFFCURVE",
"66 682 OFFCURVE",
"57 655 CURVE SMOOTH",
"47 625 OFFCURVE",
"85 635 OFFCURVE",
"85 576 CURVE SMOOTH",
"85 0 LINE"
);
},
{
closed = 1;
nodes = (
"371 301 LINE",
"371 397 LINE",
"35 397 LINE",
"35 301 LINE"
);
},
{
closed = 1;
nodes = (
"219 584 LINE",
"295 584 LINE SMOOTH",
"438 584 OFFCURVE",
"512 502 OFFCURVE",
"512 352 CURVE SMOOTH",
"512 194 OFFCURVE",
"444 116 OFFCURVE",
"303 116 CURVE SMOOTH",
"219 116 LINE"
);
}
);
width = 683;
}
);
note = Eth;
unicode = 00D0;
},
{
color = 6;
glyphname = Dcroat;
lastChange = "2018-05-17 06:16:46 +0000";
layers = (
{
layerId = "0B1DFD06-3317-40CA-B510-4969A0718C16";
paths = (
{
closed = 1;
nodes = (
"309 0 LINE SMOOTH",
"505 0 OFFCURVE",
"614 118 OFFCURVE",
"614 352 CURVE SMOOTH",
"614 582 OFFCURVE",
"493 700 OFFCURVE",
"304 700 CURVE SMOOTH",
"167 700 LINE",
"159 709 OFFCURVE",
"148 718 OFFCURVE",
"142 718 CURVE SMOOTH",
"122 718 OFFCURVE",
"109 696 OFFCURVE",
"106 687 CURVE SMOOTH",
"102 669 OFFCURVE",
"131 666 OFFCURVE",
"131 631 CURVE SMOOTH",
"131 0 LINE"
);
},
{
closed = 1;
nodes = (
"351 326 LINE",
"351 372 LINE",
"55 372 LINE",
"55 326 LINE"
);
},
{
closed = 1;
nodes = (
"185 654 LINE",
"301 654 LINE SMOOTH",
"460 654 OFFCURVE",
"558 557 OFFCURVE",
"558 352 CURVE SMOOTH",
"558 159 OFFCURVE",
"484 46 OFFCURVE",
"309 46 CURVE SMOOTH",
"185 46 LINE"
);
}
);
width = 669;
},
{
layerId = "39D19F74-97F3-4EB6-8D96-77117D45ABB1";
paths = (
{
closed = 1;
nodes = (
"303 0 LINE SMOOTH",
"526 0 OFFCURVE",
"648 135 OFFCURVE",
"648 352 CURVE SMOOTH",
"648 560 OFFCURVE",
"518 700 OFFCURVE",
"298 700 CURVE SMOOTH",
"160 700 LINE",
"149 712 OFFCURVE",
"138 718 OFFCURVE",
"122 718 CURVE SMOOTH",
"93 718 OFFCURVE",
"66 682 OFFCURVE",
"57 655 CURVE SMOOTH",
"47 625 OFFCURVE",
"85 635 OFFCURVE",
"85 576 CURVE SMOOTH",
"85 0 LINE"
);
},
{
closed = 1;
nodes = (
"371 301 LINE",
"371 397 LINE",
"35 397 LINE",
"35 301 LINE"
);
},
{
closed = 1;
nodes = (
"219 584 LINE",
"295 584 LINE SMOOTH",
"438 584 OFFCURVE",
"512 502 OFFCURVE",
"512 352 CURVE SMOOTH",
"512 194 OFFCURVE",
"444 116 OFFCURVE",
"303 116 CURVE SMOOTH",
"219 116 LINE"
);
}
);
width = 683;
}
);
note = Dcroat;
unicode = 0110;
},
{
color = 6;
glyphname = Eacute;
lastChange = "2018-05-17 04:35:46 +0000";
layers = (
{
background = {
paths = (
{
closed = 1;
nodes = (
"554 0 LINE",
"571 179 LINE",
"544 179 LINE",
"538 124 OFFCURVE",
"520 40 OFFCURVE",
"456 40 CURVE SMOOTH",
"201 40 LINE",
"201 659 LINE",
"441 659 LINE SMOOTH",
"516 659 OFFCURVE",
"525 567 OFFCURVE",
"528 527 CURVE",
"555 527 LINE",
"555 700 LINE",
"16 700 LINE",
"16 673 LINE",
"44 673 LINE SMOOTH",
"83 673 OFFCURVE",
"103 662 OFFCURVE",
"103 637 CURVE SMOOTH",
"103 62 LINE SMOOTH",
"103 37 OFFCURVE",
"83 26 OFFCURVE",
"44 26 CURVE SMOOTH",
"16 26 LINE",
"16 0 LINE"
);
},
{
closed = 1;
nodes = (
"455 251 LINE",
"455 485 LINE",
"431 485 LINE",
"427 436 OFFCURVE",
"424 388 OFFCURVE",
"379 388 CURVE SMOOTH",
"162 388 LINE",
"162 348 LINE",
"379 348 LINE SMOOTH",
"424 348 OFFCURVE",
"427 300 OFFCURVE",
"431 251 CURVE"
);
},
{
closed = 1;
nodes = (
"398 865 LINE SMOOTH",
"420 877 OFFCURVE",
"432 890 OFFCURVE",
"432 907 CURVE SMOOTH",
"432 922 OFFCURVE",
"420 937 OFFCURVE",
"398 937 CURVE SMOOTH",
"377 937 OFFCURVE",
"362 921 OFFCURVE",
"354 914 CURVE SMOOTH",
"239 807 LINE",
"256 782 LINE"
);
}
);
};
components = (
{
name = E;
},
{
alignment = 1;
name = acutecomb;
transform = "{1, 0, 0, 1, 296, 230}";
}
);
layerId = "0B1DFD06-3317-40CA-B510-4969A0718C16";
width = 509;
},
{
background = {
paths = (
{
closed = 1;
nodes = (
"554 0 LINE",
"571 179 LINE",
"544 179 LINE",
"538 124 OFFCURVE",
"520 40 OFFCURVE",
"456 40 CURVE SMOOTH",
"201 40 LINE",
"201 659 LINE",
"441 659 LINE SMOOTH",
"516 659 OFFCURVE",
"525 567 OFFCURVE",
"528 527 CURVE",
"555 527 LINE",
"555 700 LINE",
"16 700 LINE",
"16 673 LINE",
"44 673 LINE SMOOTH",
"83 673 OFFCURVE",
"103 662 OFFCURVE",
"103 637 CURVE SMOOTH",
"103 62 LINE SMOOTH",
"103 37 OFFCURVE",
"83 26 OFFCURVE",
"44 26 CURVE SMOOTH",
"16 26 LINE",
"16 0 LINE"
);
},
{
closed = 1;
nodes = (
"455 251 LINE",
"455 485 LINE",
"431 485 LINE",
"427 436 OFFCURVE",
"424 388 OFFCURVE",
"379 388 CURVE SMOOTH",
"162 388 LINE",
"162 348 LINE",
"379 348 LINE SMOOTH",
"424 348 OFFCURVE",
"427 300 OFFCURVE",
"431 251 CURVE"
);
},
{
closed = 1;
nodes = (
"398 865 LINE SMOOTH",
"420 877 OFFCURVE",
"432 890 OFFCURVE",
"432 907 CURVE SMOOTH",
"432 922 OFFCURVE",
"420 937 OFFCURVE",
"398 937 CURVE SMOOTH",
"377 937 OFFCURVE",
"362 921 OFFCURVE",
"354 914 CURVE SMOOTH",
"239 807 LINE",
"256 782 LINE"
);
}
);
};
components = (
{
name = E;
},
{
alignment = 1;
name = acutecomb;
transform = "{1, 0, 0, 1, 320, 230}";
}
);
layerId = "39D19F74-97F3-4EB6-8D96-77117D45ABB1";
width = 553;
}
);
note = Eacute;
unicode = 00C9;
},
{
color = 6;
glyphname = Ebreve;
lastChange = "2018-05-17 06:27:00 +0000";
layers = (
{
background = {
paths = (
{
closed = 1;
nodes = (
"554 0 LINE",
"571 179 LINE",
"544 179 LINE",
"538 124 OFFCURVE",
"520 40 OFFCURVE",
"456 40 CURVE SMOOTH",
"201 40 LINE",
"201 659 LINE",
"441 659 LINE SMOOTH",
"516 659 OFFCURVE",
"525 567 OFFCURVE",
"528 527 CURVE",
"555 527 LINE",
"555 700 LINE",
"16 700 LINE",
"16 673 LINE",
"44 673 LINE SMOOTH",
"83 673 OFFCURVE",
"103 662 OFFCURVE",
"103 637 CURVE SMOOTH",
"103 62 LINE SMOOTH",
"103 37 OFFCURVE",
"83 26 OFFCURVE",
"44 26 CURVE SMOOTH",
"16 26 LINE",
"16 0 LINE"
);
},
{
closed = 1;
nodes = (
"455 251 LINE",
"455 485 LINE",
"431 485 LINE",
"427 436 OFFCURVE",
"424 388 OFFCURVE",
"379 388 CURVE SMOOTH",
"162 388 LINE",
"162 348 LINE",
"379 348 LINE SMOOTH",
"424 348 OFFCURVE",
"427 300 OFFCURVE",
"431 251 CURVE"
);
},
{
closed = 1;
nodes = (
"432 776 OFFCURVE",
"474 832 OFFCURVE",
"478 907 CURVE",
"445 907 LINE",
"439 848 OFFCURVE",
"397 822 OFFCURVE",
"333 822 CURVE SMOOTH",
"269 822 OFFCURVE",
"226 848 OFFCURVE",
"219 907 CURVE",
"186 907 LINE",
"190 829 OFFCURVE",
"232 776 OFFCURVE",
"333 776 CURVE SMOOTH"
);
}
);
};
components = (
{
name = E;
},
{
name = brevecomb;
transform = "{1, 0, 0, 1, 265, 230}";
}
);
layerId = "0B1DFD06-3317-40CA-B510-4969A0718C16";
width = 509;
},
{
background = {
paths = (
{
closed = 1;
nodes = (
"554 0 LINE",
"571 179 LINE",
"544 179 LINE",
"538 124 OFFCURVE",
"520 40 OFFCURVE",
"456 40 CURVE SMOOTH",
"201 40 LINE",
"201 659 LINE",
"441 659 LINE SMOOTH",
"516 659 OFFCURVE",
"525 567 OFFCURVE",
"528 527 CURVE",
"555 527 LINE",
"555 700 LINE",
"16 700 LINE",
"16 673 LINE",
"44 673 LINE SMOOTH",
"83 673 OFFCURVE",
"103 662 OFFCURVE",
"103 637 CURVE SMOOTH",
"103 62 LINE SMOOTH",
"103 37 OFFCURVE",
"83 26 OFFCURVE",
"44 26 CURVE SMOOTH",
"16 26 LINE",
"16 0 LINE"
);
},
{
closed = 1;
nodes = (
"455 251 LINE",
"455 485 LINE",
"431 485 LINE",
"427 436 OFFCURVE",
"424 388 OFFCURVE",
"379 388 CURVE SMOOTH",
"162 388 LINE",
"162 348 LINE",
"379 348 LINE SMOOTH",
"424 348 OFFCURVE",
"427 300 OFFCURVE",
"431 251 CURVE"
);
},
{
closed = 1;
nodes = (
"432 776 OFFCURVE",
"474 832 OFFCURVE",
"478 907 CURVE",
"445 907 LINE",
"439 848 OFFCURVE",
"397 822 OFFCURVE",
"333 822 CURVE SMOOTH",
"269 822 OFFCURVE",
"226 848 OFFCURVE",
"219 907 CURVE",
"186 907 LINE",
"190 829 OFFCURVE",
"232 776 OFFCURVE",
"333 776 CURVE SMOOTH"
);
}
);
};
components = (
{
name = E;
},
{
name = brevecomb;
transform = "{1, 0, 0, 1, 289, 230}";
}
);
layerId = "39D19F74-97F3-4EB6-8D96-77117D45ABB1";
width = 553;
}
);
note = Ebreve;
unicode = 0114;
},
{
color = 6;
glyphname = Ecaron;
lastChange = "2018-05-17 05:13:55 +0000";
layers = (
{
background = {
paths = (
{
closed = 1;
nodes = (
"554 0 LINE",
"571 179 LINE",
"544 179 LINE",
"538 124 OFFCURVE",
"520 40 OFFCURVE",
"456 40 CURVE SMOOTH",
"201 40 LINE",
"201 659 LINE",
"441 659 LINE SMOOTH",
"516 659 OFFCURVE",
"525 567 OFFCURVE",
"528 527 CURVE",
"555 527 LINE",
"555 700 LINE",
"16 700 LINE",
"16 673 LINE",
"44 673 LINE SMOOTH",
"83 673 OFFCURVE",
"103 662 OFFCURVE",
"103 637 CURVE SMOOTH",
"103 62 LINE SMOOTH",
"103 37 OFFCURVE",
"83 26 OFFCURVE",
"44 26 CURVE SMOOTH",
"16 26 LINE",
"16 0 LINE"
);
},
{
closed = 1;
nodes = (
"455 251 LINE",
"455 485 LINE",
"431 485 LINE",
"427 436 OFFCURVE",
"424 388 OFFCURVE",
"379 388 CURVE SMOOTH",
"162 388 LINE",
"162 348 LINE",
"379 348 LINE SMOOTH",
"424 348 OFFCURVE",
"427 300 OFFCURVE",
"431 251 CURVE"
);
},
{
closed = 1;
nodes = (
"357 782 LINE",
"481 911 LINE",
"462 932 LINE",
"354 847 LINE",
"346 840 OFFCURVE",
"337 836 OFFCURVE",
"331 836 CURVE SMOOTH",
"325 836 OFFCURVE",
"317 840 OFFCURVE",
"307 847 CURVE",
"199 932 LINE",
"180 911 LINE",
"304 782 LINE"
);
}
);
};
components = (
{
name = E;
},
{
name = caroncomb;
transform = "{1, 0, 0, 1, 266, 230}";
}
);
layerId = "0B1DFD06-3317-40CA-B510-4969A0718C16";
width = 509;
},
{
background = {
paths = (
{
closed = 1;
nodes = (
"554 0 LINE",
"571 179 LINE",
"544 179 LINE",
"538 124 OFFCURVE",
"520 40 OFFCURVE",
"456 40 CURVE SMOOTH",
"201 40 LINE",
"201 659 LINE",
"441 659 LINE SMOOTH",
"516 659 OFFCURVE",
"525 567 OFFCURVE",
"528 527 CURVE",
"555 527 LINE",
"555 700 LINE",
"16 700 LINE",
"16 673 LINE",
"44 673 LINE SMOOTH",
"83 673 OFFCURVE",
"103 662 OFFCURVE",
"103 637 CURVE SMOOTH",
"103 62 LINE SMOOTH",
"103 37 OFFCURVE",
"83 26 OFFCURVE",
"44 26 CURVE SMOOTH",
"16 26 LINE",
"16 0 LINE"
);
},
{
closed = 1;
nodes = (
"455 251 LINE",
"455 485 LINE",
"431 485 LINE",
"427 436 OFFCURVE",
"424 388 OFFCURVE",
"379 388 CURVE SMOOTH",
"162 388 LINE",
"162 348 LINE",
"379 348 LINE SMOOTH",
"424 348 OFFCURVE",
"427 300 OFFCURVE",
"431 251 CURVE"
);
},
{
closed = 1;
nodes = (
"357 782 LINE",
"481 911 LINE",
"462 932 LINE",
"354 847 LINE",
"346 840 OFFCURVE",
"337 836 OFFCURVE",
"331 836 CURVE SMOOTH",
"325 836 OFFCURVE",
"317 840 OFFCURVE",
"307 847 CURVE",
"199 932 LINE",
"180 911 LINE",
"304 782 LINE"
);
}
);
};
components = (
{
name = E;
},
{
name = caroncomb;
transform = "{1, 0, 0, 1, 290, 230}";
}
);
layerId = "39D19F74-97F3-4EB6-8D96-77117D45ABB1";
width = 553;
}
);
note = Ecaron;
unicode = 011A;
},
{
color = 6;
glyphname = Ecircumflex;
lastChange = "2018-05-17 05:13:55 +0000";
layers = (
{
background = {
paths = (
{
closed = 1;
nodes = (
"554 0 LINE",
"571 179 LINE",
"544 179 LINE",
"538 124 OFFCURVE",
"520 40 OFFCURVE",
"456 40 CURVE SMOOTH",
"201 40 LINE",
"201 659 LINE",
"441 659 LINE SMOOTH",
"516 659 OFFCURVE",
"525 567 OFFCURVE",
"528 527 CURVE",
"555 527 LINE",
"555 700 LINE",
"16 700 LINE",
"16 673 LINE",
"44 673 LINE SMOOTH",
"83 673 OFFCURVE",
"103 662 OFFCURVE",
"103 637 CURVE SMOOTH",
"103 62 LINE SMOOTH",
"103 37 OFFCURVE",
"83 26 OFFCURVE",
"44 26 CURVE SMOOTH",
"16 26 LINE",
"16 0 LINE"
);
},
{
closed = 1;
nodes = (
"455 251 LINE",
"455 485 LINE",
"431 485 LINE",
"427 436 OFFCURVE",
"424 388 OFFCURVE",
"379 388 CURVE SMOOTH",
"162 388 LINE",
"162 348 LINE",
"379 348 LINE SMOOTH",
"424 348 OFFCURVE",
"427 300 OFFCURVE",
"431 251 CURVE"
);
},
{
closed = 1;
nodes = (
"304 868 LINE SMOOTH",
"312 874 OFFCURVE",
"322 879 OFFCURVE",
"328 879 CURVE SMOOTH",
"334 879 OFFCURVE",
"342 874 OFFCURVE",
"351 868 CURVE",
"459 782 LINE",
"478 803 LINE",
"354 932 LINE",
"301 932 LINE",
"177 803 LINE",
"196 782 LINE"
);
}
);
};
components = (
{
name = E;
},
{
name = circumflexcomb;
transform = "{1, 0, 0, 1, 266, 230}";
}
);
layerId = "0B1DFD06-3317-40CA-B510-4969A0718C16";
width = 509;
},
{
background = {
paths = (
{
closed = 1;
nodes = (
"554 0 LINE",
"571 179 LINE",
"544 179 LINE",
"538 124 OFFCURVE",
"520 40 OFFCURVE",
"456 40 CURVE SMOOTH",
"201 40 LINE",
"201 659 LINE",
"441 659 LINE SMOOTH",
"516 659 OFFCURVE",
"525 567 OFFCURVE",
"528 527 CURVE",
"555 527 LINE",
"555 700 LINE",
"16 700 LINE",
"16 673 LINE",
"44 673 LINE SMOOTH",
"83 673 OFFCURVE",
"103 662 OFFCURVE",
"103 637 CURVE SMOOTH",
"103 62 LINE SMOOTH",
"103 37 OFFCURVE",
"83 26 OFFCURVE",
"44 26 CURVE SMOOTH",
"16 26 LINE",
"16 0 LINE"
);
},
{
closed = 1;
nodes = (
"455 251 LINE",
"455 485 LINE",
"431 485 LINE",
"427 436 OFFCURVE",
"424 388 OFFCURVE",
"379 388 CURVE SMOOTH",
"162 388 LINE",
"162 348 LINE",
"379 348 LINE SMOOTH",
"424 348 OFFCURVE",
"427 300 OFFCURVE",
"431 251 CURVE"
);
},
{
closed = 1;
nodes = (
"304 868 LINE SMOOTH",
"312 874 OFFCURVE",
"322 879 OFFCURVE",
"328 879 CURVE SMOOTH",
"334 879 OFFCURVE",
"342 874 OFFCURVE",
"351 868 CURVE",
"459 782 LINE",
"478 803 LINE",
"354 932 LINE",
"301 932 LINE",
"177 803 LINE",
"196 782 LINE"
);
}
);
};
components = (
{
name = E;
},
{
name = circumflexcomb;
transform = "{1, 0, 0, 1, 290, 230}";
}
);
layerId = "39D19F74-97F3-4EB6-8D96-77117D45ABB1";
width = 553;
}
);
note = Ecircumflex;
unicode = 00CA;
},
{
color = 6;
glyphname = Ecircumflexacute;
lastChange = "2018-05-17 09:26:28 +0000";
layers = (
{
background = {
paths = (
{
closed = 1;
nodes = (
"554 0 LINE",
"571 179 LINE",
"544 179 LINE",
"538 124 OFFCURVE",
"520 40 OFFCURVE",
"456 40 CURVE SMOOTH",
"201 40 LINE",
"201 659 LINE",
"441 659 LINE SMOOTH",
"516 659 OFFCURVE",
"525 567 OFFCURVE",
"528 527 CURVE",
"555 527 LINE",
"555 700 LINE",
"16 700 LINE",
"16 673 LINE",
"44 673 LINE SMOOTH",
"83 673 OFFCURVE",
"103 662 OFFCURVE",
"103 637 CURVE SMOOTH",
"103 62 LINE SMOOTH",
"103 37 OFFCURVE",
"83 26 OFFCURVE",
"44 26 CURVE SMOOTH",
"16 26 LINE",
"16 0 LINE"
);
},
{
closed = 1;
nodes = (
"455 251 LINE",
"455 485 LINE",
"431 485 LINE",
"427 436 OFFCURVE",
"424 388 OFFCURVE",
"379 388 CURVE SMOOTH",
"162 388 LINE",
"162 348 LINE",
"379 348 LINE SMOOTH",
"424 348 OFFCURVE",
"427 300 OFFCURVE",
"431 251 CURVE"
);
},
{
closed = 1;
nodes = (
"290 862 LINE SMOOTH",
"300 870 OFFCURVE",
"310 878 OFFCURVE",
"318 878 CURVE SMOOTH",
"324 878 OFFCURVE",
"332 873 OFFCURVE",
"341 867 CURVE",
"447 781 LINE",
"466 803 LINE",
"344 932 LINE",
"293 932 LINE",
"171 803 LINE",
"189 781 LINE"
);
},
{
closed = 1;
nodes = (
"555 960 LINE SMOOTH",
"578 972 OFFCURVE",
"591 988 OFFCURVE",
"591 1003 CURVE SMOOTH",
"591 1017 OFFCURVE",
"580 1034 OFFCURVE",
"557 1034 CURVE SMOOTH",
"538 1034 OFFCURVE",
"521 1018 OFFCURVE",
"511 1008 CURVE SMOOTH",
"415 915 LINE",
"433 893 LINE"
);
}
);
};
components = (
{
name = E;
},
{
name = circumflexacute;
transform = "{1, 0, 0, 1, 515, 230}";
}
);
layerId = "0B1DFD06-3317-40CA-B510-4969A0718C16";
width = 509;
},
{
background = {
paths = (
{
closed = 1;
nodes = (
"554 0 LINE",
"571 179 LINE",
"544 179 LINE",
"538 124 OFFCURVE",
"520 40 OFFCURVE",
"456 40 CURVE SMOOTH",
"201 40 LINE",
"201 659 LINE",
"441 659 LINE SMOOTH",
"516 659 OFFCURVE",
"525 567 OFFCURVE",
"528 527 CURVE",
"555 527 LINE",
"555 700 LINE",
"16 700 LINE",
"16 673 LINE",
"44 673 LINE SMOOTH",
"83 673 OFFCURVE",
"103 662 OFFCURVE",
"103 637 CURVE SMOOTH",
"103 62 LINE SMOOTH",
"103 37 OFFCURVE",
"83 26 OFFCURVE",
"44 26 CURVE SMOOTH",
"16 26 LINE",
"16 0 LINE"
);
},
{
closed = 1;
nodes = (
"455 251 LINE",
"455 485 LINE",
"431 485 LINE",
"427 436 OFFCURVE",
"424 388 OFFCURVE",
"379 388 CURVE SMOOTH",
"162 388 LINE",
"162 348 LINE",
"379 348 LINE SMOOTH",
"424 348 OFFCURVE",
"427 300 OFFCURVE",
"431 251 CURVE"
);
},
{
closed = 1;
nodes = (
"290 862 LINE SMOOTH",
"300 870 OFFCURVE",
"310 878 OFFCURVE",
"318 878 CURVE SMOOTH",
"324 878 OFFCURVE",
"332 873 OFFCURVE",
"341 867 CURVE",
"447 781 LINE",
"466 803 LINE",
"344 932 LINE",
"293 932 LINE",
"171 803 LINE",
"189 781 LINE"
);
},
{
closed = 1;
nodes = (
"555 960 LINE SMOOTH",
"578 972 OFFCURVE",
"591 988 OFFCURVE",
"591 1003 CURVE SMOOTH",
"591 1017 OFFCURVE",
"580 1034 OFFCURVE",
"557 1034 CURVE SMOOTH",
"538 1034 OFFCURVE",
"521 1018 OFFCURVE",
"511 1008 CURVE SMOOTH",
"415 915 LINE",
"433 893 LINE"
);
}
);
};
components = (
{
name = E;
},
{
name = circumflexacute;
transform = "{1, 0, 0, 1, 539, 230}";
}
);
layerId = "39D19F74-97F3-4EB6-8D96-77117D45ABB1";
width = 553;
}
);
note = Ecircumflexacute;
unicode = 1EBE;
},
{
color = 6;
glyphname = Ecircumflexdotbelow;
lastChange = "2018-05-17 04:40:08 +0000";
layers = (
{
background = {
paths = (
{
closed = 1;
nodes = (
"554 0 LINE",
"571 179 LINE",
"544 179 LINE",
"538 124 OFFCURVE",
"520 40 OFFCURVE",
"456 40 CURVE SMOOTH",
"201 40 LINE",
"201 659 LINE",
"441 659 LINE SMOOTH",
"516 659 OFFCURVE",
"525 567 OFFCURVE",
"528 527 CURVE",
"555 527 LINE",
"555 700 LINE",
"16 700 LINE",
"16 673 LINE",
"44 673 LINE SMOOTH",
"83 673 OFFCURVE",
"103 662 OFFCURVE",
"103 637 CURVE SMOOTH",
"103 62 LINE SMOOTH",
"103 37 OFFCURVE",
"83 26 OFFCURVE",
"44 26 CURVE SMOOTH",
"16 26 LINE",
"16 0 LINE"
);
},
{
closed = 1;
nodes = (
"350 -159 OFFCURVE",
"368 -140 OFFCURVE",
"368 -112 CURVE SMOOTH",
"368 -84 OFFCURVE",
"350 -64 OFFCURVE",
"322 -64 CURVE SMOOTH",
"294 -64 OFFCURVE",
"275 -84 OFFCURVE",
"275 -112 CURVE SMOOTH",
"275 -140 OFFCURVE",
"294 -159 OFFCURVE",
"322 -159 CURVE SMOOTH"
);
},
{
closed = 1;
nodes = (
"455 251 LINE",
"455 485 LINE",
"431 485 LINE",
"427 436 OFFCURVE",
"424 388 OFFCURVE",
"379 388 CURVE SMOOTH",
"162 388 LINE",
"162 348 LINE",
"379 348 LINE SMOOTH",
"424 348 OFFCURVE",
"427 300 OFFCURVE",
"431 251 CURVE"
);
},
{
closed = 1;
nodes = (
"294 868 LINE SMOOTH",
"302 874 OFFCURVE",
"312 879 OFFCURVE",
"318 879 CURVE SMOOTH",
"324 879 OFFCURVE",
"332 874 OFFCURVE",
"341 868 CURVE",
"449 782 LINE",
"468 803 LINE",
"344 932 LINE",
"291 932 LINE",
"167 803 LINE",
"186 782 LINE"
);
}
);
};
components = (
{
name = E;
},
{
name = dotbelowcomb;
transform = "{1, 0, 0, 1, 266, 0}";
},
{
name = circumflexcomb;
transform = "{1, 0, 0, 1, 266, 230}";
}
);
layerId = "0B1DFD06-3317-40CA-B510-4969A0718C16";
width = 509;
},
{
background = {
paths = (
{
closed = 1;
nodes = (
"554 0 LINE",
"571 179 LINE",
"544 179 LINE",
"538 124 OFFCURVE",
"520 40 OFFCURVE",
"456 40 CURVE SMOOTH",
"201 40 LINE",
"201 659 LINE",
"441 659 LINE SMOOTH",
"516 659 OFFCURVE",
"525 567 OFFCURVE",
"528 527 CURVE",
"555 527 LINE",
"555 700 LINE",
"16 700 LINE",
"16 673 LINE",
"44 673 LINE SMOOTH",
"83 673 OFFCURVE",
"103 662 OFFCURVE",
"103 637 CURVE SMOOTH",
"103 62 LINE SMOOTH",
"103 37 OFFCURVE",
"83 26 OFFCURVE",
"44 26 CURVE SMOOTH",
"16 26 LINE",
"16 0 LINE"
);
},
{
closed = 1;
nodes = (
"350 -159 OFFCURVE",
"368 -140 OFFCURVE",
"368 -112 CURVE SMOOTH",
"368 -84 OFFCURVE",
"350 -64 OFFCURVE",
"322 -64 CURVE SMOOTH",
"294 -64 OFFCURVE",
"275 -84 OFFCURVE",
"275 -112 CURVE SMOOTH",
"275 -140 OFFCURVE",
"294 -159 OFFCURVE",
"322 -159 CURVE SMOOTH"
);
},
{
closed = 1;
nodes = (
"455 251 LINE",
"455 485 LINE",
"431 485 LINE",
"427 436 OFFCURVE",
"424 388 OFFCURVE",
"379 388 CURVE SMOOTH",
"162 388 LINE",
"162 348 LINE",
"379 348 LINE SMOOTH",
"424 348 OFFCURVE",
"427 300 OFFCURVE",
"431 251 CURVE"
);
},
{
closed = 1;
nodes = (
"294 868 LINE SMOOTH",
"302 874 OFFCURVE",
"312 879 OFFCURVE",
"318 879 CURVE SMOOTH",
"324 879 OFFCURVE",
"332 874 OFFCURVE",
"341 868 CURVE",
"449 782 LINE",
"468 803 LINE",
"344 932 LINE",
"291 932 LINE",
"167 803 LINE",
"186 782 LINE"
);
}
);
};
components = (
{
name = E;
},
{
name = dotbelowcomb;
transform = "{1, 0, 0, 1, 290, -30}";
},
{
name = circumflexcomb;
transform = "{1, 0, 0, 1, 290, 230}";
}
);
layerId = "39D19F74-97F3-4EB6-8D96-77117D45ABB1";
width = 553;
}
);
note = Ecircumflexdotbelow;
unicode = 1EC6;
},
{
color = 6;
glyphname = Ecircumflexgrave;
lastChange = "2018-05-17 09:26:28 +0000";
layers = (
{
background = {
paths = (
{
closed = 1;
nodes = (
"554 0 LINE",
"571 179 LINE",
"544 179 LINE",
"538 124 OFFCURVE",
"520 40 OFFCURVE",
"456 40 CURVE SMOOTH",
"201 40 LINE",
"201 659 LINE",
"441 659 LINE SMOOTH",
"516 659 OFFCURVE",
"525 567 OFFCURVE",
"528 527 CURVE",
"555 527 LINE",
"555 700 LINE",
"16 700 LINE",
"16 673 LINE",
"44 673 LINE SMOOTH",
"83 673 OFFCURVE",
"103 662 OFFCURVE",
"103 637 CURVE SMOOTH",
"103 62 LINE SMOOTH",
"103 37 OFFCURVE",
"83 26 OFFCURVE",
"44 26 CURVE SMOOTH",
"16 26 LINE",
"16 0 LINE"
);
},
{
closed = 1;
nodes = (
"455 251 LINE",
"455 485 LINE",
"431 485 LINE",
"427 436 OFFCURVE",
"424 388 OFFCURVE",
"379 388 CURVE SMOOTH",
"162 388 LINE",
"162 348 LINE",
"379 348 LINE SMOOTH",
"424 348 OFFCURVE",
"427 300 OFFCURVE",
"431 251 CURVE"
);
},
{
closed = 1;
nodes = (
"227 915 LINE",
"132 1008 LINE SMOOTH",
"122 1018 OFFCURVE",
"105 1034 OFFCURVE",
"85 1034 CURVE SMOOTH",
"63 1034 OFFCURVE",
"52 1017 OFFCURVE",
"52 1003 CURVE SMOOTH",
"52 988 OFFCURVE",
"65 972 OFFCURVE",
"88 960 CURVE SMOOTH",
"210 893 LINE"
);
},
{
closed = 1;
nodes = (
"290 862 LINE SMOOTH",
"300 870 OFFCURVE",
"310 878 OFFCURVE",
"318 878 CURVE SMOOTH",
"324 878 OFFCURVE",
"332 873 OFFCURVE",
"341 867 CURVE",
"447 781 LINE",
"466 803 LINE",
"344 932 LINE",
"293 932 LINE",
"171 803 LINE",
"189 781 LINE"
);
}
);
};
components = (
{
name = E;
},
{
name = circumflexgrave;
transform = "{1, 0, 0, 1, 515, 230}";
}
);
layerId = "0B1DFD06-3317-40CA-B510-4969A0718C16";
width = 509;
},
{
background = {
paths = (
{
closed = 1;
nodes = (
"554 0 LINE",
"571 179 LINE",
"544 179 LINE",
"538 124 OFFCURVE",
"520 40 OFFCURVE",
"456 40 CURVE SMOOTH",
"201 40 LINE",
"201 659 LINE",
"441 659 LINE SMOOTH",
"516 659 OFFCURVE",
"525 567 OFFCURVE",
"528 527 CURVE",
"555 527 LINE",
"555 700 LINE",
"16 700 LINE",
"16 673 LINE",
"44 673 LINE SMOOTH",
"83 673 OFFCURVE",
"103 662 OFFCURVE",
"103 637 CURVE SMOOTH",
"103 62 LINE SMOOTH",
"103 37 OFFCURVE",
"83 26 OFFCURVE",
"44 26 CURVE SMOOTH",
"16 26 LINE",
"16 0 LINE"
);
},
{
closed = 1;
nodes = (
"455 251 LINE",
"455 485 LINE",
"431 485 LINE",
"427 436 OFFCURVE",
"424 388 OFFCURVE",
"379 388 CURVE SMOOTH",
"162 388 LINE",
"162 348 LINE",
"379 348 LINE SMOOTH",
"424 348 OFFCURVE",
"427 300 OFFCURVE",
"431 251 CURVE"
);
},
{
closed = 1;
nodes = (
"227 915 LINE",
"132 1008 LINE SMOOTH",
"122 1018 OFFCURVE",
"105 1034 OFFCURVE",
"85 1034 CURVE SMOOTH",
"63 1034 OFFCURVE",
"52 1017 OFFCURVE",
"52 1003 CURVE SMOOTH",
"52 988 OFFCURVE",
"65 972 OFFCURVE",
"88 960 CURVE SMOOTH",
"210 893 LINE"
);
},
{
closed = 1;
nodes = (
"290 862 LINE SMOOTH",
"300 870 OFFCURVE",
"310 878 OFFCURVE",
"318 878 CURVE SMOOTH",
"324 878 OFFCURVE",
"332 873 OFFCURVE",
"341 867 CURVE",
"447 781 LINE",
"466 803 LINE",
"344 932 LINE",
"293 932 LINE",
"171 803 LINE",
"189 781 LINE"
);
}
);
};
components = (
{
name = E;
},
{
name = circumflexgrave;
transform = "{1, 0, 0, 1, 539, 230}";
}
);
layerId = "39D19F74-97F3-4EB6-8D96-77117D45ABB1";
width = 553;
}
);
note = Ecircumflexgrave;
unicode = 1EC0;
},
{
color = 6;
glyphname = Ecircumflexhookabove;
lastChange = "2018-05-17 09:34:31 +0000";
layers = (
{
background = {
paths = (
{
closed = 1;
nodes = (
"554 0 LINE",
"571 179 LINE",
"544 179 LINE",
"538 124 OFFCURVE",
"520 40 OFFCURVE",
"456 40 CURVE SMOOTH",
"201 40 LINE",
"201 659 LINE",
"441 659 LINE SMOOTH",
"516 659 OFFCURVE",
"525 567 OFFCURVE",
"528 527 CURVE",
"555 527 LINE",
"555 700 LINE",
"16 700 LINE",
"16 673 LINE",
"44 673 LINE SMOOTH",
"83 673 OFFCURVE",
"103 662 OFFCURVE",
"103 637 CURVE SMOOTH",
"103 62 LINE SMOOTH",
"103 37 OFFCURVE",
"83 26 OFFCURVE",
"44 26 CURVE SMOOTH",
"16 26 LINE",
"16 0 LINE"
);
},
{
closed = 1;
nodes = (
"455 251 LINE",
"455 485 LINE",
"431 485 LINE",
"427 436 OFFCURVE",
"424 388 OFFCURVE",
"379 388 CURVE SMOOTH",
"162 388 LINE",
"162 348 LINE",
"379 348 LINE SMOOTH",
"424 348 OFFCURVE",
"427 300 OFFCURVE",
"431 251 CURVE"
);
},
{
closed = 1;
nodes = (
"286 858 LINE",
"297 868 OFFCURVE",
"309 878 OFFCURVE",
"318 878 CURVE SMOOTH",
"324 878 OFFCURVE",
"332 873 OFFCURVE",
"341 867 CURVE",
"447 781 LINE",
"466 803 LINE",
"344 932 LINE",
"293 932 LINE",
"171 803 LINE",
"189 781 LINE"
);
},
{
closed = 1;
nodes = (
"493 898 LINE",
"474 905 OFFCURVE",
"464 912 OFFCURVE",
"464 926 CURVE SMOOTH",
"464 954 OFFCURVE",
"544 965 OFFCURVE",
"544 1010 CURVE SMOOTH",
"544 1047 OFFCURVE",
"502 1063 OFFCURVE",
"460 1063 CURVE SMOOTH",
"429 1063 OFFCURVE",
"384 1053 OFFCURVE",
"384 1022 CURVE SMOOTH",
"384 1010 OFFCURVE",
"395 1001 OFFCURVE",
"405 1001 CURVE SMOOTH",
"434 1001 OFFCURVE",
"421 1040 OFFCURVE",
"464 1040 CURVE SMOOTH",
"483 1040 OFFCURVE",
"494 1028 OFFCURVE",
"494 1013 CURVE SMOOTH",
"494 973 OFFCURVE",
"421 965 OFFCURVE",
"421 925 CURVE SMOOTH",
"421 901 OFFCURVE",
"437 880 OFFCURVE",
"484 880 CURVE"
);
}
);
};
components = (
{
name = E;
},
{
name = circumflexhookabove;
transform = "{1, 0, 0, 1, 515, 230}";
}
);
layerId = "0B1DFD06-3317-40CA-B510-4969A0718C16";
width = 509;
},
{
background = {
paths = (
{
closed = 1;
nodes = (
"554 0 LINE",
"571 179 LINE",
"544 179 LINE",
"538 124 OFFCURVE",
"520 40 OFFCURVE",
"456 40 CURVE SMOOTH",
"201 40 LINE",
"201 659 LINE",
"441 659 LINE SMOOTH",
"516 659 OFFCURVE",
"525 567 OFFCURVE",
"528 527 CURVE",
"555 527 LINE",
"555 700 LINE",
"16 700 LINE",
"16 673 LINE",
"44 673 LINE SMOOTH",
"83 673 OFFCURVE",
"103 662 OFFCURVE",
"103 637 CURVE SMOOTH",
"103 62 LINE SMOOTH",
"103 37 OFFCURVE",
"83 26 OFFCURVE",
"44 26 CURVE SMOOTH",
"16 26 LINE",
"16 0 LINE"
);
},
{
closed = 1;
nodes = (
"455 251 LINE",
"455 485 LINE",
"431 485 LINE",
"427 436 OFFCURVE",
"424 388 OFFCURVE",
"379 388 CURVE SMOOTH",
"162 388 LINE",
"162 348 LINE",
"379 348 LINE SMOOTH",
"424 348 OFFCURVE",
"427 300 OFFCURVE",
"431 251 CURVE"
);
},
{
closed = 1;
nodes = (
"286 858 LINE",
"297 868 OFFCURVE",
"309 878 OFFCURVE",
"318 878 CURVE SMOOTH",
"324 878 OFFCURVE",
"332 873 OFFCURVE",
"341 867 CURVE",
"447 781 LINE",
"466 803 LINE",
"344 932 LINE",
"293 932 LINE",
"171 803 LINE",
"189 781 LINE"
);
},
{
closed = 1;
nodes = (
"493 898 LINE",
"474 905 OFFCURVE",
"464 912 OFFCURVE",
"464 926 CURVE SMOOTH",
"464 954 OFFCURVE",
"544 965 OFFCURVE",
"544 1010 CURVE SMOOTH",
"544 1047 OFFCURVE",
"502 1063 OFFCURVE",
"460 1063 CURVE SMOOTH",
"429 1063 OFFCURVE",
"384 1053 OFFCURVE",
"384 1022 CURVE SMOOTH",
"384 1010 OFFCURVE",
"395 1001 OFFCURVE",
"405 1001 CURVE SMOOTH",
"434 1001 OFFCURVE",
"421 1040 OFFCURVE",
"464 1040 CURVE SMOOTH",
"483 1040 OFFCURVE",
"494 1028 OFFCURVE",
"494 1013 CURVE SMOOTH",
"494 973 OFFCURVE",
"421 965 OFFCURVE",
"421 925 CURVE SMOOTH",
"421 901 OFFCURVE",
"437 880 OFFCURVE",
"484 880 CURVE"
);
}
);
};
components = (
{
name = E;
},
{
name = circumflexhookabove;
transform = "{1, 0, 0, 1, 539, 230}";
}
);
layerId = "39D19F74-97F3-4EB6-8D96-77117D45ABB1";
width = 553;
}
);
note = Ecircumflexhookabove;
unicode = 1EC2;
},
{
color = 6;
glyphname = Ecircumflextilde;
lastChange = "2018-05-17 09:43:45 +0000";
layers = (
{
background = {
paths = (
{
closed = 1;
nodes = (
"554 0 LINE",
"571 179 LINE",
"544 179 LINE",
"538 124 OFFCURVE",
"520 40 OFFCURVE",
"456 40 CURVE SMOOTH",
"201 40 LINE",
"201 659 LINE",
"441 659 LINE SMOOTH",
"516 659 OFFCURVE",
"525 567 OFFCURVE",
"528 527 CURVE",
"555 527 LINE",
"555 700 LINE",
"16 700 LINE",
"16 673 LINE",
"44 673 LINE SMOOTH",
"83 673 OFFCURVE",
"103 662 OFFCURVE",
"103 637 CURVE SMOOTH",
"103 62 LINE SMOOTH",
"103 37 OFFCURVE",
"83 26 OFFCURVE",
"44 26 CURVE SMOOTH",
"16 26 LINE",
"16 0 LINE"
);
},
{
closed = 1;
nodes = (
"455 251 LINE",
"455 485 LINE",
"431 485 LINE",
"427 436 OFFCURVE",
"424 388 OFFCURVE",
"379 388 CURVE SMOOTH",
"162 388 LINE",
"162 348 LINE",
"379 348 LINE SMOOTH",
"424 348 OFFCURVE",
"427 300 OFFCURVE",
"431 251 CURVE"
);
},
{
closed = 1;
nodes = (
"290 862 LINE SMOOTH",
"300 870 OFFCURVE",
"310 878 OFFCURVE",
"318 878 CURVE SMOOTH",
"324 878 OFFCURVE",
"332 873 OFFCURVE",
"341 867 CURVE",
"447 781 LINE",
"466 803 LINE",
"344 932 LINE",
"293 932 LINE",
"171 803 LINE",
"189 781 LINE"
);
},
{
closed = 1;
nodes = (
"193 997 OFFCURVE",
"211 1018 OFFCURVE",
"242 1018 CURVE SMOOTH",
"291 1018 OFFCURVE",
"338 964 OFFCURVE",
"387 964 CURVE SMOOTH",
"440 964 OFFCURVE",
"469 1012 OFFCURVE",
"481 1063 CURVE",
"460 1075 LINE",
"447 1035 OFFCURVE",
"431 1012 OFFCURVE",
"398 1012 CURVE SMOOTH",
"351 1012 OFFCURVE",
"302 1065 OFFCURVE",
"253 1065 CURVE SMOOTH",
"202 1065 OFFCURVE",
"170 1021 OFFCURVE",
"160 970 CURVE",
"180 958 LINE"
);
}
);
};
components = (
{
name = E;
},
{
name = circumflextilde;
transform = "{1, 0, 0, 1, 515, 230}";
}
);
layerId = "0B1DFD06-3317-40CA-B510-4969A0718C16";
width = 509;
},
{
background = {
paths = (
{
closed = 1;
nodes = (
"554 0 LINE",
"571 179 LINE",
"544 179 LINE",
"538 124 OFFCURVE",
"520 40 OFFCURVE",
"456 40 CURVE SMOOTH",
"201 40 LINE",
"201 659 LINE",
"441 659 LINE SMOOTH",
"516 659 OFFCURVE",
"525 567 OFFCURVE",
"528 527 CURVE",
"555 527 LINE",
"555 700 LINE",
"16 700 LINE",
"16 673 LINE",
"44 673 LINE SMOOTH",
"83 673 OFFCURVE",
"103 662 OFFCURVE",
"103 637 CURVE SMOOTH",
"103 62 LINE SMOOTH",
"103 37 OFFCURVE",
"83 26 OFFCURVE",
"44 26 CURVE SMOOTH",
"16 26 LINE",
"16 0 LINE"
);
},
{
closed = 1;
nodes = (
"455 251 LINE",
"455 485 LINE",
"431 485 LINE",
"427 436 OFFCURVE",
"424 388 OFFCURVE",
"379 388 CURVE SMOOTH",
"162 388 LINE",
"162 348 LINE",
"379 348 LINE SMOOTH",
"424 348 OFFCURVE",
"427 300 OFFCURVE",
"431 251 CURVE"
);
},
{
closed = 1;
nodes = (
"290 862 LINE SMOOTH",
"300 870 OFFCURVE",
"310 878 OFFCURVE",
"318 878 CURVE SMOOTH",
"324 878 OFFCURVE",
"332 873 OFFCURVE",
"341 867 CURVE",
"447 781 LINE",
"466 803 LINE",
"344 932 LINE",
"293 932 LINE",
"171 803 LINE",
"189 781 LINE"
);
},
{
closed = 1;
nodes = (
"193 997 OFFCURVE",
"211 1018 OFFCURVE",
"242 1018 CURVE SMOOTH",
"291 1018 OFFCURVE",
"338 964 OFFCURVE",
"387 964 CURVE SMOOTH",
"440 964 OFFCURVE",
"469 1012 OFFCURVE",
"481 1063 CURVE",
"460 1075 LINE",
"447 1035 OFFCURVE",
"431 1012 OFFCURVE",
"398 1012 CURVE SMOOTH",
"351 1012 OFFCURVE",
"302 1065 OFFCURVE",
"253 1065 CURVE SMOOTH",
"202 1065 OFFCURVE",
"170 1021 OFFCURVE",
"160 970 CURVE",
"180 958 LINE"
);
}
);
};
components = (
{
name = E;
},
{
name = circumflextilde;
transform = "{1, 0, 0, 1, 539, 230}";
}
);
layerId = "39D19F74-97F3-4EB6-8D96-77117D45ABB1";
width = 553;
}
);
note = Ecircumflextilde;
unicode = 1EC4;
},
{
color = 6;
glyphname = Edieresis;
lastChange = "2018-05-17 04:13:38 +0000";
layers = (
{
background = {
paths = (
{
closed = 1;
nodes = (
"554 0 LINE",
"571 179 LINE",
"544 179 LINE",
"538 124 OFFCURVE",
"520 40 OFFCURVE",
"456 40 CURVE SMOOTH",
"201 40 LINE",
"201 659 LINE",
"441 659 LINE SMOOTH",
"516 659 OFFCURVE",
"525 567 OFFCURVE",
"528 527 CURVE",
"555 527 LINE",
"555 700 LINE",
"16 700 LINE",
"16 673 LINE",
"44 673 LINE SMOOTH",
"83 673 OFFCURVE",
"103 662 OFFCURVE",
"103 637 CURVE SMOOTH",
"103 62 LINE SMOOTH",
"103 37 OFFCURVE",
"83 26 OFFCURVE",
"44 26 CURVE SMOOTH",
"16 26 LINE",
"16 0 LINE"
);
},
{
closed = 1;
nodes = (
"455 251 LINE",
"455 485 LINE",
"431 485 LINE",
"427 436 OFFCURVE",
"424 388 OFFCURVE",
"379 388 CURVE SMOOTH",
"162 388 LINE",
"162 348 LINE",
"379 348 LINE SMOOTH",
"424 348 OFFCURVE",
"427 300 OFFCURVE",
"431 251 CURVE"
);
},
{
closed = 1;
nodes = (
"254 781 OFFCURVE",
"272 800 OFFCURVE",
"272 827 CURVE SMOOTH",
"272 855 OFFCURVE",
"254 875 OFFCURVE",
"225 875 CURVE SMOOTH",
"197 875 OFFCURVE",
"179 855 OFFCURVE",
"179 827 CURVE SMOOTH",
"179 800 OFFCURVE",
"197 781 OFFCURVE",
"225 781 CURVE SMOOTH"
);
},
{
closed = 1;
nodes = (
"470 781 OFFCURVE",
"488 800 OFFCURVE",
"488 827 CURVE SMOOTH",
"488 855 OFFCURVE",
"470 875 OFFCURVE",
"441 875 CURVE SMOOTH",
"412 875 OFFCURVE",
"394 855 OFFCURVE",
"394 827 CURVE SMOOTH",
"394 800 OFFCURVE",
"412 781 OFFCURVE",
"441 781 CURVE SMOOTH"
);
}
);
};
components = (
{
name = E;
},
{
name = dieresiscomb;
transform = "{1, 0, 0, 1, 266, 230}";
}
);
layerId = "0B1DFD06-3317-40CA-B510-4969A0718C16";
width = 509;
},
{
background = {
paths = (
{
closed = 1;
nodes = (
"554 0 LINE",
"571 179 LINE",
"544 179 LINE",
"538 124 OFFCURVE",
"520 40 OFFCURVE",
"456 40 CURVE SMOOTH",
"201 40 LINE",
"201 659 LINE",
"441 659 LINE SMOOTH",
"516 659 OFFCURVE",
"525 567 OFFCURVE",
"528 527 CURVE",
"555 527 LINE",
"555 700 LINE",
"16 700 LINE",
"16 673 LINE",
"44 673 LINE SMOOTH",
"83 673 OFFCURVE",
"103 662 OFFCURVE",
"103 637 CURVE SMOOTH",
"103 62 LINE SMOOTH",
"103 37 OFFCURVE",
"83 26 OFFCURVE",
"44 26 CURVE SMOOTH",
"16 26 LINE",
"16 0 LINE"
);
},
{
closed = 1;
nodes = (
"455 251 LINE",
"455 485 LINE",
"431 485 LINE",
"427 436 OFFCURVE",
"424 388 OFFCURVE",
"379 388 CURVE SMOOTH",
"162 388 LINE",
"162 348 LINE",
"379 348 LINE SMOOTH",
"424 348 OFFCURVE",
"427 300 OFFCURVE",
"431 251 CURVE"
);
},
{
closed = 1;
nodes = (
"254 781 OFFCURVE",
"272 800 OFFCURVE",
"272 827 CURVE SMOOTH",
"272 855 OFFCURVE",
"254 875 OFFCURVE",
"225 875 CURVE SMOOTH",
"197 875 OFFCURVE",
"179 855 OFFCURVE",
"179 827 CURVE SMOOTH",
"179 800 OFFCURVE",
"197 781 OFFCURVE",
"225 781 CURVE SMOOTH"
);
},
{
closed = 1;
nodes = (
"470 781 OFFCURVE",
"488 800 OFFCURVE",
"488 827 CURVE SMOOTH",
"488 855 OFFCURVE",
"470 875 OFFCURVE",
"441 875 CURVE SMOOTH",
"412 875 OFFCURVE",
"394 855 OFFCURVE",
"394 827 CURVE SMOOTH",
"394 800 OFFCURVE",
"412 781 OFFCURVE",
"441 781 CURVE SMOOTH"
);
}
);
};
components = (
{
name = E;
},
{
name = dieresiscomb;
transform = "{1, 0, 0, 1, 290, 230}";
}
);
layerId = "39D19F74-97F3-4EB6-8D96-77117D45ABB1";
width = 553;
}
);
note = Edieresis;
unicode = 00CB;
},
{
color = 6;
glyphname = Edotaccent;
lastChange = "2018-05-17 04:28:21 +0000";
layers = (
{
background = {
paths = (
{
closed = 1;
nodes = (
"554 0 LINE",
"571 179 LINE",
"544 179 LINE",
"538 124 OFFCURVE",
"520 40 OFFCURVE",
"456 40 CURVE SMOOTH",
"201 40 LINE",
"201 659 LINE",
"441 659 LINE SMOOTH",
"516 659 OFFCURVE",
"525 567 OFFCURVE",
"528 527 CURVE",
"555 527 LINE",
"555 700 LINE",
"16 700 LINE",
"16 673 LINE",
"44 673 LINE SMOOTH",
"83 673 OFFCURVE",
"103 662 OFFCURVE",
"103 637 CURVE SMOOTH",
"103 62 LINE SMOOTH",
"103 37 OFFCURVE",
"83 26 OFFCURVE",
"44 26 CURVE SMOOTH",
"16 26 LINE",
"16 0 LINE"
);
},
{
closed = 1;
nodes = (
"455 251 LINE",
"455 485 LINE",
"431 485 LINE",
"427 436 OFFCURVE",
"424 388 OFFCURVE",
"379 388 CURVE SMOOTH",
"162 388 LINE",
"162 348 LINE",
"379 348 LINE SMOOTH",
"424 348 OFFCURVE",
"427 300 OFFCURVE",
"431 251 CURVE"
);
},
{
closed = 1;
nodes = (
"362 765 OFFCURVE",
"380 784 OFFCURVE",
"380 811 CURVE SMOOTH",
"380 839 OFFCURVE",
"362 858 OFFCURVE",
"334 858 CURVE SMOOTH",
"305 858 OFFCURVE",
"287 839 OFFCURVE",
"287 811 CURVE SMOOTH",
"287 784 OFFCURVE",
"305 765 OFFCURVE",
"334 765 CURVE SMOOTH"
);
}
);
};
components = (
{
name = E;
},
{
name = dotaccentcomb;
transform = "{1, 0, 0, 1, 266, 230}";
}
);
layerId = "0B1DFD06-3317-40CA-B510-4969A0718C16";
width = 509;
},
{
background = {
paths = (
{
closed = 1;
nodes = (
"554 0 LINE",
"571 179 LINE",
"544 179 LINE",
"538 124 OFFCURVE",
"520 40 OFFCURVE",
"456 40 CURVE SMOOTH",
"201 40 LINE",
"201 659 LINE",
"441 659 LINE SMOOTH",
"516 659 OFFCURVE",
"525 567 OFFCURVE",
"528 527 CURVE",
"555 527 LINE",
"555 700 LINE",
"16 700 LINE",
"16 673 LINE",
"44 673 LINE SMOOTH",
"83 673 OFFCURVE",
"103 662 OFFCURVE",
"103 637 CURVE SMOOTH",
"103 62 LINE SMOOTH",
"103 37 OFFCURVE",
"83 26 OFFCURVE",
"44 26 CURVE SMOOTH",
"16 26 LINE",
"16 0 LINE"
);
},
{
closed = 1;
nodes = (
"455 251 LINE",
"455 485 LINE",
"431 485 LINE",
"427 436 OFFCURVE",
"424 388 OFFCURVE",
"379 388 CURVE SMOOTH",
"162 388 LINE",
"162 348 LINE",
"379 348 LINE SMOOTH",
"424 348 OFFCURVE",
"427 300 OFFCURVE",
"431 251 CURVE"
);
},
{
closed = 1;
nodes = (
"362 765 OFFCURVE",
"380 784 OFFCURVE",
"380 811 CURVE SMOOTH",
"380 839 OFFCURVE",
"362 858 OFFCURVE",
"334 858 CURVE SMOOTH",
"305 858 OFFCURVE",
"287 839 OFFCURVE",
"287 811 CURVE SMOOTH",
"287 784 OFFCURVE",
"305 765 OFFCURVE",
"334 765 CURVE SMOOTH"
);
}
);
};
components = (
{
name = E;
},
{
name = dotaccentcomb;
transform = "{1, 0, 0, 1, 290, 230}";
}
);
layerId = "39D19F74-97F3-4EB6-8D96-77117D45ABB1";
width = 553;
}
);
note = Edotaccent;
unicode = 0116;
},
{
color = 6;
glyphname = Edotbelow;
lastChange = "2018-05-17 04:28:21 +0000";
layers = (
{
background = {
paths = (
{
closed = 1;
nodes = (
"554 0 LINE",
"571 179 LINE",
"544 179 LINE",
"538 124 OFFCURVE",
"520 40 OFFCURVE",
"456 40 CURVE SMOOTH",
"201 40 LINE",
"201 659 LINE",
"441 659 LINE SMOOTH",
"516 659 OFFCURVE",
"525 567 OFFCURVE",
"528 527 CURVE",
"555 527 LINE",
"555 700 LINE",
"16 700 LINE",
"16 673 LINE",
"44 673 LINE SMOOTH",
"83 673 OFFCURVE",
"103 662 OFFCURVE",
"103 637 CURVE SMOOTH",
"103 62 LINE SMOOTH",
"103 37 OFFCURVE",
"83 26 OFFCURVE",
"44 26 CURVE SMOOTH",
"16 26 LINE",
"16 0 LINE"
);
},
{
closed = 1;
nodes = (
"343 -159 OFFCURVE",
"361 -140 OFFCURVE",
"361 -112 CURVE SMOOTH",
"361 -84 OFFCURVE",
"343 -64 OFFCURVE",
"315 -64 CURVE SMOOTH",
"287 -64 OFFCURVE",
"268 -84 OFFCURVE",
"268 -112 CURVE SMOOTH",
"268 -140 OFFCURVE",
"287 -159 OFFCURVE",
"315 -159 CURVE SMOOTH"
);
},
{
closed = 1;
nodes = (
"455 251 LINE",
"455 485 LINE",
"431 485 LINE",
"427 436 OFFCURVE",
"424 388 OFFCURVE",
"379 388 CURVE SMOOTH",
"162 388 LINE",
"162 348 LINE",
"379 348 LINE SMOOTH",
"424 348 OFFCURVE",
"427 300 OFFCURVE",
"431 251 CURVE"
);
}
);
};
components = (
{
name = E;
},
{
name = dotbelowcomb;
transform = "{1, 0, 0, 1, 266, 0}";
}
);
layerId = "0B1DFD06-3317-40CA-B510-4969A0718C16";
width = 509;
},
{
background = {
paths = (
{
closed = 1;
nodes = (
"554 0 LINE",
"571 179 LINE",
"544 179 LINE",
"538 124 OFFCURVE",
"520 40 OFFCURVE",
"456 40 CURVE SMOOTH",
"201 40 LINE",
"201 659 LINE",
"441 659 LINE SMOOTH",
"516 659 OFFCURVE",
"525 567 OFFCURVE",
"528 527 CURVE",
"555 527 LINE",
"555 700 LINE",
"16 700 LINE",
"16 673 LINE",
"44 673 LINE SMOOTH",
"83 673 OFFCURVE",
"103 662 OFFCURVE",
"103 637 CURVE SMOOTH",
"103 62 LINE SMOOTH",
"103 37 OFFCURVE",
"83 26 OFFCURVE",
"44 26 CURVE SMOOTH",
"16 26 LINE",
"16 0 LINE"
);
},
{
closed = 1;
nodes = (
"343 -159 OFFCURVE",
"361 -140 OFFCURVE",
"361 -112 CURVE SMOOTH",
"361 -84 OFFCURVE",
"343 -64 OFFCURVE",
"315 -64 CURVE SMOOTH",
"287 -64 OFFCURVE",
"268 -84 OFFCURVE",
"268 -112 CURVE SMOOTH",
"268 -140 OFFCURVE",
"287 -159 OFFCURVE",
"315 -159 CURVE SMOOTH"
);
},
{
closed = 1;
nodes = (
"455 251 LINE",
"455 485 LINE",
"431 485 LINE",
"427 436 OFFCURVE",
"424 388 OFFCURVE",
"379 388 CURVE SMOOTH",
"162 388 LINE",
"162 348 LINE",
"379 348 LINE SMOOTH",
"424 348 OFFCURVE",
"427 300 OFFCURVE",
"431 251 CURVE"
);
}
);
};
components = (
{
name = E;
},
{
name = dotbelowcomb;
transform = "{1, 0, 0, 1, 290, -30}";
}
);
layerId = "39D19F74-97F3-4EB6-8D96-77117D45ABB1";
width = 553;
}
);
note = Edotbelow;
unicode = 1EB8;
},
{
color = 6;
glyphname = Egrave;
lastChange = "2018-05-17 04:30:54 +0000";
layers = (
{
background = {
paths = (
{
closed = 1;
nodes = (
"554 0 LINE",
"571 179 LINE",
"544 179 LINE",
"538 124 OFFCURVE",
"520 40 OFFCURVE",
"456 40 CURVE SMOOTH",
"201 40 LINE",
"201 659 LINE",
"441 659 LINE SMOOTH",
"516 659 OFFCURVE",
"525 567 OFFCURVE",
"528 527 CURVE",
"555 527 LINE",
"555 700 LINE",
"16 700 LINE",
"16 673 LINE",
"44 673 LINE SMOOTH",
"83 673 OFFCURVE",
"103 662 OFFCURVE",
"103 637 CURVE SMOOTH",
"103 62 LINE SMOOTH",
"103 37 OFFCURVE",
"83 26 OFFCURVE",
"44 26 CURVE SMOOTH",
"16 26 LINE",
"16 0 LINE"
);
},
{
closed = 1;
nodes = (
"455 251 LINE",
"455 485 LINE",
"431 485 LINE",
"427 436 OFFCURVE",
"424 388 OFFCURVE",
"379 388 CURVE SMOOTH",
"162 388 LINE",
"162 348 LINE",
"379 348 LINE SMOOTH",
"424 348 OFFCURVE",
"427 300 OFFCURVE",
"431 251 CURVE"
);
},
{
closed = 1;
nodes = (
"425 807 LINE",
"310 913 LINE",
"301 922 OFFCURVE",
"285 937 OFFCURVE",
"265 937 CURVE SMOOTH",
"245 937 OFFCURVE",
"233 924 OFFCURVE",
"233 908 CURVE SMOOTH",
"233 890 OFFCURVE",
"245 876 OFFCURVE",
"264 865 CURVE SMOOTH",
"407 782 LINE"
);
}
);
};
components = (
{
name = E;
},
{
name = gravecomb;
transform = "{1, 0, 0, 1, 199, 230}";
}
);
layerId = "0B1DFD06-3317-40CA-B510-4969A0718C16";
width = 509;
},
{
background = {
paths = (
{
closed = 1;
nodes = (
"554 0 LINE",
"571 179 LINE",
"544 179 LINE",
"538 124 OFFCURVE",
"520 40 OFFCURVE",
"456 40 CURVE SMOOTH",
"201 40 LINE",
"201 659 LINE",
"441 659 LINE SMOOTH",
"516 659 OFFCURVE",
"525 567 OFFCURVE",
"528 527 CURVE",
"555 527 LINE",
"555 700 LINE",
"16 700 LINE",
"16 673 LINE",
"44 673 LINE SMOOTH",
"83 673 OFFCURVE",
"103 662 OFFCURVE",
"103 637 CURVE SMOOTH",
"103 62 LINE SMOOTH",
"103 37 OFFCURVE",
"83 26 OFFCURVE",
"44 26 CURVE SMOOTH",
"16 26 LINE",
"16 0 LINE"
);
},
{
closed = 1;
nodes = (
"455 251 LINE",
"455 485 LINE",
"431 485 LINE",
"427 436 OFFCURVE",
"424 388 OFFCURVE",
"379 388 CURVE SMOOTH",
"162 388 LINE",
"162 348 LINE",
"379 348 LINE SMOOTH",
"424 348 OFFCURVE",
"427 300 OFFCURVE",
"431 251 CURVE"
);
},
{
closed = 1;
nodes = (
"425 807 LINE",
"310 913 LINE",
"301 922 OFFCURVE",
"285 937 OFFCURVE",
"265 937 CURVE SMOOTH",
"245 937 OFFCURVE",
"233 924 OFFCURVE",
"233 908 CURVE SMOOTH",
"233 890 OFFCURVE",
"245 876 OFFCURVE",
"264 865 CURVE SMOOTH",
"407 782 LINE"
);
}
);
};
components = (
{
name = E;
},
{
name = gravecomb;
transform = "{1, 0, 0, 1, 223, 230}";
}
);
layerId = "39D19F74-97F3-4EB6-8D96-77117D45ABB1";
width = 553;
}
);
note = Egrave;
unicode = 00C8;
},
{
color = 6;
glyphname = Ehookabove;
lastChange = "2018-05-17 08:23:19 +0000";
layers = (
{
background = {
paths = (
{
closed = 1;
nodes = (
"554 0 LINE",
"571 179 LINE",
"544 179 LINE",
"538 124 OFFCURVE",
"520 40 OFFCURVE",
"456 40 CURVE SMOOTH",
"201 40 LINE",
"201 659 LINE",
"441 659 LINE SMOOTH",
"516 659 OFFCURVE",
"525 567 OFFCURVE",
"528 527 CURVE",
"555 527 LINE",
"555 700 LINE",
"16 700 LINE",
"16 673 LINE",
"44 673 LINE SMOOTH",
"83 673 OFFCURVE",
"103 662 OFFCURVE",
"103 637 CURVE SMOOTH",
"103 62 LINE SMOOTH",
"103 37 OFFCURVE",
"83 26 OFFCURVE",
"44 26 CURVE SMOOTH",
"16 26 LINE",
"16 0 LINE"
);
},
{
closed = 1;
nodes = (
"455 251 LINE",
"455 485 LINE",
"431 485 LINE",
"427 436 OFFCURVE",
"424 388 OFFCURVE",
"379 388 CURVE SMOOTH",
"162 388 LINE",
"162 348 LINE",
"379 348 LINE SMOOTH",
"424 348 OFFCURVE",
"427 300 OFFCURVE",
"431 251 CURVE"
);
},
{
closed = 1;
nodes = (
"367 798 LINE",
"348 805 OFFCURVE",
"336 811 OFFCURVE",
"336 828 CURVE SMOOTH",
"336 861 OFFCURVE",
"425 876 OFFCURVE",
"425 927 CURVE SMOOTH",
"425 969 OFFCURVE",
"389 991 OFFCURVE",
"336 991 CURVE SMOOTH",
"289 991 OFFCURVE",
"248 974 OFFCURVE",
"248 940 CURVE SMOOTH",
"248 923 OFFCURVE",
"256 915 OFFCURVE",
"271 915 CURVE SMOOTH",
"294 915 OFFCURVE",
"296 934 OFFCURVE",
"299 942 CURVE SMOOTH",
"304 956 OFFCURVE",
"321 962 OFFCURVE",
"337 962 CURVE SMOOTH",
"358 962 OFFCURVE",
"371 947 OFFCURVE",
"371 930 CURVE SMOOTH",
"371 885 OFFCURVE",
"289 874 OFFCURVE",
"289 828 CURVE SMOOTH",
"289 801 OFFCURVE",
"307 778 OFFCURVE",
"358 778 CURVE"
);
}
);
};
components = (
{
name = E;
},
{
name = hookabovecomb;
transform = "{1, 0, 0, 1, 5, 230}";
}
);
layerId = "0B1DFD06-3317-40CA-B510-4969A0718C16";
width = 509;
},
{
background = {
paths = (
{
closed = 1;
nodes = (
"554 0 LINE",
"571 179 LINE",
"544 179 LINE",
"538 124 OFFCURVE",
"520 40 OFFCURVE",
"456 40 CURVE SMOOTH",
"201 40 LINE",
"201 659 LINE",
"441 659 LINE SMOOTH",
"516 659 OFFCURVE",
"525 567 OFFCURVE",
"528 527 CURVE",
"555 527 LINE",
"555 700 LINE",
"16 700 LINE",
"16 673 LINE",
"44 673 LINE SMOOTH",
"83 673 OFFCURVE",
"103 662 OFFCURVE",
"103 637 CURVE SMOOTH",
"103 62 LINE SMOOTH",
"103 37 OFFCURVE",
"83 26 OFFCURVE",
"44 26 CURVE SMOOTH",
"16 26 LINE",
"16 0 LINE"
);
},
{
closed = 1;
nodes = (
"455 251 LINE",
"455 485 LINE",
"431 485 LINE",
"427 436 OFFCURVE",
"424 388 OFFCURVE",
"379 388 CURVE SMOOTH",
"162 388 LINE",
"162 348 LINE",
"379 348 LINE SMOOTH",
"424 348 OFFCURVE",
"427 300 OFFCURVE",
"431 251 CURVE"
);
},
{
closed = 1;
nodes = (
"367 798 LINE",
"348 805 OFFCURVE",
"336 811 OFFCURVE",
"336 828 CURVE SMOOTH",
"336 861 OFFCURVE",
"425 876 OFFCURVE",
"425 927 CURVE SMOOTH",
"425 969 OFFCURVE",
"389 991 OFFCURVE",
"336 991 CURVE SMOOTH",
"289 991 OFFCURVE",
"248 974 OFFCURVE",
"248 940 CURVE SMOOTH",
"248 923 OFFCURVE",
"256 915 OFFCURVE",
"271 915 CURVE SMOOTH",
"294 915 OFFCURVE",
"296 934 OFFCURVE",
"299 942 CURVE SMOOTH",
"304 956 OFFCURVE",
"321 962 OFFCURVE",
"337 962 CURVE SMOOTH",
"358 962 OFFCURVE",
"371 947 OFFCURVE",
"371 930 CURVE SMOOTH",
"371 885 OFFCURVE",
"289 874 OFFCURVE",
"289 828 CURVE SMOOTH",
"289 801 OFFCURVE",
"307 778 OFFCURVE",
"358 778 CURVE"
);
}
);
};
components = (
{
name = E;
},
{
name = hookabovecomb;
transform = "{1, 0, 0, 1, 117, 230}";
}
);
layerId = "39D19F74-97F3-4EB6-8D96-77117D45ABB1";
width = 553;
}
);
note = Ehookabove;
unicode = 1EBA;
},
{
color = 6;
glyphname = Emacron;
lastChange = "2018-05-17 06:27:06 +0000";
layers = (
{
background = {
paths = (
{
closed = 1;
nodes = (
"554 0 LINE",
"571 179 LINE",
"544 179 LINE",
"538 124 OFFCURVE",
"520 40 OFFCURVE",
"456 40 CURVE SMOOTH",
"201 40 LINE",
"201 659 LINE",
"441 659 LINE SMOOTH",
"516 659 OFFCURVE",
"525 567 OFFCURVE",
"528 527 CURVE",
"555 527 LINE",
"555 700 LINE",
"16 700 LINE",
"16 673 LINE",
"44 673 LINE SMOOTH",
"83 673 OFFCURVE",
"103 662 OFFCURVE",
"103 637 CURVE SMOOTH",
"103 62 LINE SMOOTH",
"103 37 OFFCURVE",
"83 26 OFFCURVE",
"44 26 CURVE SMOOTH",
"16 26 LINE",
"16 0 LINE"
);
},
{
closed = 1;
nodes = (
"455 251 LINE",
"455 485 LINE",
"431 485 LINE",
"427 436 OFFCURVE",
"424 388 OFFCURVE",
"379 388 CURVE SMOOTH",
"162 388 LINE",
"162 348 LINE",
"379 348 LINE SMOOTH",
"424 348 OFFCURVE",
"427 300 OFFCURVE",
"431 251 CURVE"
);
},
{
closed = 1;
nodes = (
"495 782 LINE",
"495 824 LINE",
"162 824 LINE",
"162 782 LINE"
);
}
);
};
components = (
{
name = E;
},
{
name = macroncomb;
transform = "{1, 0, 0, 1, 265, 230}";
}
);
layerId = "0B1DFD06-3317-40CA-B510-4969A0718C16";
width = 509;
},
{
background = {
paths = (
{
closed = 1;
nodes = (
"554 0 LINE",
"571 179 LINE",
"544 179 LINE",
"538 124 OFFCURVE",
"520 40 OFFCURVE",
"456 40 CURVE SMOOTH",
"201 40 LINE",
"201 659 LINE",
"441 659 LINE SMOOTH",
"516 659 OFFCURVE",
"525 567 OFFCURVE",
"528 527 CURVE",
"555 527 LINE",
"555 700 LINE",
"16 700 LINE",
"16 673 LINE",
"44 673 LINE SMOOTH",
"83 673 OFFCURVE",
"103 662 OFFCURVE",
"103 637 CURVE SMOOTH",
"103 62 LINE SMOOTH",
"103 37 OFFCURVE",
"83 26 OFFCURVE",
"44 26 CURVE SMOOTH",
"16 26 LINE",
"16 0 LINE"
);
},
{
closed = 1;
nodes = (
"455 251 LINE",
"455 485 LINE",
"431 485 LINE",
"427 436 OFFCURVE",
"424 388 OFFCURVE",
"379 388 CURVE SMOOTH",
"162 388 LINE",
"162 348 LINE",
"379 348 LINE SMOOTH",
"424 348 OFFCURVE",
"427 300 OFFCURVE",
"431 251 CURVE"
);
},
{
closed = 1;
nodes = (
"495 782 LINE",
"495 824 LINE",
"162 824 LINE",
"162 782 LINE"
);
}
);
};
components = (
{
name = E;
},
{
name = macroncomb;
transform = "{1, 0, 0, 1, 289, 230}";
}
);
layerId = "39D19F74-97F3-4EB6-8D96-77117D45ABB1";
width = 553;
}
);
note = Emacron;
unicode = 0112;
},
{
color = 6;
glyphname = Eogonek;
lastChange = "2018-05-17 06:40:21 +0000";
layers = (
{
background = {
paths = (
{
closed = 1;
nodes = (
"554 0 LINE",
"571 179 LINE",
"544 179 LINE",
"538 124 OFFCURVE",
"520 40 OFFCURVE",
"456 40 CURVE SMOOTH",
"201 40 LINE",
"201 659 LINE",
"441 659 LINE SMOOTH",
"516 659 OFFCURVE",
"525 567 OFFCURVE",
"528 527 CURVE",
"555 527 LINE",
"555 700 LINE",
"16 700 LINE",
"16 673 LINE",
"44 673 LINE SMOOTH",
"83 673 OFFCURVE",
"103 662 OFFCURVE",
"103 637 CURVE SMOOTH",
"103 62 LINE SMOOTH",
"103 37 OFFCURVE",
"83 26 OFFCURVE",
"44 26 CURVE SMOOTH",
"16 26 LINE",
"16 0 LINE"
);
},
{
closed = 1;
nodes = (
"496 -196 OFFCURVE",
"524 -189 OFFCURVE",
"549 -172 CURVE",
"543 -152 LINE",
"527 -158 OFFCURVE",
"510 -162 OFFCURVE",
"497 -162 CURVE SMOOTH",
"464 -162 OFFCURVE",
"437 -146 OFFCURVE",
"437 -106 CURVE SMOOTH",
"437 -66 OFFCURVE",
"464 -26 OFFCURVE",
"510 4 CURVE",
"469 4 LINE",
"416 -22 OFFCURVE",
"376 -64 OFFCURVE",
"376 -114 CURVE SMOOTH",
"376 -147 OFFCURVE",
"395 -196 OFFCURVE",
"470 -196 CURVE SMOOTH"
);
},
{
closed = 1;
nodes = (
"455 251 LINE",
"455 485 LINE",
"431 485 LINE",
"427 436 OFFCURVE",
"424 388 OFFCURVE",
"379 388 CURVE SMOOTH",
"162 388 LINE",
"162 348 LINE",
"379 348 LINE SMOOTH",
"424 348 OFFCURVE",
"427 300 OFFCURVE",
"431 251 CURVE"
);
}
);
};
components = (
{
name = E;
},
{
name = ogonekcomb;
transform = "{1, 0, 0, 1, 412, 0}";
}
);
layerId = "0B1DFD06-3317-40CA-B510-4969A0718C16";
width = 509;
},
{
background = {
paths = (
{
closed = 1;
nodes = (
"554 0 LINE",
"571 179 LINE",
"544 179 LINE",
"538 124 OFFCURVE",
"520 40 OFFCURVE",
"456 40 CURVE SMOOTH",
"201 40 LINE",
"201 659 LINE",
"441 659 LINE SMOOTH",
"516 659 OFFCURVE",
"525 567 OFFCURVE",
"528 527 CURVE",
"555 527 LINE",
"555 700 LINE",
"16 700 LINE",
"16 673 LINE",
"44 673 LINE SMOOTH",
"83 673 OFFCURVE",
"103 662 OFFCURVE",
"103 637 CURVE SMOOTH",
"103 62 LINE SMOOTH",
"103 37 OFFCURVE",
"83 26 OFFCURVE",
"44 26 CURVE SMOOTH",
"16 26 LINE",
"16 0 LINE"
);
},
{
closed = 1;
nodes = (
"496 -196 OFFCURVE",
"524 -189 OFFCURVE",
"549 -172 CURVE",
"543 -152 LINE",
"527 -158 OFFCURVE",
"510 -162 OFFCURVE",
"497 -162 CURVE SMOOTH",
"464 -162 OFFCURVE",
"437 -146 OFFCURVE",
"437 -106 CURVE SMOOTH",
"437 -66 OFFCURVE",
"464 -26 OFFCURVE",
"510 4 CURVE",
"469 4 LINE",
"416 -22 OFFCURVE",
"376 -64 OFFCURVE",
"376 -114 CURVE SMOOTH",
"376 -147 OFFCURVE",
"395 -196 OFFCURVE",
"470 -196 CURVE SMOOTH"
);
},
{
closed = 1;
nodes = (
"455 251 LINE",
"455 485 LINE",
"431 485 LINE",
"427 436 OFFCURVE",
"424 388 OFFCURVE",
"379 388 CURVE SMOOTH",
"162 388 LINE",
"162 348 LINE",
"379 348 LINE SMOOTH",
"424 348 OFFCURVE",
"427 300 OFFCURVE",
"431 251 CURVE"
);
}
);
};
components = (
{
name = E;
},
{
name = ogonekcomb;
transform = "{1, 0, 0, 1, 436, 0}";
}
);
layerId = "39D19F74-97F3-4EB6-8D96-77117D45ABB1";
width = 553;
}
);
note = Eogonek;
unicode = 0118;
},
{
color = 6;
glyphname = Etilde;
lastChange = "2018-05-17 06:27:09 +0000";
layers = (
{
background = {
paths = (
{
closed = 1;
nodes = (
"554 0 LINE",
"571 179 LINE",
"544 179 LINE",
"538 124 OFFCURVE",
"520 40 OFFCURVE",
"456 40 CURVE SMOOTH",
"201 40 LINE",
"201 659 LINE",
"441 659 LINE SMOOTH",
"516 659 OFFCURVE",
"525 567 OFFCURVE",
"528 527 CURVE",
"555 527 LINE",
"555 700 LINE",
"16 700 LINE",
"16 673 LINE",
"44 673 LINE SMOOTH",
"83 673 OFFCURVE",
"103 662 OFFCURVE",
"103 637 CURVE SMOOTH",
"103 62 LINE SMOOTH",
"103 37 OFFCURVE",
"83 26 OFFCURVE",
"44 26 CURVE SMOOTH",
"16 26 LINE",
"16 0 LINE"
);
},
{
closed = 1;
nodes = (
"455 251 LINE",
"455 485 LINE",
"431 485 LINE",
"427 436 OFFCURVE",
"424 388 OFFCURVE",
"379 388 CURVE SMOOTH",
"162 388 LINE",
"162 348 LINE",
"379 348 LINE SMOOTH",
"424 348 OFFCURVE",
"427 300 OFFCURVE",
"431 251 CURVE"
);
},
{
closed = 1;
nodes = (
"190 817 OFFCURVE",
"208 838 OFFCURVE",
"241 838 CURVE SMOOTH",
"292 838 OFFCURVE",
"341 784 OFFCURVE",
"392 784 CURVE SMOOTH",
"450 784 OFFCURVE",
"480 832 OFFCURVE",
"492 884 CURVE",
"471 895 LINE",
"455 855 OFFCURVE",
"439 833 OFFCURVE",
"405 833 CURVE SMOOTH",
"356 833 OFFCURVE",
"304 886 OFFCURVE",
"253 886 CURVE SMOOTH",
"199 886 OFFCURVE",
"166 842 OFFCURVE",
"154 790 CURVE",
"176 779 LINE"
);
}
);
};
components = (
{
name = E;
},
{
name = tildecomb;
transform = "{1, 0, 0, 1, 265, 230}";
}
);
layerId = "0B1DFD06-3317-40CA-B510-4969A0718C16";
width = 509;
},
{
background = {
paths = (
{
closed = 1;
nodes = (
"554 0 LINE",
"571 179 LINE",
"544 179 LINE",
"538 124 OFFCURVE",
"520 40 OFFCURVE",
"456 40 CURVE SMOOTH",
"201 40 LINE",
"201 659 LINE",
"441 659 LINE SMOOTH",
"516 659 OFFCURVE",
"525 567 OFFCURVE",
"528 527 CURVE",
"555 527 LINE",
"555 700 LINE",
"16 700 LINE",
"16 673 LINE",
"44 673 LINE SMOOTH",
"83 673 OFFCURVE",
"103 662 OFFCURVE",
"103 637 CURVE SMOOTH",
"103 62 LINE SMOOTH",
"103 37 OFFCURVE",
"83 26 OFFCURVE",
"44 26 CURVE SMOOTH",
"16 26 LINE",
"16 0 LINE"
);
},
{
closed = 1;
nodes = (
"455 251 LINE",
"455 485 LINE",
"431 485 LINE",
"427 436 OFFCURVE",
"424 388 OFFCURVE",
"379 388 CURVE SMOOTH",
"162 388 LINE",
"162 348 LINE",
"379 348 LINE SMOOTH",
"424 348 OFFCURVE",
"427 300 OFFCURVE",
"431 251 CURVE"
);
},
{
closed = 1;
nodes = (
"190 817 OFFCURVE",
"208 838 OFFCURVE",
"241 838 CURVE SMOOTH",
"292 838 OFFCURVE",
"341 784 OFFCURVE",
"392 784 CURVE SMOOTH",
"450 784 OFFCURVE",
"480 832 OFFCURVE",
"492 884 CURVE",
"471 895 LINE",
"455 855 OFFCURVE",
"439 833 OFFCURVE",
"405 833 CURVE SMOOTH",
"356 833 OFFCURVE",
"304 886 OFFCURVE",
"253 886 CURVE SMOOTH",
"199 886 OFFCURVE",
"166 842 OFFCURVE",
"154 790 CURVE",
"176 779 LINE"
);
}
);
};
components = (
{
name = E;
},
{
name = tildecomb;
transform = "{1, 0, 0, 1, 289, 230}";
}
);
layerId = "39D19F74-97F3-4EB6-8D96-77117D45ABB1";
width = 553;
}
);
note = Etilde;
unicode = 1EBC;
},
{
color = 6;
glyphname = Hbar;
lastChange = "2018-05-17 09:45:27 +0000";
layers = (
{
components = (
{
name = H;
transform = "{1, 0, 0, 1, 32, 0}";
}
);
layerId = "0B1DFD06-3317-40CA-B510-4969A0718C16";
paths = (
{
closed = 1;
nodes = (
"651 514 LINE",
"651 560 LINE",
"35 560 LINE",
"35 514 LINE"
);
}
);
width = 686;
},
{
components = (
{
name = H;
transform = "{1, 0, 0, 1, 42, 0}";
}
);
layerId = "39D19F74-97F3-4EB6-8D96-77117D45ABB1";
paths = (
{
closed = 1;
nodes = (
"680 514 LINE",
"680 610 LINE",
"35 610 LINE",
"35 514 LINE"
);
}
);
width = 715;
}
);
note = Hbar;
unicode = 0126;
},
{
color = 6;
glyphname = Lslash;
lastChange = "2018-05-26 07:26:35 +0000";
layers = (
{
components = (
{
name = L;
transform = "{1, 0, 0, 1, 50, 0}";
}
);
layerId = "0B1DFD06-3317-40CA-B510-4969A0718C16";
paths = (
{
closed = 1;
nodes = (
"45 262 LINE",
"357 412 LINE",
"357 462 LINE",
"45 312 LINE"
);
}
);
width = 533;
},
{
components = (
{
name = L;
transform = "{1, 0, 0, 1, 40, 0}";
}
);
layerId = "39D19F74-97F3-4EB6-8D96-77117D45ABB1";
paths = (
{
closed = 1;
nodes = (
"35 232 LINE",
"387 392 LINE",
"387 502 LINE",
"35 342 LINE"
);
}
);
width = 574;
}
);
note = Lslash;
unicode = 0141;
},
{
color = 6;
glyphname = Nacute;
lastChange = "2018-05-17 04:32:08 +0000";
layers = (
{
background = {
paths = (
{
closed = 1;
nodes = (
"247 0 LINE",
"247 26 LINE",
"217 26 LINE SMOOTH",
"179 26 OFFCURVE",
"159 37 OFFCURVE",
"159 62 CURVE SMOOTH",
"159 642 LINE",
"587 0 LINE",
"645 0 LINE",
"645 637 LINE SMOOTH",
"645 662 OFFCURVE",
"665 673 OFFCURVE",
"703 673 CURVE SMOOTH",
"733 673 LINE",
"733 700 LINE",
"508 700 LINE",
"508 673 LINE",
"537 673 LINE SMOOTH",
"576 673 OFFCURVE",
"595 662 OFFCURVE",
"595 637 CURVE SMOOTH",
"595 126 LINE",
"217 700 LINE",
"22 700 LINE",
"22 673 LINE",
"51 673 LINE SMOOTH",
"90 673 OFFCURVE",
"109 662 OFFCURVE",
"109 637 CURVE SMOOTH",
"109 62 LINE SMOOTH",
"109 37 OFFCURVE",
"90 26 OFFCURVE",
"51 26 CURVE SMOOTH",
"22 26 LINE",
"22 0 LINE"
);
},
{
closed = 1;
nodes = (
"458 865 LINE SMOOTH",
"480 877 OFFCURVE",
"492 890 OFFCURVE",
"492 907 CURVE SMOOTH",
"492 922 OFFCURVE",
"480 937 OFFCURVE",
"458 937 CURVE SMOOTH",
"437 937 OFFCURVE",
"422 921 OFFCURVE",
"414 914 CURVE SMOOTH",
"299 807 LINE",
"316 782 LINE"
);
}
);
};
components = (
{
name = N;
},
{
name = acutecomb;
transform = "{1, 0, 0, 1, 339, 230}";
}
);
layerId = "0B1DFD06-3317-40CA-B510-4969A0718C16";
width = 617;
},
{
background = {
paths = (
{
closed = 1;
nodes = (
"247 0 LINE",
"247 26 LINE",
"217 26 LINE SMOOTH",
"179 26 OFFCURVE",
"159 37 OFFCURVE",
"159 62 CURVE SMOOTH",
"159 642 LINE",
"587 0 LINE",
"645 0 LINE",
"645 637 LINE SMOOTH",
"645 662 OFFCURVE",
"665 673 OFFCURVE",
"703 673 CURVE SMOOTH",
"733 673 LINE",
"733 700 LINE",
"508 700 LINE",
"508 673 LINE",
"537 673 LINE SMOOTH",
"576 673 OFFCURVE",
"595 662 OFFCURVE",
"595 637 CURVE SMOOTH",
"595 126 LINE",
"217 700 LINE",
"22 700 LINE",
"22 673 LINE",
"51 673 LINE SMOOTH",
"90 673 OFFCURVE",
"109 662 OFFCURVE",
"109 637 CURVE SMOOTH",
"109 62 LINE SMOOTH",
"109 37 OFFCURVE",
"90 26 OFFCURVE",
"51 26 CURVE SMOOTH",
"22 26 LINE",
"22 0 LINE"
);
},
{
closed = 1;
nodes = (
"458 865 LINE SMOOTH",
"480 877 OFFCURVE",
"492 890 OFFCURVE",
"492 907 CURVE SMOOTH",
"492 922 OFFCURVE",
"480 937 OFFCURVE",
"458 937 CURVE SMOOTH",
"437 937 OFFCURVE",
"422 921 OFFCURVE",
"414 914 CURVE SMOOTH",
"299 807 LINE",
"316 782 LINE"
);
}
);
};
components = (
{
name = N;
},
{
name = acutecomb;
transform = "{1, 0, 0, 1, 360, 230}";
}
);
layerId = "39D19F74-97F3-4EB6-8D96-77117D45ABB1";
width = 628;
}
);
note = Nacute;
unicode = 0143;
},
{
color = 6;
glyphname = Ncaron;
lastChange = "2018-05-17 05:13:55 +0000";
layers = (
{
background = {
paths = (
{
closed = 1;
nodes = (
"247 0 LINE",
"247 26 LINE",
"217 26 LINE SMOOTH",
"179 26 OFFCURVE",
"159 37 OFFCURVE",
"159 62 CURVE SMOOTH",
"159 642 LINE",
"587 0 LINE",
"645 0 LINE",
"645 637 LINE SMOOTH",
"645 662 OFFCURVE",
"665 673 OFFCURVE",
"703 673 CURVE SMOOTH",
"733 673 LINE",
"733 700 LINE",
"508 700 LINE",
"508 673 LINE",
"537 673 LINE SMOOTH",
"576 673 OFFCURVE",
"595 662 OFFCURVE",
"595 637 CURVE SMOOTH",
"595 126 LINE",
"217 700 LINE",
"22 700 LINE",
"22 673 LINE",
"51 673 LINE SMOOTH",
"90 673 OFFCURVE",
"109 662 OFFCURVE",
"109 637 CURVE SMOOTH",
"109 62 LINE SMOOTH",
"109 37 OFFCURVE",
"90 26 OFFCURVE",
"51 26 CURVE SMOOTH",
"22 26 LINE",
"22 0 LINE"
);
},
{
closed = 1;
nodes = (
"403 782 LINE",
"527 911 LINE",
"508 932 LINE",
"400 847 LINE",
"392 840 OFFCURVE",
"383 836 OFFCURVE",
"377 836 CURVE SMOOTH",
"371 836 OFFCURVE",
"363 840 OFFCURVE",
"353 847 CURVE",
"245 932 LINE",
"226 911 LINE",
"350 782 LINE"
);
}
);
};
components = (
{
name = N;
},
{
name = caroncomb;
transform = "{1, 0, 0, 1, 309, 230}";
}
);
layerId = "0B1DFD06-3317-40CA-B510-4969A0718C16";
width = 617;
},
{
background = {
paths = (
{
closed = 1;
nodes = (
"247 0 LINE",
"247 26 LINE",
"217 26 LINE SMOOTH",
"179 26 OFFCURVE",
"159 37 OFFCURVE",
"159 62 CURVE SMOOTH",
"159 642 LINE",
"587 0 LINE",
"645 0 LINE",
"645 637 LINE SMOOTH",
"645 662 OFFCURVE",
"665 673 OFFCURVE",
"703 673 CURVE SMOOTH",
"733 673 LINE",
"733 700 LINE",
"508 700 LINE",
"508 673 LINE",
"537 673 LINE SMOOTH",
"576 673 OFFCURVE",
"595 662 OFFCURVE",
"595 637 CURVE SMOOTH",
"595 126 LINE",
"217 700 LINE",
"22 700 LINE",
"22 673 LINE",
"51 673 LINE SMOOTH",
"90 673 OFFCURVE",
"109 662 OFFCURVE",
"109 637 CURVE SMOOTH",
"109 62 LINE SMOOTH",
"109 37 OFFCURVE",
"90 26 OFFCURVE",
"51 26 CURVE SMOOTH",
"22 26 LINE",
"22 0 LINE"
);
},
{
closed = 1;
nodes = (
"403 782 LINE",
"527 911 LINE",
"508 932 LINE",
"400 847 LINE",
"392 840 OFFCURVE",
"383 836 OFFCURVE",
"377 836 CURVE SMOOTH",
"371 836 OFFCURVE",
"363 840 OFFCURVE",
"353 847 CURVE",
"245 932 LINE",
"226 911 LINE",
"350 782 LINE"
);
}
);
};
components = (
{
name = N;
},
{
name = caroncomb;
transform = "{1, 0, 0, 1, 330, 230}";
}
);
layerId = "39D19F74-97F3-4EB6-8D96-77117D45ABB1";
width = 628;
}
);
note = Ncaron;
unicode = 0147;
},
{
color = 6;
glyphname = Ncommaaccent;
lastChange = "2018-05-17 09:23:59 +0000";
layers = (
{
background = {
paths = (
{
closed = 1;
nodes = (
"247 0 LINE",
"247 26 LINE",
"217 26 LINE SMOOTH",
"179 26 OFFCURVE",
"159 37 OFFCURVE",
"159 62 CURVE SMOOTH",
"159 642 LINE",
"587 0 LINE",
"645 0 LINE",
"645 637 LINE SMOOTH",
"645 662 OFFCURVE",
"665 673 OFFCURVE",
"703 673 CURVE SMOOTH",
"733 673 LINE",
"733 700 LINE",
"508 700 LINE",
"508 673 LINE",
"537 673 LINE SMOOTH",
"576 673 OFFCURVE",
"595 662 OFFCURVE",
"595 637 CURVE SMOOTH",
"595 126 LINE",
"217 700 LINE",
"22 700 LINE",
"22 673 LINE",
"51 673 LINE SMOOTH",
"90 673 OFFCURVE",
"109 662 OFFCURVE",
"109 637 CURVE SMOOTH",
"109 62 LINE SMOOTH",
"109 37 OFFCURVE",
"90 26 OFFCURVE",
"51 26 CURVE SMOOTH",
"22 26 LINE",
"22 0 LINE"
);
},
{
closed = 1;
nodes = (
"369 -258 OFFCURVE",
"413 -198 OFFCURVE",
"413 -135 CURVE SMOOTH",
"413 -87 OFFCURVE",
"389 -67 OFFCURVE",
"360 -67 CURVE SMOOTH",
"331 -67 OFFCURVE",
"314 -87 OFFCURVE",
"314 -111 CURVE SMOOTH",
"314 -145 OFFCURVE",
"349 -152 OFFCURVE",
"349 -187 CURVE SMOOTH",
"349 -223 OFFCURVE",
"323 -256 OFFCURVE",
"296 -282 CURVE",
"313 -299 LINE"
);
}
);
};
components = (
{
name = N;
},
{
name = commaaccentcomb;
transform = "{1, 0, 0, 1, 202, 0}";
}
);
layerId = "0B1DFD06-3317-40CA-B510-4969A0718C16";
width = 617;
},
{
background = {
paths = (
{
closed = 1;
nodes = (
"247 0 LINE",
"247 26 LINE",
"217 26 LINE SMOOTH",
"179 26 OFFCURVE",
"159 37 OFFCURVE",
"159 62 CURVE SMOOTH",
"159 642 LINE",
"587 0 LINE",
"645 0 LINE",
"645 637 LINE SMOOTH",
"645 662 OFFCURVE",
"665 673 OFFCURVE",
"703 673 CURVE SMOOTH",
"733 673 LINE",
"733 700 LINE",
"508 700 LINE",
"508 673 LINE",
"537 673 LINE SMOOTH",
"576 673 OFFCURVE",
"595 662 OFFCURVE",
"595 637 CURVE SMOOTH",
"595 126 LINE",
"217 700 LINE",
"22 700 LINE",
"22 673 LINE",
"51 673 LINE SMOOTH",
"90 673 OFFCURVE",
"109 662 OFFCURVE",
"109 637 CURVE SMOOTH",
"109 62 LINE SMOOTH",
"109 37 OFFCURVE",
"90 26 OFFCURVE",
"51 26 CURVE SMOOTH",
"22 26 LINE",
"22 0 LINE"
);
},
{
closed = 1;
nodes = (
"369 -258 OFFCURVE",
"413 -198 OFFCURVE",
"413 -135 CURVE SMOOTH",
"413 -87 OFFCURVE",
"389 -67 OFFCURVE",
"360 -67 CURVE SMOOTH",
"331 -67 OFFCURVE",
"314 -87 OFFCURVE",
"314 -111 CURVE SMOOTH",
"314 -145 OFFCURVE",
"349 -152 OFFCURVE",
"349 -187 CURVE SMOOTH",
"349 -223 OFFCURVE",
"323 -256 OFFCURVE",
"296 -282 CURVE",
"313 -299 LINE"
);
}
);
};
components = (
{
name = N;
},
{
name = commaaccentcomb;
transform = "{1, 0, 0, 1, 216, 0}";
}
);
layerId = "39D19F74-97F3-4EB6-8D96-77117D45ABB1";
width = 628;
}
);
note = Ncommaaccent;
unicode = 0145;
},
{
color = 6;
glyphname = Ndotaccent;
lastChange = "2018-05-17 04:41:25 +0000";
layers = (
{
background = {
paths = (
{
closed = 1;
nodes = (
"247 0 LINE",
"247 26 LINE",
"217 26 LINE SMOOTH",
"179 26 OFFCURVE",
"159 37 OFFCURVE",
"159 62 CURVE SMOOTH",
"159 642 LINE",
"587 0 LINE",
"645 0 LINE",
"645 637 LINE SMOOTH",
"645 662 OFFCURVE",
"665 673 OFFCURVE",
"703 673 CURVE SMOOTH",
"733 673 LINE",
"733 700 LINE",
"508 700 LINE",
"508 673 LINE",
"537 673 LINE SMOOTH",
"576 673 OFFCURVE",
"595 662 OFFCURVE",
"595 637 CURVE SMOOTH",
"595 126 LINE",
"217 700 LINE",
"22 700 LINE",
"22 673 LINE",
"51 673 LINE SMOOTH",
"90 673 OFFCURVE",
"109 662 OFFCURVE",
"109 637 CURVE SMOOTH",
"109 62 LINE SMOOTH",
"109 37 OFFCURVE",
"90 26 OFFCURVE",
"51 26 CURVE SMOOTH",
"22 26 LINE",
"22 0 LINE"
);
},
{
closed = 1;
nodes = (
"405 765 OFFCURVE",
"423 784 OFFCURVE",
"423 811 CURVE SMOOTH",
"423 839 OFFCURVE",
"405 858 OFFCURVE",
"377 858 CURVE SMOOTH",
"348 858 OFFCURVE",
"330 839 OFFCURVE",
"330 811 CURVE SMOOTH",
"330 784 OFFCURVE",
"348 765 OFFCURVE",
"377 765 CURVE SMOOTH"
);
}
);
};
components = (
{
name = N;
},
{
name = dotaccentcomb;
transform = "{1, 0, 0, 1, 309, 230}";
}
);
layerId = "0B1DFD06-3317-40CA-B510-4969A0718C16";
width = 617;
},
{
background = {
paths = (
{
closed = 1;
nodes = (
"247 0 LINE",
"247 26 LINE",
"217 26 LINE SMOOTH",
"179 26 OFFCURVE",
"159 37 OFFCURVE",
"159 62 CURVE SMOOTH",
"159 642 LINE",
"587 0 LINE",
"645 0 LINE",
"645 637 LINE SMOOTH",
"645 662 OFFCURVE",
"665 673 OFFCURVE",
"703 673 CURVE SMOOTH",
"733 673 LINE",
"733 700 LINE",
"508 700 LINE",
"508 673 LINE",
"537 673 LINE SMOOTH",
"576 673 OFFCURVE",
"595 662 OFFCURVE",
"595 637 CURVE SMOOTH",
"595 126 LINE",
"217 700 LINE",
"22 700 LINE",
"22 673 LINE",
"51 673 LINE SMOOTH",
"90 673 OFFCURVE",
"109 662 OFFCURVE",
"109 637 CURVE SMOOTH",
"109 62 LINE SMOOTH",
"109 37 OFFCURVE",
"90 26 OFFCURVE",
"51 26 CURVE SMOOTH",
"22 26 LINE",
"22 0 LINE"
);
},
{
closed = 1;
nodes = (
"405 765 OFFCURVE",
"423 784 OFFCURVE",
"423 811 CURVE SMOOTH",
"423 839 OFFCURVE",
"405 858 OFFCURVE",
"377 858 CURVE SMOOTH",
"348 858 OFFCURVE",
"330 839 OFFCURVE",
"330 811 CURVE SMOOTH",
"330 784 OFFCURVE",
"348 765 OFFCURVE",
"377 765 CURVE SMOOTH"
);
}
);
};
components = (
{
name = N;
},
{
name = dotaccentcomb;
transform = "{1, 0, 0, 1, 330, 230}";
}
);
layerId = "39D19F74-97F3-4EB6-8D96-77117D45ABB1";
width = 628;
}
);
note = Ndotaccent;
unicode = 1E44;
},
{
color = 6;
glyphname = Ndotbelow;
lastChange = "2018-05-17 04:23:21 +0000";
layers = (
{
background = {
paths = (
{
closed = 1;
nodes = (
"247 0 LINE",
"247 26 LINE",
"217 26 LINE SMOOTH",
"179 26 OFFCURVE",
"159 37 OFFCURVE",
"159 62 CURVE SMOOTH",
"159 642 LINE",
"587 0 LINE",
"645 0 LINE",
"645 637 LINE SMOOTH",
"645 662 OFFCURVE",
"665 673 OFFCURVE",
"703 673 CURVE SMOOTH",
"733 673 LINE",
"733 700 LINE",
"508 700 LINE",
"508 673 LINE",
"537 673 LINE SMOOTH",
"576 673 OFFCURVE",
"595 662 OFFCURVE",
"595 637 CURVE SMOOTH",
"595 126 LINE",
"217 700 LINE",
"22 700 LINE",
"22 673 LINE",
"51 673 LINE SMOOTH",
"90 673 OFFCURVE",
"109 662 OFFCURVE",
"109 637 CURVE SMOOTH",
"109 62 LINE SMOOTH",
"109 37 OFFCURVE",
"90 26 OFFCURVE",
"51 26 CURVE SMOOTH",
"22 26 LINE",
"22 0 LINE"
);
},
{
closed = 1;
nodes = (
"415 -159 OFFCURVE",
"433 -140 OFFCURVE",
"433 -112 CURVE SMOOTH",
"433 -84 OFFCURVE",
"415 -64 OFFCURVE",
"387 -64 CURVE SMOOTH",
"359 -64 OFFCURVE",
"340 -84 OFFCURVE",
"340 -112 CURVE SMOOTH",
"340 -140 OFFCURVE",
"359 -159 OFFCURVE",
"387 -159 CURVE SMOOTH"
);
}
);
};
components = (
{
name = N;
},
{
name = dotbelowcomb;
transform = "{1, 0, 0, 1, 309, 0}";
}
);
layerId = "0B1DFD06-3317-40CA-B510-4969A0718C16";
width = 617;
},
{
background = {
paths = (
{
closed = 1;
nodes = (
"247 0 LINE",
"247 26 LINE",
"217 26 LINE SMOOTH",
"179 26 OFFCURVE",
"159 37 OFFCURVE",
"159 62 CURVE SMOOTH",
"159 642 LINE",
"587 0 LINE",
"645 0 LINE",
"645 637 LINE SMOOTH",
"645 662 OFFCURVE",
"665 673 OFFCURVE",
"703 673 CURVE SMOOTH",
"733 673 LINE",
"733 700 LINE",
"508 700 LINE",
"508 673 LINE",
"537 673 LINE SMOOTH",
"576 673 OFFCURVE",
"595 662 OFFCURVE",
"595 637 CURVE SMOOTH",
"595 126 LINE",
"217 700 LINE",
"22 700 LINE",
"22 673 LINE",
"51 673 LINE SMOOTH",
"90 673 OFFCURVE",
"109 662 OFFCURVE",
"109 637 CURVE SMOOTH",
"109 62 LINE SMOOTH",
"109 37 OFFCURVE",
"90 26 OFFCURVE",
"51 26 CURVE SMOOTH",
"22 26 LINE",
"22 0 LINE"
);
},
{
closed = 1;
nodes = (
"415 -159 OFFCURVE",
"433 -140 OFFCURVE",
"433 -112 CURVE SMOOTH",
"433 -84 OFFCURVE",
"415 -64 OFFCURVE",
"387 -64 CURVE SMOOTH",
"359 -64 OFFCURVE",
"340 -84 OFFCURVE",
"340 -112 CURVE SMOOTH",
"340 -140 OFFCURVE",
"359 -159 OFFCURVE",
"387 -159 CURVE SMOOTH"
);
}
);
};
components = (
{
name = N;
},
{
name = dotbelowcomb;
transform = "{1, 0, 0, 1, 330, -30}";
}
);
layerId = "39D19F74-97F3-4EB6-8D96-77117D45ABB1";
width = 628;
}
);
note = uni1E46;
unicode = 1E46;
},
{
color = 6;
glyphname = Eng;
lastChange = "2018-05-17 06:42:07 +0000";
layers = (
{
anchors = (
{
name = bottom;
position = "{826, 0}";
},
{
name = top;
position = "{927, 700}";
}
);
background = {
paths = (
{
closed = 1;
nodes = (
"592 -259 OFFCURVE",
"645 -182 OFFCURVE",
"645 -36 CURVE SMOOTH",
"645 637 LINE SMOOTH",
"645 662 OFFCURVE",
"665 673 OFFCURVE",
"703 673 CURVE SMOOTH",
"733 673 LINE",
"733 700 LINE",
"508 700 LINE",
"508 673 LINE",
"537 673 LINE SMOOTH",
"576 673 OFFCURVE",
"595 662 OFFCURVE",
"595 637 CURVE SMOOTH",
"595 125 LINE",
"219 700 LINE",
"22 700 LINE",
"22 673 LINE",
"51 673 LINE SMOOTH",
"90 673 OFFCURVE",
"109 662 OFFCURVE",
"109 637 CURVE SMOOTH",
"109 62 LINE SMOOTH",
"109 37 OFFCURVE",
"93 26 OFFCURVE",
"51 26 CURVE SMOOTH",
"22 26 LINE",
"22 0 LINE",
"247 0 LINE",
"247 26 LINE",
"217 26 LINE SMOOTH",
"179 26 OFFCURVE",
"159 37 OFFCURVE",
"159 62 CURVE SMOOTH",
"159 647 LINE",
"586 0 LINE",
"586 -76 LINE SMOOTH",
"586 -173 OFFCURVE",
"510 -238 OFFCURVE",
"423 -243 CURVE",
"427 -268 LINE"
);
}
);
};
layerId = "0B1DFD06-3317-40CA-B510-4969A0718C16";
paths = (
{
closed = 1;
nodes = (
"51 670 OFFCURVE",
"78 670 OFFCURVE",
"78 634 CURVE SMOOTH",
"78 0 LINE",
"132 0 LINE",
"132 579 LINE",
"484 9.704 LINE",
"484 -94 LINE SMOOTH",
"484 -174 OFFCURVE",
"444 -216 OFFCURVE",
"369 -216 CURVE SMOOTH",
"336 -216 OFFCURVE",
"292 -203 OFFCURVE",
"271 -185 CURVE",
"248 -230 LINE",
"279 -249 OFFCURVE",
"326 -265 OFFCURVE",
"365 -265 CURVE SMOOTH",
"472 -265 OFFCURVE",
"538 -200 OFFCURVE",
"538 -91 CURVE SMOOTH",
"538 700 LINE",
"484 700 LINE",
"484 104 LINE",
"116 701 LINE",
"110 710 OFFCURVE",
"97 718 OFFCURVE",
"91 718 CURVE SMOOTH",
"72 718 OFFCURVE",
"59 696 OFFCURVE",
"56 687 CURVE"
);
}
);
width = 618;
},
{
anchors = (
{
name = bottom;
position = "{826, 0}";
},
{
name = top;
position = "{927, 700}";
}
);
background = {
paths = (
{
closed = 1;
nodes = (
"592 -259 OFFCURVE",
"645 -182 OFFCURVE",
"645 -36 CURVE SMOOTH",
"645 637 LINE SMOOTH",
"645 662 OFFCURVE",
"665 673 OFFCURVE",
"703 673 CURVE SMOOTH",
"733 673 LINE",
"733 700 LINE",
"508 700 LINE",
"508 673 LINE",
"537 673 LINE SMOOTH",
"576 673 OFFCURVE",
"595 662 OFFCURVE",
"595 637 CURVE SMOOTH",
"595 125 LINE",
"219 700 LINE",
"22 700 LINE",
"22 673 LINE",
"51 673 LINE SMOOTH",
"90 673 OFFCURVE",
"109 662 OFFCURVE",
"109 637 CURVE SMOOTH",
"109 62 LINE SMOOTH",
"109 37 OFFCURVE",
"93 26 OFFCURVE",
"51 26 CURVE SMOOTH",
"22 26 LINE",
"22 0 LINE",
"247 0 LINE",
"247 26 LINE",
"217 26 LINE SMOOTH",
"179 26 OFFCURVE",
"159 37 OFFCURVE",
"159 62 CURVE SMOOTH",
"159 647 LINE",
"586 0 LINE",
"586 -76 LINE SMOOTH",
"586 -173 OFFCURVE",
"510 -238 OFFCURVE",
"423 -243 CURVE",
"427 -268 LINE"
);
}
);
};
layerId = "39D19F74-97F3-4EB6-8D96-77117D45ABB1";
paths = (
{
closed = 1;
nodes = (
"26 627 OFFCURVE",
"58 632 OFFCURVE",
"58 597 CURVE SMOOTH",
"58 0 LINE",
"192 0 LINE",
"192 443 LINE",
"449 33 LINE",
"449 -66 LINE SMOOTH",
"449 -129 OFFCURVE",
"424 -156 OFFCURVE",
"367 -156 CURVE SMOOTH",
"325 -156 OFFCURVE",
"291 -145 OFFCURVE",
"250 -120 CURVE",
"197 -211 LINE",
"243 -247 OFFCURVE",
"306 -267 OFFCURVE",
"371 -267 CURVE SMOOTH",
"505 -267 OFFCURVE",
"583 -186 OFFCURVE",
"583 -63 CURVE SMOOTH",
"583 700 LINE",
"449 700 LINE",
"449 240 LINE",
"169 688 LINE SMOOTH",
"157 707 OFFCURVE",
"137 718 OFFCURVE",
"111 718 CURVE SMOOTH",
"78 718 OFFCURVE",
"48 700 OFFCURVE",
"37 664 CURVE SMOOTH"
);
}
);
width = 633;
}
);
note = Eng;
unicode = 014A;
},
{
color = 6;
glyphname = Nlinebelow;
lastChange = "2018-05-17 06:31:24 +0000";
layers = (
{
background = {
paths = (
{
closed = 1;
nodes = (
"247 0 LINE",
"247 26 LINE",
"217 26 LINE SMOOTH",
"179 26 OFFCURVE",
"159 37 OFFCURVE",
"159 62 CURVE SMOOTH",
"159 642 LINE",
"587 0 LINE",
"645 0 LINE",
"645 637 LINE SMOOTH",
"645 662 OFFCURVE",
"665 673 OFFCURVE",
"703 673 CURVE SMOOTH",
"733 673 LINE",
"733 700 LINE",
"508 700 LINE",
"508 673 LINE",
"537 673 LINE SMOOTH",
"576 673 OFFCURVE",
"595 662 OFFCURVE",
"595 637 CURVE SMOOTH",
"595 126 LINE",
"217 700 LINE",
"22 700 LINE",
"22 673 LINE",
"51 673 LINE SMOOTH",
"90 673 OFFCURVE",
"109 662 OFFCURVE",
"109 637 CURVE SMOOTH",
"109 62 LINE SMOOTH",
"109 37 OFFCURVE",
"90 26 OFFCURVE",
"51 26 CURVE SMOOTH",
"22 26 LINE",
"22 0 LINE"
);
},
{
closed = 1;
nodes = (
"542 -110 LINE",
"542 -72 LINE",
"210 -72 LINE",
"210 -110 LINE"
);
}
);
};
components = (
{
name = N;
},
{
name = macronbelowcomb;
transform = "{1, 0, 0, 1, 308, 0}";
}
);
layerId = "0B1DFD06-3317-40CA-B510-4969A0718C16";
width = 617;
},
{
background = {
paths = (
{
closed = 1;
nodes = (
"247 0 LINE",
"247 26 LINE",
"217 26 LINE SMOOTH",
"179 26 OFFCURVE",
"159 37 OFFCURVE",
"159 62 CURVE SMOOTH",
"159 642 LINE",
"587 0 LINE",
"645 0 LINE",
"645 637 LINE SMOOTH",
"645 662 OFFCURVE",
"665 673 OFFCURVE",
"703 673 CURVE SMOOTH",
"733 673 LINE",
"733 700 LINE",
"508 700 LINE",
"508 673 LINE",
"537 673 LINE SMOOTH",
"576 673 OFFCURVE",
"595 662 OFFCURVE",
"595 637 CURVE SMOOTH",
"595 126 LINE",
"217 700 LINE",
"22 700 LINE",
"22 673 LINE",
"51 673 LINE SMOOTH",
"90 673 OFFCURVE",
"109 662 OFFCURVE",
"109 637 CURVE SMOOTH",
"109 62 LINE SMOOTH",
"109 37 OFFCURVE",
"90 26 OFFCURVE",
"51 26 CURVE SMOOTH",
"22 26 LINE",
"22 0 LINE"
);
},
{
closed = 1;
nodes = (
"542 -110 LINE",
"542 -72 LINE",
"210 -72 LINE",
"210 -110 LINE"
);
}
);
};
components = (
{
name = N;
},
{
name = macronbelowcomb;
transform = "{1, 0, 0, 1, 329, 0}";
}
);
layerId = "39D19F74-97F3-4EB6-8D96-77117D45ABB1";
width = 628;
}
);
note = Nlinebelow;
unicode = 1E48;
},
{
color = 6;
glyphname = Ntilde;
lastChange = "2018-05-17 05:44:21 +0000";
layers = (
{
background = {
paths = (
{
closed = 1;
nodes = (
"247 0 LINE",
"247 26 LINE",
"217 26 LINE SMOOTH",
"179 26 OFFCURVE",
"159 37 OFFCURVE",
"159 62 CURVE SMOOTH",
"159 642 LINE",
"587 0 LINE",
"645 0 LINE",
"645 637 LINE SMOOTH",
"645 662 OFFCURVE",
"665 673 OFFCURVE",
"703 673 CURVE SMOOTH",
"733 673 LINE",
"733 700 LINE",
"508 700 LINE",
"508 673 LINE",
"537 673 LINE SMOOTH",
"576 673 OFFCURVE",
"595 662 OFFCURVE",
"595 637 CURVE SMOOTH",
"595 126 LINE",
"217 700 LINE",
"22 700 LINE",
"22 673 LINE",
"51 673 LINE SMOOTH",
"90 673 OFFCURVE",
"109 662 OFFCURVE",
"109 637 CURVE SMOOTH",
"109 62 LINE SMOOTH",
"109 37 OFFCURVE",
"90 26 OFFCURVE",
"51 26 CURVE SMOOTH",
"22 26 LINE",
"22 0 LINE"
);
},
{
closed = 1;
nodes = (
"254 818 OFFCURVE",
"272 839 OFFCURVE",
"305 839 CURVE SMOOTH",
"356 839 OFFCURVE",
"405 785 OFFCURVE",
"456 785 CURVE SMOOTH",
"514 785 OFFCURVE",
"544 833 OFFCURVE",
"556 885 CURVE",
"535 896 LINE",
"519 856 OFFCURVE",
"503 834 OFFCURVE",
"469 834 CURVE SMOOTH",
"420 834 OFFCURVE",
"368 887 OFFCURVE",
"317 887 CURVE SMOOTH",
"263 887 OFFCURVE",
"230 843 OFFCURVE",
"218 791 CURVE",
"240 780 LINE"
);
}
);
};
components = (
{
name = N;
},
{
name = tildecomb;
transform = "{1, 0, 0, 1, 308, 230}";
}
);
layerId = "0B1DFD06-3317-40CA-B510-4969A0718C16";
width = 617;
},
{
background = {
paths = (
{
closed = 1;
nodes = (
"247 0 LINE",
"247 26 LINE",
"217 26 LINE SMOOTH",
"179 26 OFFCURVE",
"159 37 OFFCURVE",
"159 62 CURVE SMOOTH",
"159 642 LINE",
"587 0 LINE",
"645 0 LINE",
"645 637 LINE SMOOTH",
"645 662 OFFCURVE",
"665 673 OFFCURVE",
"703 673 CURVE SMOOTH",
"733 673 LINE",
"733 700 LINE",
"508 700 LINE",
"508 673 LINE",
"537 673 LINE SMOOTH",
"576 673 OFFCURVE",
"595 662 OFFCURVE",
"595 637 CURVE SMOOTH",
"595 126 LINE",
"217 700 LINE",
"22 700 LINE",
"22 673 LINE",
"51 673 LINE SMOOTH",
"90 673 OFFCURVE",
"109 662 OFFCURVE",
"109 637 CURVE SMOOTH",
"109 62 LINE SMOOTH",
"109 37 OFFCURVE",
"90 26 OFFCURVE",
"51 26 CURVE SMOOTH",
"22 26 LINE",
"22 0 LINE"
);
},
{
closed = 1;
nodes = (
"254 818 OFFCURVE",
"272 839 OFFCURVE",
"305 839 CURVE SMOOTH",
"356 839 OFFCURVE",
"405 785 OFFCURVE",
"456 785 CURVE SMOOTH",
"514 785 OFFCURVE",
"544 833 OFFCURVE",
"556 885 CURVE",
"535 896 LINE",
"519 856 OFFCURVE",
"503 834 OFFCURVE",
"469 834 CURVE SMOOTH",
"420 834 OFFCURVE",
"368 887 OFFCURVE",
"317 887 CURVE SMOOTH",
"263 887 OFFCURVE",
"230 843 OFFCURVE",
"218 791 CURVE",
"240 780 LINE"
);
}
);
};
components = (
{
name = N;
},
{
name = tildecomb;
transform = "{1, 0, 0, 1, 329, 230}";
}
);
layerId = "39D19F74-97F3-4EB6-8D96-77117D45ABB1";
width = 628;
}
);
note = Ntilde;
unicode = 00D1;
},
{
color = 6;
glyphname = Oacute;
lastChange = "2018-05-17 04:32:32 +0000";
layers = (
{
background = {
paths = (
{
closed = 1;
nodes = (
"601 -10 OFFCURVE",
"719 124 OFFCURVE",
"719 350 CURVE SMOOTH",
"719 574 OFFCURVE",
"601 710 OFFCURVE",
"378 710 CURVE SMOOTH",
"154 710 OFFCURVE",
"36 574 OFFCURVE",
"36 350 CURVE SMOOTH",
"36 124 OFFCURVE",
"154 -10 OFFCURVE",
"378 -10 CURVE SMOOTH"
);
},
{
closed = 1;
nodes = (
"215 32 OFFCURVE",
"135 158 OFFCURVE",
"135 350 CURVE SMOOTH",
"135 541 OFFCURVE",
"215 668 OFFCURVE",
"377 668 CURVE SMOOTH",
"541 668 OFFCURVE",
"620 541 OFFCURVE",
"620 350 CURVE SMOOTH",
"620 158 OFFCURVE",
"541 32 OFFCURVE",
"377 32 CURVE SMOOTH"
);
},
{
closed = 1;
nodes = (
"440 865 LINE SMOOTH",
"462 877 OFFCURVE",
"474 890 OFFCURVE",
"474 907 CURVE SMOOTH",
"474 922 OFFCURVE",
"462 937 OFFCURVE",
"440 937 CURVE SMOOTH",
"419 937 OFFCURVE",
"404 921 OFFCURVE",
"396 914 CURVE SMOOTH",
"281 807 LINE",
"298 782 LINE"
);
}
);
};
components = (
{
name = O;
},
{
name = acutecomb;
transform = "{1, 0, 0, 1, 357, 230}";
}
);
layerId = "0B1DFD06-3317-40CA-B510-4969A0718C16";
width = 652;
},
{
background = {
paths = (
{
closed = 1;
nodes = (
"601 -10 OFFCURVE",
"719 124 OFFCURVE",
"719 350 CURVE SMOOTH",
"719 574 OFFCURVE",
"601 710 OFFCURVE",
"378 710 CURVE SMOOTH",
"154 710 OFFCURVE",
"36 574 OFFCURVE",
"36 350 CURVE SMOOTH",
"36 124 OFFCURVE",
"154 -10 OFFCURVE",
"378 -10 CURVE SMOOTH"
);
},
{
closed = 1;
nodes = (
"215 32 OFFCURVE",
"135 158 OFFCURVE",
"135 350 CURVE SMOOTH",
"135 541 OFFCURVE",
"215 668 OFFCURVE",
"377 668 CURVE SMOOTH",
"541 668 OFFCURVE",
"620 541 OFFCURVE",
"620 350 CURVE SMOOTH",
"620 158 OFFCURVE",
"541 32 OFFCURVE",
"377 32 CURVE SMOOTH"
);
},
{
closed = 1;
nodes = (
"440 865 LINE SMOOTH",
"462 877 OFFCURVE",
"474 890 OFFCURVE",
"474 907 CURVE SMOOTH",
"474 922 OFFCURVE",
"462 937 OFFCURVE",
"440 937 CURVE SMOOTH",
"419 937 OFFCURVE",
"404 921 OFFCURVE",
"396 914 CURVE SMOOTH",
"281 807 LINE",
"298 782 LINE"
);
}
);
};
components = (
{
name = O;
},
{
name = acutecomb;
transform = "{1, 0, 0, 1, 377, 230}";
}
);
layerId = "39D19F74-97F3-4EB6-8D96-77117D45ABB1";
width = 692;
}
);
leftKerningGroup = O;
note = Oacute;
rightKerningGroup = O;
unicode = 00D3;
},
{
color = 6;
glyphname = Obreve;
lastChange = "2018-05-17 06:29:31 +0000";
layers = (
{
background = {
paths = (
{
closed = 1;
nodes = (
"601 -10 OFFCURVE",
"719 124 OFFCURVE",
"719 350 CURVE SMOOTH",
"719 574 OFFCURVE",
"601 710 OFFCURVE",
"378 710 CURVE SMOOTH",
"154 710 OFFCURVE",
"36 574 OFFCURVE",
"36 350 CURVE SMOOTH",
"36 124 OFFCURVE",
"154 -10 OFFCURVE",
"378 -10 CURVE SMOOTH"
);
},
{
closed = 1;
nodes = (
"215 32 OFFCURVE",
"135 158 OFFCURVE",
"135 350 CURVE SMOOTH",
"135 541 OFFCURVE",
"215 668 OFFCURVE",
"377 668 CURVE SMOOTH",
"541 668 OFFCURVE",
"620 541 OFFCURVE",
"620 350 CURVE SMOOTH",
"620 158 OFFCURVE",
"541 32 OFFCURVE",
"377 32 CURVE SMOOTH"
);
},
{
closed = 1;
nodes = (
"477 774 OFFCURVE",
"519 830 OFFCURVE",
"523 905 CURVE",
"490 905 LINE",
"484 846 OFFCURVE",
"442 820 OFFCURVE",
"378 820 CURVE SMOOTH",
"314 820 OFFCURVE",
"271 846 OFFCURVE",
"264 905 CURVE",
"231 905 LINE",
"235 827 OFFCURVE",
"277 774 OFFCURVE",
"378 774 CURVE SMOOTH"
);
}
);
};
components = (
{
name = O;
},
{
name = brevecomb;
transform = "{1, 0, 0, 1, 326, 230}";
}
);
layerId = "0B1DFD06-3317-40CA-B510-4969A0718C16";
width = 652;
},
{
background = {
paths = (
{
closed = 1;
nodes = (
"601 -10 OFFCURVE",
"719 124 OFFCURVE",
"719 350 CURVE SMOOTH",
"719 574 OFFCURVE",
"601 710 OFFCURVE",
"378 710 CURVE SMOOTH",
"154 710 OFFCURVE",
"36 574 OFFCURVE",
"36 350 CURVE SMOOTH",
"36 124 OFFCURVE",
"154 -10 OFFCURVE",
"378 -10 CURVE SMOOTH"
);
},
{
closed = 1;
nodes = (
"215 32 OFFCURVE",
"135 158 OFFCURVE",
"135 350 CURVE SMOOTH",
"135 541 OFFCURVE",
"215 668 OFFCURVE",
"377 668 CURVE SMOOTH",
"541 668 OFFCURVE",
"620 541 OFFCURVE",
"620 350 CURVE SMOOTH",
"620 158 OFFCURVE",
"541 32 OFFCURVE",
"377 32 CURVE SMOOTH"
);
},
{
closed = 1;
nodes = (
"477 774 OFFCURVE",
"519 830 OFFCURVE",
"523 905 CURVE",
"490 905 LINE",
"484 846 OFFCURVE",
"442 820 OFFCURVE",
"378 820 CURVE SMOOTH",
"314 820 OFFCURVE",
"271 846 OFFCURVE",
"264 905 CURVE",
"231 905 LINE",
"235 827 OFFCURVE",
"277 774 OFFCURVE",
"378 774 CURVE SMOOTH"
);
}
);
};
components = (
{
name = O;
},
{
name = brevecomb;
transform = "{1, 0, 0, 1, 346, 230}";
}
);
layerId = "39D19F74-97F3-4EB6-8D96-77117D45ABB1";
width = 692;
}
);
leftKerningGroup = O;
note = Obreve;
rightKerningGroup = O;
unicode = 014E;
},
{
color = 6;
glyphname = Ocaron;
lastChange = "2018-05-17 05:43:59 +0000";
layers = (
{
background = {
paths = (
{
closed = 1;
nodes = (
"601 -10 OFFCURVE",
"719 124 OFFCURVE",
"719 350 CURVE SMOOTH",
"719 574 OFFCURVE",
"601 710 OFFCURVE",
"378 710 CURVE SMOOTH",
"154 710 OFFCURVE",
"36 574 OFFCURVE",
"36 350 CURVE SMOOTH",
"36 124 OFFCURVE",
"154 -10 OFFCURVE",
"378 -10 CURVE SMOOTH"
);
},
{
closed = 1;
nodes = (
"215 32 OFFCURVE",
"135 158 OFFCURVE",
"135 350 CURVE SMOOTH",
"135 541 OFFCURVE",
"215 668 OFFCURVE",
"377 668 CURVE SMOOTH",
"541 668 OFFCURVE",
"620 541 OFFCURVE",
"620 350 CURVE SMOOTH",
"620 158 OFFCURVE",
"541 32 OFFCURVE",
"377 32 CURVE SMOOTH"
);
},
{
closed = 1;
nodes = (
"404 782 LINE",
"528 911 LINE",
"509 932 LINE",
"401 847 LINE",
"393 840 OFFCURVE",
"384 836 OFFCURVE",
"378 836 CURVE SMOOTH",
"372 836 OFFCURVE",
"364 840 OFFCURVE",
"354 847 CURVE",
"246 932 LINE",
"227 911 LINE",
"351 782 LINE"
);
}
);
};
components = (
{
name = O;
},
{
name = caroncomb;
transform = "{1, 0, 0, 1, 327, 230}";
}
);
layerId = "0B1DFD06-3317-40CA-B510-4969A0718C16";
width = 652;
},
{
background = {
paths = (
{
closed = 1;
nodes = (
"601 -10 OFFCURVE",
"719 124 OFFCURVE",
"719 350 CURVE SMOOTH",
"719 574 OFFCURVE",
"601 710 OFFCURVE",
"378 710 CURVE SMOOTH",
"154 710 OFFCURVE",
"36 574 OFFCURVE",
"36 350 CURVE SMOOTH",
"36 124 OFFCURVE",
"154 -10 OFFCURVE",
"378 -10 CURVE SMOOTH"
);
},
{
closed = 1;
nodes = (
"215 32 OFFCURVE",
"135 158 OFFCURVE",
"135 350 CURVE SMOOTH",
"135 541 OFFCURVE",
"215 668 OFFCURVE",
"377 668 CURVE SMOOTH",
"541 668 OFFCURVE",
"620 541 OFFCURVE",
"620 350 CURVE SMOOTH",
"620 158 OFFCURVE",
"541 32 OFFCURVE",
"377 32 CURVE SMOOTH"
);
},
{
closed = 1;
nodes = (
"404 782 LINE",
"528 911 LINE",
"509 932 LINE",
"401 847 LINE",
"393 840 OFFCURVE",
"384 836 OFFCURVE",
"378 836 CURVE SMOOTH",
"372 836 OFFCURVE",
"364 840 OFFCURVE",
"354 847 CURVE",
"246 932 LINE",
"227 911 LINE",
"351 782 LINE"
);
}
);
};
components = (
{
name = O;
},
{
name = caroncomb;
transform = "{1, 0, 0, 1, 347, 230}";
}
);
layerId = "39D19F74-97F3-4EB6-8D96-77117D45ABB1";
width = 692;
}
);
leftKerningGroup = O;
note = Ocaron;
rightKerningGroup = O;
unicode = 01D1;
},
